<svg xmlns="http://www.w3.org/2000/svg" width="300" height="300" viewBox="0, 0, 300, 300"><path d="M96.307 96.034c.572.827 17.887 7.645 18.782 6.801 1.652-1.557 15.263-21.554 42.066-17.309 23.533 3.727 29.83 16.366 33.633 30.561.304 1.136 2.829-.917 18.178 1.422 15.35 2.339 37.386 6.452 43.284 23.462 5.752 16.589 1.637 30.688-9.441 37.515-11.078 6.828-20.306 9.11-30.309 5.063-10.003-4.048-18.445-14.856-55.221-43.834-36.777-28.977-57.116-34.062-74.542-37.77-15.605-3.32-39.802 3.824-47.523 9.592-7.72 5.769-16.769 13.88-22.233 27.114-8.157 19.756-3.814 40.9-1.589 45.477 2.224 4.576 2.803 5.353 2.803 5.353s-1.659-20.113 7.091-30.572 17.506-15.005 26.264-16.228c8.757-1.223 19.494-.251 27.118 2.865 7.624 3.115 19.994 7.752 30.461 15.073 10.468 7.322 20.797 14.398 30.903 21.665 10.106 7.267 22.712 17.691 34.735 25.933 12.023 8.241 24.795 14.845 40.443 15.78 15.648.936 32.936-.166 46.856-9.043 13.919-8.877 18.273-14.651 21.737-22.119 3.464-7.468 8.813-22.457 7.595-37.341-1.218-14.883-9.057-32.256-26.22-45.032-17.414-12.963-29.574-15.402-38.515-16.144-8.941-.741-14.188.671-14.873.106-.593-.489-4.968-12.014-14.195-19.279-9.227-7.266-28.39-15.043-41.691-14.148-13.191.887-24.477 3.846-34.114 9.518-16.144 9.502-21.483 25.519-21.483 25.519zm-52.027 59.686c1.483.858-4.756 12.422-1.263 21.094 3.492 8.671 9.266 16.955 18.455 20.228 9.19 3.274 16.706 5.786 27.747 3.413 10.164-2.184 11.093-3.889 13.381-4.557 2.288-.667 29.689-5.009 31.079-4.427 1.39.582 1.178.868.224 2.965-.953 2.098-6.149 13.403-20.943 21.865-10.765 6.157-25.491 10.587-43.429 8.212-17.937-2.375-28.515-6.882-36.15-16.281-7.635-9.399-11.3-21.179-9.467-31.497 1.832-10.318 5.747-15.294 8.898-17.51 5.694-4.005 11.468-3.505 11.468-3.505z"/></svg>