<svg xmlns="http://www.w3.org/2000/svg" width="300" height="300" viewBox="0, 0, 300, 300"><path d="M104.758 72c-14.493 0-26.242-11.921-26.242-26.627 0-14.705 11.749-26.626 26.242-26.626s26.242 11.921 26.242 26.626c0 14.706-11.749 26.627-26.242 26.627zm82.666 0c-14.678 0-26.576-11.921-26.576-26.627 0-14.705 11.898-26.626 26.576-26.626 14.677 0 26.576 11.921 26.576 26.626 0 14.706-11.899 26.627-26.576 26.627zm-165.313 17.062c7.389 1.938 14.887 26.787 40.388 46.696 25.501 19.909 31.087 20.31 51.388 24.426 22.113 4.483 48.249 1.026 67.181-5.079 18.932-6.105 30.609-14.024 41.621-22.118s31.086-26.954 31.365-29.137c.279-2.183-5.476.901-11.387 2.817-5.912 1.915-6.899 2.059-14.956 4.445-7.075 2.095-11.711 1.206-13.711-6.286-2-7.493.788-10.713 7.355-12.814 6.568-2.102 46.761-14.606 54.124-14.989 6.854-.356 12.854 1.977 13.294 8.581.468 7.047.967 59.445-.903 63.087-1.87 3.642-4.12 4.22-8.328 4.098-4.209-.122-9.852-3.862-9.875-8.122-.024-4.26.837-27.279-.507-27.672-1.344-.393-5.332 6.238-18.493 18.672-13.162 12.433-15.357 13.57-31.012 22.618-15.655 9.048-28.516 11.714-29.046 13.94-.53 2.226 5.276 15.314 5.834 23.045.557 7.73 1.162 30.17 1.162 30.17s17.924-3.258 27.159-.849c9.236 2.409 17.128 6.383 20.279 13.57 3.29 7.506 5.436 19.131-.97 26.985-6.406 7.854-14.521 16.107-31.63 16.107-17.11 0-25.366-.074-33.071-5.83-7.705-5.756-7.177-10.832-7.039-14.756.138-3.925.086-6.844 3-22 8.334-43.334-4.422-60.866-5-61-.578-.134-9.695 1.638-21.681 2.652-11.985 1.014-24.722.333-24.722.333s-7.576 13.382-5.253 37.198c2.323 23.817 5.839 38.814 3.914 47.149-1.924 8.334-5.815 10.214-14.036 13.234-8.222 3.02-30.892 5.08-42.557-.743-11.665-5.823-17.691-13.912-18.344-24.034-.654-10.123 2.604-19.878 14.013-25.456 11.409-5.578 34.387-3.877 37.246-2.507 1.754.84-1.548-7.183-.246-21.826 1.333-15 7.751-25.409 5.666-26.667-2.084-1.258-25.817-3.667-53.136-26.409-22.45-18.688-42.743-49.396-39.97-55.16 2.773-5.764 10.884-6.369 10.884-6.369z"/></svg>