<svg xmlns="http://www.w3.org/2000/svg" width="300" height="300" viewBox="0, 0, 300, 300"><path d="M201.11 113.301c-33.369 3.061-60.474 33.112-50.918 56.451.308.756-9.236 2.626-15 2.921-15.154.769-24.287-4.176-26.016-14.091-3.113-17.959 13.578-32.331 34.804-29.974 3.317.372 8.287 1.64 10.145 2.575.461.243.871.038.871-.423 7.212-14.577 6.943-13.655 5.469-14.103-9.082-2.703-19.573-3.344-30.883-1.87-19.638 2.549-33.51 11.374-39.62 25.222-.333.768-.628 1.37-.654 1.345-.025-.013.09-.807.256-1.743 3.715-21.917-22.775-31.114-63.112-21.891-1.268.282-2.46.551-2.652.602-.192.038-.371.166-.41.282-.102.346-3.279 13.937-3.279 14.013 0 .026.538-.115 1.191-.32 3.766-1.23 8.967-2.587 12.579-3.292 24.198-4.739 37.75.141 34.202 12.323l-.205.692-8.8.077c-23.954.192-35.97 2.651-44.437 9.069-10.273 7.801-10.516 23.864-.474 30.422 6.892 4.484 13.655 5.099 37.712 3.446 5.444-.371 8.569-.576 11.208-.73 2.972-.179 12.938-.218 14.693-.064l1.114.09.128-.731c.871-4.637 2.05-9.555 4.753-19.701 1.498-5.674 2.421-9.197 2.561-9.799.308-1.345.398-1.127.321.769-.666 15.294 11.298 27.041 30.679 30.153 9.171 1.473 22.737.974 30.256-1.127 1.627-.461 1.793-.551 1.972-1.23.449-1.703 1.256-4.752 1.397-5.316.102-.358.371-1.37.602-2.267.487-1.934.371-1.883 1.281-.576 7.429 10.67 29.795 15.474 46.345 9.953 10.337-3.446 20.431-11.67 18.445-15.026-.755-1.281-1.742-1.037-3.778.922-18.446 17.793-47.011 12.451-47.678-8.889-.333-11.068.385-11.555 18.024-12.105 10.017-.308 12.681-.423 16.332-.718 16.063-1.268 25.952-5.021 30.666-11.618.384-.538.717-.961.743-.948-12.554 46.383-13.028 48.126-13.028 48.177 0 .038 5.419.077 12.041.077h12.041l.129-.321c5.597-20.354 7.66-27.899 8.646-31.447 4.368-15.91 17.511-23.506 35.29-20.419l2.268.398c4.701-15.154 5.111-16.589 5.175-16.794.346-1.101-10.658-1.819-15.128-.999-8.865 1.627-17.498 6.981-21.559 13.373-.794 1.243-.871 1.076-.397-.807.82-3.33 2.588-10.593 2.677-10.978l.09-.409-23.121.064-.244 1.088c-1.588 6.943-2.037 8.826-2.229 9.287l-.166.385-.013-.333c-.09-6.034-8.967-11.542-21.008-13.066-1.742-.218-10.119-.256-12.297-.051zm7.558 4.035c11.695.871 16.422 7.608 11.042 15.755-4.509 6.815-14.296 9.825-37.238 11.465-6.328.448-10.568.948-12.476 1.473-1.166.333-1.128.397-.538-.973 7.442-17.178 23.966-28.848 39.21-27.72zm-143.467 35.418c0 .103-.987 4.163-1.55 6.405-2.498 9.838-5.854 13.078-15.167 14.654-13.181 2.229-21.994-1.281-21.674-8.634.308-7.34 8.775-11.554 24.774-12.348 2.28-.115 13.617-.179 13.617-.077z"/></svg>