<svg xmlns="http://www.w3.org/2000/svg" width="300" height="300" viewBox="0, 0, 300, 300"><path d="M168.754 82.908c-.166.11-2.657.387-5.646.609-6.199.442-13.118 1.549-19.76 3.21-6.532 1.55-9.576 2.38-11.07 2.823-16.938 5.48-25.074 8.69-37.417 14.944-5.259 2.657-8.137 4.262-10.019 5.591-.775.609-1.605 1.052-1.771 1.052-.553 0-11.79 7.638-15.941 10.848-18.985 14.557-36.808 36.366-44.779 54.742-1.107 2.491-2.269 8.026-2.546 12.066-.608 7.694 1.606 13.783 6.753 18.875 2.823 2.767 9.078 6.421 11.015 6.421.443 0 .996.276 1.162.553.166.332 1.052.554 1.938.554.885 0 1.715.221 1.881.498.166.277 3.488.775 7.362 1.162 9.188.886 21.365-.166 34.76-2.989 2.436-.498 5.037-1.162 5.812-1.384.775-.276 3.266-1.051 5.535-1.715 2.269-.665 4.65-1.384 5.258-1.661.609-.221 2.602-.996 4.428-1.716 5.535-2.048 17.27-7.417 13.838-6.254-1.716.553-7.915 1.826-15.775 3.265-25.35 4.484-46.771 3.93-54.465-1.55-2.657-1.881-4.76-5.756-4.76-8.745 0-3.653 1.273-6.255 4.871-10.074 4.041-4.206 8.967-7.749 15.277-10.959l5.037-2.546.166-7.971c.055-4.372.332-8.136.553-8.358.222-.166 1.771 0 3.432.443 7.361 1.937 11.07 2.436 18.432 2.436 4.206 0 8.69-.222 9.963-.554 8.081-1.827 10.572-2.546 14.834-4.207 2.601-1.051 6.918-3.265 9.686-4.87 5.48-3.321 6.31-3.266 6.31.276 0 1.605.277 2.159 1.107 2.436 1.66.553 2.214-.111 2.214-2.712 0-3.266-1.162-5.868-3.764-8.192-2.214-1.993-5.978-3.653-6.642-2.934-.221.221.443 1.052 1.439 1.882.941.83 1.771 1.771 1.771 2.103 0 1.384-9.686 6.642-16.328 8.912-6.587 2.214-9.244 2.601-18.542 2.601-9.244 0-16.052-.885-16.052-2.158 0-.333 2.878-3.488 6.421-7.03l6.42-6.476-1.494-4.041c-2.159-5.867-2.159-5.867-.997-6.199.554-.166 4.262-1.384 8.192-2.767 7.473-2.602 14.779-4.927 21.864-7.03 2.269-.664 4.76-1.439 5.535-1.66 7.804-2.602 32.491-8.248 48.321-11.071 2.048-.387 3.708-.83 3.708-1.051 0-.222-1.66-1.716-3.653-3.321-1.992-1.605-3.487-3.211-3.376-3.543.111-.387.996-1.107 1.937-1.66 1.439-.83 2.103-.941 3.543-.498.996.332 4.428 1.383 7.638 2.324 13.948 4.152 22.528 8.524 25.24 12.842.83 1.328 1.937 3.044 2.546 3.874 1.162 1.771 1.218 2.657.387 5.369-3.099 9.576-10.018 19.262-31.162 43.506-2.38 2.712-4.871 5.59-5.535 6.365-.609.775-2.657 3.155-4.539 5.258-11.402 13.063-15.719 20.923-15.719 28.672 0 3.487.221 4.373 1.605 6.531 3.044 4.871 10.295 6.698 21.808 5.535 3.708-.387 7.638-.885 8.69-1.162 1.052-.277 4.207-1.052 6.919-1.716 4.981-1.162 7.915-1.937 9.963-2.712.609-.221 2.878-.941 4.981-1.605 2.159-.664 4.373-1.439 4.982-1.716.609-.277 2.214-.886 3.598-1.328 1.384-.443 6.365-2.325 11.07-4.207 8.967-3.542 9.188-3.653 16.328-6.919 2.436-1.107 6.2-2.823 8.303-3.764 5.812-2.657 26.236-13.007 27.564-14.003 1.218-.886 1.218-.886-.166-.499-.775.222-1.605.609-1.937.831-.277.221-2.048.941-3.874 1.66-1.827.664-4.041 1.55-4.982 1.937-.886.443-2.878 1.163-4.428 1.661-1.494.498-3.266 1.107-3.875 1.384-.608.277-2.712.996-4.704 1.66-1.993.665-4.096 1.384-4.705 1.661-2.546 1.107-18.487 5.867-24.078 7.195-1.051.277-3.044.775-4.428 1.107-1.383.332-3.708.886-5.258 1.163-1.494.332-3.874.775-5.258 1.051-10.794 2.325-27.786 4.041-32.27 3.321-6.863-1.051-6.697-6.254.443-15.774 1.605-2.159 3.377-4.429 3.93-5.093.609-.609 1.937-2.214 2.989-3.542 1.052-1.329 5.037-6.144 8.856-10.794 9.963-12.011 10.627-12.896 12.122-15.11.775-1.107 1.494-2.104 1.716-2.27.498-.387 5.812-8.302 7.251-10.848 5.479-9.631 6.752-13.727 6.752-21.532.056-7.638-1.051-11.07-5.369-16.66-4.87-6.421-17.103-11.901-29.667-13.284-4.041-.443-19.429-1.052-19.705-.775z"/></svg>