<svg xmlns="http://www.w3.org/2000/svg" width="300" height="300" viewBox="0, 0, 300, 300"><path d="M122.379 51.797l-.592 19.342h-77.961v14.802h78.948v25.658h-65.132v14.014l66.118-.593 66.316-.592-1.184 4.737c-2.961 11.448-15.592 42.04-17.961 43.026-1.381.395-11.052-1.776-21.907-4.934-32.961-10.066-49.343-13.026-71.645-13.026-22.698.197-37.5 4.342-51.711 14.408-27.631 19.737-29.802 58.421-4.144 79.934 27.236 22.895 71.842 25.066 112.302 5.329 14.408-6.908 40.263-25.658 48.948-35.329l3.552-4.145 11.25 5.527c11.25 5.723 80.724 37.894 92.566 42.829l6.316 2.763v-50.724000000000004l-17.171-4.539c-15.592-4.145-55.461-16.579-68.29-21.514l-4.934-1.973 6.513-13.421c6.908-13.816 20.724-52.895 20.724-58.619 0-2.763-3.948-3.158-34.54-3.158h-34.539v-25.658h82.89500000000001v-13.026c0-.592-18.75-.987-41.448-.789l-41.447.197v-39.671h-41.25l-.592 19.145zm-7.698 128.684c10.264 3.553 23.882 9.079 30.198 12.434l11.447 6.119-6.316 7.894c-3.552 4.342-11.644 11.842-18.355 16.777-22.5 16.776-43.421 23.289-70.263 21.71-28.026-1.579-43.026-13.026-44.803-34.342-1.184-13.224 1.777-20.724 10.856-27.632 11.447-8.684 20.723-10.657 45.986-10.065 19.343.592 25.461 1.776 41.25 7.105z"/></svg>