<svg xmlns="http://www.w3.org/2000/svg" width="300" height="300" viewBox="0, 0, 300, 300"><g><path d="M46.284 120.005c-2.315.31-3.759 1.432-5.859 4.558-.585.859-1.086 1.623-1.11 1.683-.023.06-.298.489-.608.966-.31.466-1.384 2.16-2.375 3.771-1.002 1.611-1.933 3.067-2.052 3.246-.12.179-.227.358-.227.394 0 .036-.131.274-.298.513-.167.239-.299.477-.299.525 0 .06 25.633.084 56.957.072l56.945-.036.036-7.912.024-7.9-28.186.036-28.198.036-1.217.322c-3.628.943-5.907 2.256-8.58 4.929-2.101 2.1-3.091 3.699-4.272 6.909-.573 1.539-.704 1.85-.812 1.85-.048 0-.107-3.151-.119-7.017l-.036-7.005-14.499-.012c-7.971-.012-14.821.024-15.215.072zM150.401 120.625v7.912l-.012 7.16h16.062l.036-7.637c.012-4.201 0-7.757-.036-7.912l-.059-.263h-15.991v.74zM203.683 120.148c-.036.155-.048 3.711-.036 7.912l.036 7.637 45.585.036c25.071.012 45.644 0 45.704-.024.083-.024.107-2.757.083-7.936l-.024-7.888-29.988.024c-27.756.036-30.047.048-30.871.239-6.694 1.527-11.289 5.752-13.592 12.506-.489 1.432-.644 1.79-.751 1.79-.048 0-.108-3.258-.12-7.255l-.036-7.244-7.959-.036-7.971-.024-.06.263zM32.311 137.332l-.979 1.527-1.515 2.327c-.466.716-1.218 1.886-1.671 2.59-.465.704-.919 1.42-1.014 1.587-.096.167-.657 1.038-1.241 1.933-2.53 3.89-3.031 4.678-3.533 5.465-.298.454-.978 1.504-1.527 2.327-.537.824-1.038 1.599-1.098 1.731-.06.131-.549.883-1.074 1.67-.525.788-1.11 1.695-1.313 2.029-.202.322-.787 1.241-1.312 2.029-.525.787-1.11 1.694-1.313 2.028-.203.322-.787 1.241-1.312 2.029-.526.787-1.015 1.539-1.074 1.671-.06.131-.609.99-1.218 1.921-.608.919-1.3 1.969-1.527 2.327-.227.358-.895 1.396-1.492 2.315-.608.919-1.348 2.076-1.67 2.565l-1.039 1.587c-.25.382-.453.752-.453.812 0 .06 3.699.107 9.427.107h9.427l.919-1.408c.489-.763 1.241-1.909 1.647-2.53l1.396-2.148c.358-.56 1.134-1.742 1.707-2.625.584-.883 1.623-2.494 2.327-3.58l1.921-2.971c.358-.549 1.289-1.993 2.076-3.198.788-1.206 1.647-2.518 1.91-2.936.453-.716 2.219-3.425 4.415-6.79.596-.895 1.133-1.73 1.193-1.849.131-.227.68-1.062 2.208-3.378.501-.751.942-1.455.99-1.551.048-.095.621-.99 1.265-1.969 2.16-3.258 2.757-4.248 2.602-4.284-.072-.024-.836-.107-1.695-.179-.847-.083-1.897-.191-2.327-.25-.43-.06-1.396-.167-2.148-.239-.752-.072-1.826-.179-2.387-.239-1.742-.191-3.233-.346-4.594-.477-.716-.072-1.682-.179-2.148-.239-.453-.059-1.193-.131-1.635-.179l-.799-.059-.322.501zM150.568 137.057c-.023.024-.047 4.929-.047 10.895 0 5.955-.048 10.836-.096 10.836-.059 0-.215-.358-.37-.812-1.551-4.594-5.346-9.069-9.415-11.122-2.482-1.253-3.616-1.443-11.718-2.028-.752-.06-2.041-.167-2.864-.239-.824-.071-2.184-.179-3.043-.239-.848-.059-2.196-.167-2.984-.238-.787-.072-2.124-.179-2.983-.239-.847-.059-2.219-.167-3.043-.238-2.709-.239-4.212-.358-5.907-.478-.919-.059-2.983-.227-4.594-.358-1.611-.143-3.592-.298-4.415-.358-2.554-.191-4.654-.358-8.413-.668-1.182-.096-2.84-.227-3.699-.286-.848-.06-2.22-.168-3.043-.239-.824-.072-1.946-.155-2.506-.191-.561-.036-1.504-.107-2.113-.179-2.279-.227-2.35-.203-2.124.668 1.647 6.217 5.215 10.06 11.206 12.065 2.171.716 2.398.763 5.202 1.002.752.06 1.671.143 2.029.179.358.024 1.408.107 2.327.179s1.909.143 2.208.179c.298.036.883.084 1.312.119 2.602.191 4.129.323 5.072.418.597.06 1.527.143 2.088.179.561.036 1.611.107 2.327.179.728.06 1.719.143 2.208.179.489.036 1.838.143 2.983.239 1.146.095 2.411.203 2.804.226 1.946.156 4.022.335 5.907.502 1.146.095 2.793.226 3.64.286 3.317.251 4.427.358 4.857.477 2.732.776 3.043 4.786.477 6.05l-.68.335-28.771.035c-24.093.024-28.795 0-28.914-.131-.096-.119-.143-3.437-.155-11.909l-.036-11.742-.835-.084c-.454-.048-1.289-.107-1.85-.155-.561-.036-1.336-.084-1.742-.119-.394-.036-1.17-.096-1.731-.132-1.002-.059-5.19-.37-6.431-.465l-1.826-.131-1.158-.072.024 20.215.036 20.203 38.103.035c42.887.024 38.317.12 40.954-.835 5.704-2.064 10.251-7.363 11.229-13.102.06-.358.143-.86.179-1.11.12-.657.287-.657.287 0 0 1.193.835 3.854 1.814 5.823 2.279 4.559 5.99 7.446 11.551 8.986l1.133.322 19.452.036c20.071.036 20.226.036 22.136-.442 7.422-1.873 11.957-6.408 12.947-12.923.191-1.265.275-25.036.096-25.036-.06-.012-.418-.036-.812-.06-1.062-.071-2.959-.179-4.117-.25-1.145-.06-4.248-.239-7.16-.406-1.086-.072-2.315-.131-2.744-.155l-.776-.024-.072 9.546c-.071 10.275-.059 10.156-.728 11.516-1.384 2.828-.895 2.756-18.532 2.721l-14.081-.036-.716-.287c-1.694-.68-2.697-1.754-3.21-3.472-.072-.275-.143-4.284-.191-11.456l-.06-11.038-1.312-.143c-.716-.072-2.279-.203-3.461-.275-1.181-.071-2.816-.179-3.639-.238-6.265-.478-7.399-.549-7.471-.49zM221.046 141.843c0 .238.632 1.992 1.026 2.84 2.482 5.405 8.198 9.26 14.547 9.797.859.071 2.195.191 2.983.25 4.415.382 7.47.633 9.427.776.525.036 1.169.095 1.432.119.513.06.99.096 3.58.299.919.071 1.909.155 2.208.191.298.023 1.205.107 2.028.167.824.059 1.838.143 2.268.179.429.035 1.443.119 2.267.179.823.071 1.79.155 2.148.191.358.023 1.002.083 1.432.119.429.024 1.336.107 2.028.167 1.91.179 5.752.501 7.28.597 3.353.226 4.415 1.014 4.439 3.269.012 1.444-.645 2.411-1.993 2.948l-.716.286-28.699.06-28.7.06v15.751000000000001l29.296.024c16.253.012 29.535-.024 29.833-.083.299-.048.943-.167 1.432-.239 9.153-1.444 15.322-10.298 14.129-20.286-.573-4.69-5.143-10.657-9.845-12.817-2.124-.978-3.806-1.336-7.267-1.575-.43-.024-1.42-.095-2.208-.167-.787-.06-2.529-.167-3.878-.239-1.348-.071-2.601-.155-2.804-.19-.191-.024-1.086-.084-1.969-.12-.883-.036-1.981-.107-2.447-.155-.453-.048-1.396-.107-2.088-.119-.68-.012-1.277-.048-1.324-.072-.036-.036-.848-.083-1.79-.119-.943-.036-1.886-.096-2.077-.119-.203-.036-.931-.084-1.611-.12l-3.222-.179c-1.086-.071-2.852-.179-3.938-.238l-2.792-.179c-.453-.036-1.396-.096-2.088-.12-.692-.036-1.611-.083-2.041-.119-.429-.036-1.313-.084-1.969-.119-1.05-.06-2.231-.132-6.026-.358-1.11-.072-1.647-.108-5.131-.299-1.277-.071-2.924-.179-3.652-.238-1.706-.156-3.508-.156-3.508 0z"/></g></svg>