<svg xmlns="http://www.w3.org/2000/svg" width="300" height="300" viewBox="0, 0, 300, 300"><path d="M108.462 11.538c-3.385 1.231-8.616 4.924-11.847 8.462-7.846 8.769-11.23 19.385-11.077 34.769 0 10.462.77 13.846 4.924 22.616 8.769 19.077 26.153 25.077 40 13.846 17.692-14.308 20.923-48.154 6.769-68.462-3.693-5.231-16.769-13.692-20.923-13.538-.923.154-4.462 1.077-7.846 2.307zm82.769 6.462c-5.846 1.231-19.539 14.923-23.846 23.846-7.385 15.077-7.077 34.308.769 46.154 6.923 10.308 22.461 14.615 34.615 9.538 16.308-6.769 28.769-31.692 24.923-49.23-4.461-19.539-21.384-33.539-36.461-30.308zm-147.385 58.154c-8.154 2.769-17.077 13.077-20.154 22.923-6.154 20.154-3.846 36.615 6.923 48.923 7.847 8.769 13.077 11.077 24.616 10.154 12.307-.923 20.154-6.308 25.846-18 3.692-7.385 4.154-10.308 4.154-22.462 0-11.077-.616-15.077-3.385-20.154-5.077-9.846-10.461-15.384-19.077-19.692-9.077-4.615-10.461-4.615-18.923-1.692zm185.692 21.692c-11.538 5.846-17.23 18.923-17.23 39.692 0 15.385 2 22.616 7.846 29.385 6.461 7.385 16 10.615 28.154 9.692 11.23-.923 17.23-4 22.154-11.077 5.076-7.384 6.461-13.846 6.461-29.538 0-12.462-.461-15.077-4.308-22.308-6.307-12-14.461-17.384-27.692-18-7.385-.307-11.692.308-15.385 2.154zm-98.769 30c-10.154 4.616-16.154 9.692-22.923 19.539-9.077 13.23-17.538 22.307-36 38.307-28 24.154-33.846 33.231-34 52-.308 22.616 12.769 42.616 31.077 47.846 10.615 3.077 38.154 2.308 58.769-1.846 16-3.077 32-2.307 51.539 2.616 19.692 4.923 41.538 4.923 52.769 0 21.231-9.539 32.154-38.616 23.231-62.616-2.462-6.615-5.539-10.769-12.616-17.384-22.153-20.462-47.23-46.308-55.23-57.077-8.923-12-18.154-19.846-27.231-22.769-8.154-2.77-21.539-2.154-29.385 1.384zm4.616 42.923c2 1.231 2.307 8.616 2.769 47.693l.461 46.153h-18.307c-22.462 0-31.231-2.307-39.077-10.307-7.231-7.385-8.923-12.154-8.923-24.308 0-11.846 1.692-16.923 8.154-23.538 8.153-8.616 14.615-11.077 28.769-11.077h12.307v-26.154h5.847c3.077 0 6.769.769 8 1.538zm30.769 48.769c0 28 .154 28.154 16.461 28.154h11.231v-49.23h18.769l-.615 29.384c-.615 37.231.923 35.231-27.692 35.231-21.539 0-26-1.231-31.846-8.615-2.924-3.847-3.231-6-3.231-29.847 0-14.153.461-26.153 1.077-26.615.461-.615 4.307-1.077 8.461-1.077h7.385v22.615zm-67.385-7.23c-8.615 5.23-11.692 16.615-7.384 26.923 3.077 7.077 9.692 10.307 20.615 9.692l8.769-.461v-38.462l-8.461-.462c-6.308-.307-9.693.462-13.539 2.77z"/></svg>