<svg xmlns="http://www.w3.org/2000/svg" width="300" height="300" viewBox="0, 0, 300, 300"><path d="M134.607 44.672c-11.004 2.555-17.948 5.437-25.284 10.35-8.908 5.961-18.406 17.227-22.86 27.052-3.93 8.712-6.681 22.402-6.354 31.572l.131 2.62-7.205 1.048c-9.105 1.31-13.625 2.62-20.633 5.961-19.061 9.17-31.834 24.629-37.074 44.738-1.507 5.83-1.704 22.86-.328 28.821 3.996 17.424 13.69 31.638 28.231 41.266 5.634 3.669 14.345 7.599 19.651 8.843 1.965.459 4.454 1.048 5.502 1.376 1.048.327 6.288.589 11.66.589 7.663 0 10.808-.262 14.803-1.31 12.118-3.209 21.157-7.86 29.083-14.934 2.948-2.686 21.812-23.581 40.48-44.869 3.407-3.93 7.992-9.105 10.153-11.594 2.162-2.424 6.485-7.402 9.629-11.004 8.581-9.826 14.345-13.494 23.974-15.197 12.838-2.293 27.773 5.306 33.799 17.162 2.555 5.109 4.323 11.986 4.323 16.965 0 5.371 2.948 10.218 8.122 13.559 2.293 1.506 3.407 1.703 7.926 1.703 4.127.065 5.764-.262 7.861-1.376 9.366-4.978 11.266-15.851 6.026-33.93-4.585-15.721-16.31-30.131-31.507-38.646-5.699-3.21-16.703-6.616-23.974-7.533-3.406-.393-6.681-.852-7.205-1.048-.786-.197-.982-1.769-1.048-8.646-.065-6.289-.458-9.695-1.506-13.625-3.865-14.148-8.974-22.926-19.127-32.685-9.236-8.843-19.847-14.476-32.162-17.031-5.109-1.114-20.895-1.245-25.087-.197zm20.633 32.031c10.088 2.293 19.52 11.332 23.057 22.074 1.703 5.24 1.637 15.459-.197 20.568-3.406 9.694-9.301 16.114-18.275 19.913-5.24 2.292-5.96 2.423-12.838 2.423-4.454.066-8.122-.262-9.498-.786-4.061-1.572-10.48-4.978-12.642-6.747-2.947-2.423-7.795-9.89-9.498-14.672-1.834-5.24-1.899-15.393-.131-20.764 2.817-8.647 8.974-15.721 17.293-19.782 7.009-3.406 14.279-4.127 22.729-2.227zm-61.375 76.179c16.834 8.057 23.384 27.773 15.131 45.262-5.83 12.183-20.83 19.716-34.389 17.096-6.157-1.179-8.581-2.161-13.624-5.633-10.743-7.205-16.245-22.074-12.839-34.651 2.751-10.546 11.332-20.174 20.633-23.253 4.585-1.506 5.764-1.638 13.166-1.441 6.485.197 7.336.393 11.922 2.62zm161.921 65.437c-3.603 1.703-7.205 5.371-8.581 8.712-1.244 3.013-1.179 9.628.131 12.248 3.341 6.551 8.123 9.629 15.197 9.629 5.174 0 9.236-1.834 12.38-5.633 4.257-5.044 5.24-10.742 2.751-16.441-2.62-6.157-7.336-9.367-14.345-9.825-3.472-.197-4.847 0-7.533 1.31z"/></svg>