<svg xmlns="http://www.w3.org/2000/svg" width="300" height="300" viewBox="0, 0, 300, 300"><path d="M50.413 108.508h14.067c2.967 0 5.384 2.567 5.384 5.467v1.4c0 2.817-2.417 5.233-5.384 5.233h-12.283c-18.367 0-36.418 10.334-35.801 29.867.467 18.284 18.067 29.084 35.801 29.084h12.283c2.967 0 5.384 2.333 5.384 5.15v1.483c0 2.667-2.884 5.317-5.701 5.484h-13.133c-19.234.233-39.867-9.234-47.917-27.05-6.4-14.151-2.817-30.884 9.7-42.284 10.467-9.617 23.833-13.834 37.6-13.834" fill="#0A090A"/><path d="M52.68 126.008h11.8c2.967 0 5.384 2.417 5.384 5.467v1.483c0 3.05-2.417 5.634-5.384 5.634h-12.35c-4.067.233-7.983.933-11.183 3.6-5.15 4.367-5.634 11.95-.7 16.717 3.05 2.9 7.9 4.533 11.95 4.533h12.283c2.967 0 5.384 2.667 5.384 5.717v1.483c0 3.134-2.417 5.634-5.384 5.634h-12.283c-8.834 0-18.917-3.217-24.851-9.85-7.733-8.767-9.216-21.817 1.884-32.601 8.833-8.6 23.45-7.817 23.45-7.817" fill="#0A090A"/><path d="M121.464 108.425h14.067c2.967 0 5.384 2.566 5.384 5.467v1.4c0 2.9-2.417 5.166-5.384 5.166h-12.267c-18.383 0-36.433 10.4-35.8 29.934.467 18.367 18.05 29.084 35.8 29.084h12.267c2.967 0 5.384 2.35 5.384 5.233v1.333c0 2.817-2.884 5.384-5.7 5.551h-13.134c-19.217.233-39.867-9.234-47.917-27.117-6.4-14.151-2.8-30.801 9.7-42.301 10.467-9.533 23.767-13.75 37.6-13.75zm2.267 16.417h11.8c2.967 0 5.384 2.5 5.384 5.55v1.483c0 3.05-2.417 5.55-5.384 5.55-4.15 0-8.217.067-12.35 0-4.067.3-7.967.934-11.1 3.667-5.233 4.383-5.7 11.967-.783 16.733 3.05 2.884 7.9 4.534 11.966 4.534h12.267c2.967 0 5.384 2.583 5.384 5.7v1.483c0 3.134-2.417 5.634-5.384 5.634h-12.267c-8.833 0-18.917-3.2-24.867-9.934-7.733-8.75-9.216-21.8 1.884-32.517 8.833-8.6 23.45-7.883 23.45-7.883"/><path d="M214.249 124.758c5.15 0 7.967 2.417 9.767 6.184l16.183 38.917s4.134 10.4 9.617 10.083c5.533-.383 8.517-7.816 8.517-7.816l24.617-56.051c1.483-3.434 2.983-7.35 7.667-7.65l9.383-.167-32.05 68.568c-.634 1.4-5.167 12.5-15.251 13.983-9.133 1.4-16.883-3.683-20.483-11.333l-18.2-38.617s-1.884-3.434-6.034-3.284h-5.933c-2.034.233-3.05 1.334-3.2 3.367v45.017c0 3.2-3.05 5.784-6.334 5.784h-1.883c-3.283 0-6.017-2.584-6.017-5.784v-55.267c0-3.667 2.2-5.934 6.017-5.934h23.617m-64.251.384c-2.9 0-5.317 2.583-5.317 5.483v1.8c0 2.883 2.417 5.233 5.317 5.233h12.267c2.033.15 3.05 1.251 3.2 3.351v44.95c0 3.2 2.967 5.784 6.333 5.784h1.8c3.367 0 6.017-2.584 6.017-5.784v-54.867c0-3.684-2.183-5.95-6.017-5.95h-23.6zm66.668-16.717h-66.668c-2.9 0-5.317 2.566-5.317 5.467v1.4c0 2.9 2.417 5.166 5.317 5.166h66.518c6.016.15 9.366 2.417 12.116 8.984l16.184 38.767c.933 2.667 2.5 6.417 4.767 6.817 2.333.383 3.9-3.917 5.233-5.4 1.25-1.484 7.184-15.784 7.184-15.784l19.316-45.584-8.366.167c-5.634.383-7.2 5.783-7.2 5.783l-13.751 34.617c-.083.784-1.016 2.434-2.116 2.267-1.167-.067-1.717-2.267-1.717-2.267l-10-29.233c-4.3-12.351-19.934-11.084-21.5-11.167" fill="#0A090A"/></svg>