<?xml version="1.0" encoding="UTF-8"?>
<!DOCTYPE svg PUBLIC "-//W3C//DTD SVG 1.1//EN" "http://www.w3.org/Graphics/SVG/1.1/DTD/svg11.dtd">
<svg version="1.1" xmlns="http://www.w3.org/2000/svg" xmlns:xlink="http://www.w3.org/1999/xlink" x="0px" y="0px" width="300" height="300" viewBox="0, 0, 300, 300">
  <g id="Image">
    <g>
      <path d="M161.548,137.872 C161.548,137.872 200.638,137.872 235.247,137.872 C269.856,137.872 304.372,73.228 265.551,34.408 C220.77,-10.374 161.159,35.921 161.159,69.579 C161.159,103.202 161.548,137.872 161.548,137.872 z" fill="#000000"/>
      <path d="M160.885,162.791 C160.885,162.791 160.885,201.881 160.885,236.49 C160.885,271.099 225.529,305.614 264.35,266.794 C309.131,222.013 262.799,162.794 229.178,162.402 C195.557,162.009 160.885,162.791 160.885,162.791 z" fill="#000000"/>
      <path d="M138.591,162.128 C138.591,162.128 99.502,162.128 64.893,162.128 C30.284,162.128 -4.232,226.772 34.588,265.592 C79.37,310.374 138.588,264.042 138.981,230.421 C139.373,196.8 138.591,162.128 138.591,162.128 z" fill="#000000"/>
      <path d="M85.548,16.444 C114.297,16.17 139.091,44.883 139.091,66.173 C139.091,100.782 139.229,137.481 139.229,137.481 C139.229,137.481 104.559,137.868 70.936,137.87 C38.531,137.872 17.419,110.727 17.255,90.531 C16.998,58.781 17.255,16.833 17.255,16.833 C17.255,16.833 51.927,16.764 85.548,16.444 z" fill="#000000"/>
    </g>
  </g>
  <defs/>
</svg>
