<svg version="1" xmlns="http://www.w3.org/2000/svg" width="460pt" height="464pt" viewBox="0 0 460.000000 464.000000"><path d="M218 49.7c-9.1.9-30.7 6.3-37.5 9.3-32.7 14.5-47.4 25.6-83.7 63.7-6.3 6.5-13.6 12.8-20.5 17.6-24.3 16.8-41 37-48.9 58.7-3.8 10.6-5.3 17.6-5.4 24.7 0 5.5.3 6.4 2.6 8.2 3.2 2.6 9 2.7 18.9.6l14-3c3.8-.8 9.3-1.5 12.1-1.5 6.8 0 8.9 2.1 9.9 9.7 1.9 16.5 8.6 38.7 16.1 53.5 20.1 40.2 61.3 71.2 115.7 87 4.8 1.4 8.9 3.2 10.4 4.8 1.4 1.4 7.2 9.2 12.9 17.5 10.8 15.7 18.5 24.5 21.4 24.5 5 0 12.8-12.9 16.5-27.2 4.2-16.3 15.7-25 45.5-34.4 16.9-5.3 19.4-6.4 19.8-8.6.9-4.8-14.6-8.8-36.4-9.5-23.5-.8-44.6 2.2-56.1 7.9-5.2 2.6-5.8 4.2-4.3 11.3.6 3.1.9 6.9.5 8.5-.6 2.6-1.1 3-3.8 3-9.9 0-50-20.4-69.6-35.5-8.4-6.4-22.6-20.1-28.6-27.5-7.7-9.5-16.6-26.1-20.9-39.1-4.6-14-5.8-20.7-8.5-49.6-1-11-3.4-15.6-9.5-18.4-7.4-3.3-26.9-2.1-43 2.6-6 1.8-5.1 1.8-7-.1-2.5-2.5-1.9-6 2.6-14.6 7.4-14.3 22.9-27.9 40.4-35.7 3.8-1.7 7.7-3.6 8.6-4.1 1-.6 2.2-1 2.8-1 .6 0 5.2-2 10.4-4.4 6.8-3.2 10.5-5.6 13.7-9.1 7.7-8.3 24.1-22.4 33.2-28.6 4.8-3.2 8.9-5.9 9.2-5.9.2 0 2.6-1.3 5.2-2.8 21.9-12.8 53.5-18.9 76.8-14.8 9.3 1.7 8.5 1.4 23.5 7.4 10.3 4.1 12.5 4.6 21.6 5 7.9.4 12.3 0 20.4-1.7 18.7-4 32.5-10.7 31.8-15.4-.6-4.2-4.9-5.2-23-5.3-19.6-.2-22.4-.9-37.5-10.6-21.8-14-46.3-19.8-72.3-17.1zm140.3 45.5c-4.1 9-22.3 22.3-47.8 34.8-14.3 7-19.5 9.4-36.6 16.7-6 2.7-11.6 7.7-12.4 11.3-.4 1.6.3 7 1.4 12.4 3.4 15.4 2.3 29.3-3 39.9-4.9 9.7-14.3 15.6-17.9 11.2-.6-.8-1.8-4.7-2.7-8.7-1.8-9.1-5.6-20.5-9.3-28.3-3.5-7.3-8.9-11.1-14.4-10.1-7.9 1.5-22.2 14.9-28.9 27.1-4.1 7.5-8.7 21.1-10.6 31.1-1.4 7.7-1.4 28.7 0 37.3 4.6 28.6 19.2 54.9 38.2 68.8 5.3 3.9 7.1 3.7 4.5-.5-10.9-17.6-16.8-31.3-20.5-47.5-3.6-15.3-3.8-40.3-.5-54.4 6.3-27.2 18.7-40.8 26.6-28.9.8 1.4 3 7.4 4.7 13.3 3.8 13.4 5.5 15.3 13.7 15.3 14.1 0 28.8-13.3 34.3-30.9 2.2-7.2 4.8-24.7 4.9-32.5 0-4.3.4-5.3 3.8-8.5 2-2.1 8.2-6.4 13.7-9.6 34.2-19.8 41.8-25 51.9-35.2 3.1-3.2 6.5-7.6 7.6-9.8 2.7-5.6 3.5-12.5 1.8-14.8-1.3-1.8-1.4-1.8-2.5.5zm10.7 39.8c0 1.2 1.5 3.9 3.3 6 1.8 2.2 4 5.2 4.8 6.7.7 1.5 1.6 3 1.9 3.3 1.8 1.8 10 18.6 10 20.5 0 .7.5 1.7 1 2 .6.3 1 1.5 1 2.6 0 1 .4 2.7.9 3.7 1 1.8 4.1 14.3 6.1 24.7 1.4 7.1.7 39.9-1 49-.6 3.3-1.3 7.7-1.6 9.8-.4 2-1 4-1.5 4.3-.5.3-.9 1.5-.9 2.7 0 2.4-2.2 9.3-3.3 10.3-.4.4-.7 1.3-.7 2.1 0 2.8-8.4 19.2-14.6 28.5-3.5 5.3-9.6 12.9-13.4 16.9-3.8 4-6.6 7.7-6.1 8.2.9.9 10.7-2.7 13.1-4.8.8-.7 3.1-2.1 5-3 8.3-4.2 20.1-15.1 29.2-27 4.9-6.5 15.8-27.4 15.8-30.5 0-1 .4-2.1.9-2.4.5-.3 1.2-2 1.5-3.8.4-1.8 1.2-5.6 1.7-8.3 1.7-7.6 2.3-40 .9-46.5-1.9-8.9-3.7-15.5-6-21.5-3.1-8.5-12.6-25.3-16.1-28.5-.8-.8-3.2-3.6-5.1-6.1-4.2-5.2-15.1-14.3-22-18.3-4.8-2.8-4.8-2.8-4.8-.6zm-37 31.4c0 .2 1.5 2.7 3.4 5.5 3 4.4 7.2 12.6 9.6 18.6 6 15 7.6 37.5 4 55.5-3.3 16.9-3.7 18.1-9.7 29.7-3 6-9.7 15.7-13.2 19.2-4 4.2-4.5 5.1-2.4 5.1 3 0 13.9-7 20.2-13 15.2-14.4 23.6-32 24.8-51.6 1.3-22.4-6.7-43.8-22-58.7-7.3-7.1-14.7-12.3-14.7-10.3zm-30.5 27.4c2.1 1.5 7.5 13.1 9 19.3 4.1 17.7-.8 40.5-11.2 51.5-1.9 2-3.2 3.9-2.9 4.1 1 1 9.6-4.8 14.6-9.7 17.2-17.3 17.2-40.8 0-59-3.4-3.5-8-7-9.4-7-.7 0-.8.3-.1.8z"/></svg>