<svg xmlns="http://www.w3.org/2000/svg" width="300" height="300" viewBox="0, 0, 300, 300"><path d="M132.215 43.321c-1.923.769-2.5 10.577-2.5 39.231 0 33.846-.384 38.269-3.269 39.23-1.731.77-21.346 1.154-43.461 1.154-22.693-.192-41.154.577-42.116 1.539-.961.961-1.538 5.961-1.154 11.154l.577 9.423 91.347.961 91.346.962.577 39.807c.384 34.231 0 40-2.693 42.693-2.692 2.692-13.077 3.077-91.346 3.077h-88.269l-1.154 4.423c-.577 2.5-.769 7.884-.385 12.115l.577 7.5 100.577.577c112.5.385 108.654.962 115.77-13.077 3.653-7.115 3.846-11.154 3.846-64.423v-56.731h-44.039c-34.231 0-44.423-.577-46.154-2.5-1.346-1.731-2.307-16.346-2.5-40l-.577-37.307-16.346-.385c-9.038-.192-17.5.192-18.654.577zm-78.461 11.154c-12.308 5.384-16.923 17.307-11.346 29.038 3.846 8.269 11.346 12.5 21.923 12.5 10.384 0 17.692-4.038 21.923-12.115 10.192-18.846-11.539-38.654-32.5-29.423zm170.961 0c-7.307 3.269-14.23 12.5-14.23 19.423 0 12.692 10.577 22.115 25 22.115 14.038 0 25-9.423 25-21.538 0-6.923-7.116-16.923-14.423-20-8.077-3.27-13.654-3.27-21.347 0zm-175.384 134.23l.577 12.116 75 .577c41.346.192 76.923 0 79.423-.577 3.846-.962 4.231-2.116 4.231-12.5v-11.539h-159.808l.577 11.923z"/></svg>