<svg version="1" xmlns="http://www.w3.org/2000/svg" width="295pt" height="296pt" viewBox="0 0 295.000000 296.000000"><path d="M125.5 6.5c-59.8 9.5-107.3 56-118.1 115.5-2.4 12.9-2.4 37.3-.1 49.5 11.3 58.4 53.7 102 111.5 114.7 13.2 2.9 41.4 3.2 54.5.5 18.8-3.8 39.2-12.4 54.5-22.9 4.2-2.9 11.8-9.3 17-14.2 21-20.1 34-43.1 40.8-72.1 2.6-10.9 2.8-13.7 2.8-30.5-.1-20-1.5-29.6-6.9-45.8-14.2-42.3-51.5-78.2-94.5-90.5-19.3-5.6-42.8-7.2-61.5-4.2zm34 22.5c26 2.7 49.2 13.4 68.1 31.3 25.3 24 37.7 52.5 37.7 86.7-.1 33.6-12.9 63.4-37.3 86.3-37 34.8-90.6 42.1-136.2 18.4-29-15-50.9-42.7-59.5-75.4-3-11.6-4.3-35.1-2.4-46.9 8.3-54 51.4-94.9 106.1-100.7 6.9-.7 14.7-.6 23.5.3zm-26.5 17.5c-7.9 1.6-16.6 4.8-16.3 6.1.2 1.4 28.4 59.8 29.3 60.7.4.4 3.1-4.5 5.9-11 2.9-6.5 9.1-20.3 13.8-30.7 9.5-20.9 9.5-19.2.6-22.6-10.5-3.9-21.9-4.8-33.3-2.5zm-44.3 21.5c-7.4 4.9-17.9 15.3-19.9 19.6-.8 1.8 2.7 10.4 21.5 51.3 12.3 27.1 22.9 49.2 23.3 49.2.5-.1 5.2-8.3 10.4-18.3l9.5-18.3h27l9.9 18.8c5.5 10.3 10.2 18.4 10.6 18 1.6-1.7 45-97.8 45-99.5 0-2.7-17.6-19.9-23.7-23.1-2.9-1.6-5.6-2.6-6.1-2.3-.4.2-8.6 18-18.2 39.5l-17.3 39.1h-27.2l-17.5-39.2c-9.6-21.5-18-39.3-18.6-39.5-.6-.2-4.5 1.9-8.7 4.7zm-37.1 60c-7.2 25.5-1.7 52.5 15.3 75 8.9 11.9 33.9 34.2 34.9 31.2.3-1.1-47-112.2-47.9-112.2-.3 0-1.4 2.7-2.3 6zm164 50.1c-13.1 30.8-23.6 56.3-23.2 56.6.9.9 14.2-9.5 22.1-17.3 24.1-23.6 34.9-52 30.1-78.9-1.9-10.7-3.4-16.5-4.4-16.5-.4 0-11.4 25.2-24.6 56.1zm-82 31.7c-6.9 17.5-12.6 32.1-12.6 32.4 0 1.4 11.1 4.7 19 5.8 6.3.9 10 .8 15.4-.1 10.1-1.7 20.2-5.2 19.8-7-.9-4.1-27.6-62.9-28.6-62.9-.2 0-6 14.3-13 31.8z"/></svg>