<svg xmlns="http://www.w3.org/2000/svg" width="300" height="300" viewBox="0, 0, 300, 300"><path d="M207.045 24.932c1.598 7.746 3.442 9.836 10.45 12.418 8.238 2.951 14.14 7.254 17.337 12.418 12.049 19.795-23.976 50.41-75.615 64.18-6.64 1.722-12.295 2.828-12.664 2.459-1.107-.983 3.197-21.147 6.516-31.475 7.131-21.393 18.566-30.492 29.14-23.484 2.95 1.845 4.303 2.091 8.36 1.107 2.582-.738 4.795-1.844 4.795-2.459 0-3.443-8.852-17.213-15.491-23.975-9.099-9.345-16.476-12.91-26.189-12.91-20.41 0-37.131 18.811-49.303 55.451-2.582 7.868-5.779 20.532-7.008 28.155l-2.214 13.771-5.532-.738c-15.369-2.213-28.648-8.975-32.582-16.352-7.5-14.509 6.516-33.32 36.393-48.689l11.189-5.779-.861-4.426c-.492-2.582-1.23-4.918-1.721-5.41-.984-1.106-22.131 8.361-33.812 15.123-29.631 17.459-49.672 40.451-51.885 59.631-1.844 15.246 8.484 30.861 26.066 39.345 10.573 5.041 28.155 9.713 41.434 10.942 10.943.984 9.713-.983 11.926 19.672 4.058 36.517 17.09 68.607 34.426 84.591 8.853 8.237 16.845 11.311 26.681 10.327 22.377-2.336 42.787-32.827 52.008-77.581 1.352-6.64 2.459-13.771 2.459-15.738 0-4.181.369-4.058-12.91-.246l-6.27 1.721-1.353 8.976c-2.09 12.909-7.131 28.032-11.434 33.934-9.836 13.525-19.549 8.115-26.926-15.123-3.689-11.557-7.009-30.861-7.746-44.877l-.369-7.869 13.524-2.951c43.525-9.344 84.836-30 107.09-53.606 31.353-33.074 23.238-64.181-20.778-78.812-7.623-2.582-25.451-5.655-32.459-5.655h-5.533l.861 3.934z"/></svg>