<svg xmlns="http://www.w3.org/2000/svg" width="300" height="300" viewBox="0, 0, 300, 300"><path d="M102.78 13.516c-30.457 7.994-40.888 45.761-18.807 68.223 25.508 25.812 69.594 7.69 69.594-28.63 0-26.573-25.203-46.294-50.787-39.593zm97.691 6.167c-2.513.685-10.127 2.817-16.98 4.645-12.259 3.198-12.411 3.274-12.031 5.177 17.361 74.163-96.319 107.056-120.304 34.874-1.447-4.417.228-4.417-15.685-.153-21.32 5.711-20.026 5.254-19.797 7.158 3.654 32.208 49.34 67.538 89.086 69.061 11.421.456 11.878.685 6.167 2.741-48.578 17.893-82.69 81.319-73.401 136.446 1.599 9.29 1.143 8.909 7.615 7.234 2.969-.762 12.182-3.122 20.558-5.254 19.34-4.949 18.731-4.721 17.893-7.69-4.72-16.447.762-43.477 12.335-60.686 37.158-55.355 121.599-44.543 143.833 18.351.685 2.132 1.675 3.959 2.056 4.111.913.305 41.726-10.127 42.563-10.812.533-.457-4.112-13.02-7.005-19.264-20.787-44.467-62.741-71.726-112.538-73.096l-13.553-.457 5.863-3.274c37.462-21.396 58.02-64.569 49.873-104.848-1.219-6.167-.914-5.939-6.548-4.264z"/></svg>