<svg xmlns="http://www.w3.org/2000/svg" width="300" height="300" viewBox="0, 0, 300, 300"><path d="M129.956 20.731c-15.12 2.76-26.4 6.36-38.64 12.48-38.7 19.38-65.46 57.3-71.16 100.98-1.08 8.28-.9 24.66.3 33.3 5.46 37.86 26.34 70.74 58.26 91.62 16.2 10.62 32.58 16.8 54 20.34 22.62 3.78 49.32-.54 72.6-11.7 27.3-13.08 48.78-34.38 61.8-61.26 5.52-11.34 11.16-29.1 10.2-32.04-.18-.66-1.8-1.62-4.08-2.46-2.04-.72-14.94-5.76-28.68-11.16-13.8-5.4-25.86-9.84-26.82-9.84-1.08 0-2.46.6-3.36 1.32-.78.78-5.34 7.02-10.02 13.98-21.96 32.34-41.58 59.7-42.9 59.7-.66 0-.84-1.5-.9-7.98 0-4.32-.24-24.66-.48-45.12-.48-38.28-.6-39.66-2.94-41.46-1.68-1.26-12.9-4.86-23.46-7.44-9-2.16-50.1-10.5-63.66-12.84-6.9-1.2-8.04-1.8-6.3-3.12 3.24-2.52 36.66-17.46 51.3-22.92 9-3.3 24.6-8.34 32.28-10.38 5.94-1.56 7.68-2.76 8.22-5.82.36-2.28-2.46-28.62-4.32-39.48-.54-3.3-.84-6.48-.6-7.08.36-.9.54-.9 2.16-.12 4.26 2.22 35.64 25.38 45.12 33.36 9 7.5 10.8 7.8 25.74 4.56 16.38-3.6 16.8-4.02 10.38-9.96-11.82-10.8-34.98-22.62-53.46-27.24-9.72-2.4-16.68-3.3-29.22-3.6-11.34-.3-12.54-.24-21.36 1.38zm124.98 58.86c-2.88 3.9-11.58 21.72-11.94 24.3-.24 2.16.06 2.94 3.3 7.86 7.56 11.46 16.5 28.5 25.02 47.64 4.86 10.98 5.52 12.18 6.3 11.7 1.2-.72 2.52-9.54 2.82-18.6.3-8.52.12-10.8-1.32-19.8-2.52-15.96-7.32-30.84-14.16-44.1-3.06-6.06-6.72-11.4-7.74-11.4-.36 0-1.38 1.08-2.28 2.4z"/></svg>