<svg xmlns="http://www.w3.org/2000/svg" width="300" height="300" viewBox="0, 0, 300, 300"><path d="M271.558 11.076c9.59 0 17.366 7.776 17.366 17.366v243.116c0 9.59-7.776 17.366-17.366 17.366h-243.116c-9.59 0-17.366-7.776-17.366-17.366v-243.116c0-9.59 7.776-17.366 17.366-17.366zm-219.804 40.545v22.406h190.138v-22.406zm12.031 41v91.387h16.349l19.854 41.694h-53.916v21.979h200.886v-21.979h-55.29l20.119-41.694h17.806v-91.387zm136.865 22.484v47.196h-109.075v-47.196zm-33.432 110.597h-42.222l-19.638-41.694h81.979z"/></svg>