<?xml version="1.0" encoding="UTF-8"?>
<!DOCTYPE svg PUBLIC "-//W3C//DTD SVG 1.1//EN" "http://www.w3.org/Graphics/SVG/1.1/DTD/svg11.dtd">
<svg version="1.1" xmlns="http://www.w3.org/2000/svg" xmlns:xlink="http://www.w3.org/1999/xlink" x="0px" y="0px" width="300" height="300" viewBox="0, 0, 300, 300">
  <g id="Layer 1">
    <path d="M263.794,19.949 C272.772,19.949 280.051,27.228 280.051,36.206 L280.051,263.794 C280.051,272.772 272.772,280.051 263.794,280.051 L36.206,280.051 C27.228,280.051 19.949,272.772 19.949,263.794 L19.949,36.206 C19.949,27.228 27.228,19.949 36.206,19.949 z M58.029,57.904 L58.029,78.879 L236.023,78.879 L236.023,57.904 z M69.292,96.286 L69.292,181.836 L84.596,181.836 L103.182,220.867 L52.71,220.867 L52.71,241.442 L240.765,241.442 L240.765,220.867 L189.007,220.867 L207.841,181.836 L224.509,181.836 L224.509,96.286 z M197.415,117.334 L197.415,161.515 L95.307,161.515 L95.307,117.334 z M166.118,220.867 L126.593,220.867 L108.209,181.836 L184.952,181.836 z" fill="#000000"/>
  </g>
  <defs/>
</svg>
