<?xml version="1.0" encoding="UTF-8"?>
<!DOCTYPE svg PUBLIC "-//W3C//DTD SVG 1.1//EN" "http://www.w3.org/Graphics/SVG/1.1/DTD/svg11.dtd">
<svg version="1.1" xmlns="http://www.w3.org/2000/svg" xmlns:xlink="http://www.w3.org/1999/xlink" x="0px" y="0px" width="300" height="300" viewBox="0, 0, 300, 300">
  <g id="Layer 1">
    <path d="M271.558,11.076 C281.148,11.076 288.924,18.852 288.924,28.442 L288.924,271.558 C288.924,281.148 281.148,288.924 271.558,288.924 L28.442,288.924 C18.852,288.924 11.076,281.148 11.076,271.558 L11.076,28.442 C11.076,18.852 18.852,11.076 28.442,11.076 z M51.754,51.621 L51.754,74.027 L241.892,74.027 L241.892,51.621 z M63.785,92.621 L63.785,184.008 L80.134,184.008 L99.988,225.702 L46.072,225.702 L46.072,247.681 L246.958,247.681 L246.958,225.702 L191.668,225.702 L211.787,184.008 L229.593,184.008 L229.593,92.621 z M200.65,115.105 L200.65,162.301 L91.575,162.301 L91.575,115.105 z M167.218,225.702 L124.996,225.702 L105.358,184.008 L187.337,184.008 z" fill="#000000"/>
  </g>
  <defs/>
</svg>
