<svg xmlns="http://www.w3.org/2000/svg" width="300" height="300" viewBox="0, 0, 300, 300"><path d="M10.916 150v139.084h278.168v-278.168h-278.168v139.084zm81.92-105.008c17.386 5.702 21.559 13.352 13.631 25.035-5.981 8.762-5.564 9.179 9.736 8.762l13.491-.417 1.112-6.259c1.669-9.736 5.286-11.961 20.863-13.074 21.558-1.53 38.387-3.477 57.72-6.676 14.326-2.364 19.193-2.643 21.836-1.391 3.338 1.391 14.882 17.942 16.69 23.644 1.252 3.756-2.364 12.101-5.841 14.048-1.669.834-7.511 1.53-13.074 1.53-5.564 0-19.472.973-31.016 2.086-11.405 1.113-22.253 2.086-24.062 2.086-3.755 0-5.702 3.895-2.92 5.703 1.112.695 16.412 1.252 34.214 1.252h32.129l3.616 4.311c1.947 2.365 3.616 5.424 3.616 6.815 0 4.868-8.206 43.673-11.822 56.329-2.086 6.815-5.563 17.108-7.789 22.671-2.225 5.702-4.033 10.988-4.033 11.822.139 2.643 10.848 10.014 22.81 15.717 18.637 9.04 18.359 15.299-1.53 36.301-2.643 2.781-5.703 4.589-7.65 4.589-4.033 0-15.856-7.371-29.625-18.498l-9.736-7.789-6.954 6.537c-8.623 8.345-21.141 17.803-25.73 19.472-4.729 1.808-9.319-.139-16.412-7.093l-6.12-5.842-2.225 3.338c-5.007 7.372-6.816 8.624-12.24 9.458-4.868.556-7.232 0-14.743-4.312-10.709-5.98-14.047-9.179-13.908-14.047 0-4.173 1.53-6.676 12.657-19.889 4.589-5.563 8.484-11.127 8.484-12.239 0-2.504-8.484 6.258-22.532 22.809-5.424 6.398-11.266 12.24-12.935 13.074-6.119 2.782-12.517.278-20.167-8.206-11.127-12.239-11.544-14.743-4.033-26.565l4.033-6.398v-57.859h-4.033c-3.199 0-6.259-2.086-12.796-8.205-11.266-10.571-11.544-13.77-2.086-27.817 8.345-12.518 15.994-29.069 21.697-47.15 3.477-10.848 5.563-15.16 8.623-17.663 5.146-4.312 5.702-4.312 19.054 0zm-12.795 8.623c-.417.695-2.921 7.789-5.564 15.855-5.146 15.3-15.716 37.692-23.088 48.541l-4.311 6.258 5.841 5.286c3.199 2.92 6.398 5.007 7.233 4.729.973-.418 5.285-7.233 9.597-15.3l8.066-14.743 16.969-.417c9.318-.278 17.385-.278 17.941 0 .557.139-.556 4.59-2.364 9.875-1.947 5.285-3.477 10.153-3.477 10.988 0 1.808 12.796 6.258 14.047 4.868 1.113-1.252 9.18-28.095 10.432-34.91l.973-4.451h-23.227c-12.656 0-23.088-.556-23.088-1.113 0-2.364 7.233-18.776 10.432-23.922 3.894-6.12 3.894-5.981-7.094-9.736-9.179-3.199-8.623-3.06-9.318-1.808zm135.328 8.762c-9.596 2.225-49.931 6.954-59.527 6.954-5.425 0-10.571.278-11.684.696-1.529.556-1.669 8.206-1.251 40.751.834 70.238-4.173 93.187-26.426 119.334-4.451 5.286-8.206 10.014-8.206 10.571 0 1.391 13.213 8.067 15.577 8.067 1.808-.139 9.041-10.571 16.829-24.201 4.451-7.789 10.154-23.922 12.101-34.493 2.503-13.213 5.702-43.394 5.563-52.574-.278-12.934-.278-12.795 3.06-12.239 2.782.417 3.338 2.225 6.815 22.81 4.173 25.035 6.12 32.824 12.239 47.567l4.173 10.153-8.901 8.901c-5.007 4.868-13.631 11.405-19.472 14.604-5.703 3.199-10.432 6.12-10.432 6.398 0 .417 2.921 3.755 6.537 7.51l6.537 6.676 8.345-6.258c4.729-3.478 13.074-10.849 18.499-16.273l10.153-9.736 8.623 8.484c4.868 4.59 13.352 11.822 19.054 15.856l10.293 7.371 2.225-3.338c1.252-1.947 3.894-5.424 6.12-7.789 2.086-2.364 3.755-4.729 3.755-5.285 0-.417-3.894-2.643-8.623-4.729-10.014-4.59-25.035-15.299-28.234-20.167-1.947-3.06-1.808-3.894 2.642-13.63 2.643-5.703 6.676-16.273 8.902-23.644 5.146-15.995 13.352-54.8 12.239-57.581-.556-1.808-6.537-2.087-37.692-2.087h-36.857v-26.147l18.498-1.53c10.014-.974 23.644-2.226 30.181-2.921 6.537-.834 15.995-1.391 21.28-1.391 5.146 0 9.319-.417 9.319-.973 0-.418-2.365-4.59-5.146-9.041-5.703-8.623-6.815-9.04-17.108-6.676zm-.556 69.542c-2.503 19.055-14.882 57.025-18.498 57.025-4.173 0-13.491-32.685-15.299-53.548l-.835-10.431h35.606l-.974 6.954zm-22.114 5.146c-1.113 1.808 2.364 20.167 3.894 20.446 1.53.139 6.537-18.36 5.424-20.168-.834-1.53-8.484-1.669-9.318-.278zm-108.486-20.723c-2.92 3.199-1.808 4.45 3.895 4.45 2.364 0 5.007.696 5.841 1.53 1.252 1.252 1.947.696 2.504-1.947.556-1.947.556-4.311 0-5.007-1.391-2.503-9.736-1.808-12.24.974zm-10.014 15.021c-.973.278-1.252 13.074-.834 36.022.417 37.831 0 41.726-6.954 50.488l-2.643 3.477 5.841 6.398c3.338 3.477 6.676 6.398 7.511 6.398.974 0 6.537-5.703 12.378-12.518 5.981-6.954 14.882-16.69 19.889-21.836l9.041-9.179-4.033-6.398c-2.226-3.477-4.59-6.398-5.425-6.398-.695.139-5.424 5.285-10.431 11.544l-9.041 11.405-.695-34.771-.695-34.771-6.259-.279c-3.477-.139-6.954 0-7.65.418zm55.217 4.729c-3.199 5.285-8.067 5.98-18.499 2.781-5.146-1.53-9.735-2.781-10.153-2.781-.417 0-.834 7.51-.834 16.69 0 15.16.973 19.332 3.477 15.299 1.113-1.808 8.484-1.808 11.822 0 1.53.834 4.59 4.172 6.954 7.65 2.365 3.477 4.868 6.258 5.424 6.258 1.669 0 4.59-29.485 4.034-40.056-.417-7.789-.556-8.345-2.225-5.841zm33.936 56.329c-.556 3.477-2.225 9.875-3.477 14.047-1.391 4.173-2.086 7.789-1.53 8.206.556.278 3.616-2.086 6.815-5.424l5.981-6.12-2.226-6.815c-3.616-10.57-4.589-11.266-5.563-3.894z"/></svg>