<svg xmlns="http://www.w3.org/2000/svg" width="300" height="300" viewBox="0, 0, 300, 300"><path d="M0 150v150h300v-300h-300v150zm88.35-113.25c18.75 6.15 23.25 14.4 14.7 27-6.45 9.45-6 9.9 10.5 9.45l14.55-.45 1.2-6.75c1.8-10.5 5.7-12.9 22.5-14.1 23.25-1.65 41.4-3.75 62.25-7.2 15.45-2.55 20.7-2.85 23.55-1.5 3.6 1.5 16.05 19.35 18 25.5 1.35 4.05-2.55 13.05-6.3 15.15-1.8.9-8.1 1.65-14.1 1.65s-21 1.05-33.45 2.25c-12.3 1.2-24 2.25-25.95 2.25-4.05 0-6.15 4.2-3.15 6.15 1.2.75 17.7 1.35 36.9 1.35h34.65l3.9 4.65c2.1 2.55 3.9 5.85 3.9 7.35 0 5.25-8.85 47.1-12.75 60.75-2.25 7.35-6 18.45-8.4 24.45-2.4 6.15-4.35 11.85-4.35 12.75.15 2.85 11.7 10.8 24.6 16.95 20.1 9.75 19.8 16.5-1.65 39.15-2.85 3-6.15 4.95-8.25 4.95-4.35 0-17.1-7.95-31.95-19.95l-10.5-8.4-7.5 7.05c-9.3 9-22.8 19.2-27.75 21-5.1 1.95-10.05-.15-17.7-7.65l-6.6-6.3-2.4 3.6c-5.4 7.95-7.35 9.3-13.2 10.2-5.25.6-7.8 0-15.9-4.65-11.55-6.45-15.15-9.9-15-15.15 0-4.5 1.65-7.2 13.65-21.45 4.95-6 9.15-12 9.15-13.2 0-2.7-9.15 6.75-24.3 24.6-5.85 6.9-12.15 13.2-13.95 14.1-6.6 3-13.5.3-21.75-8.85-12-13.2-12.45-15.9-4.35-28.65l4.35-6.9v-62.4h-4.35c-3.45 0-6.75-2.25-13.8-8.85-12.15-11.4-12.45-14.85-2.25-30 9-13.5 17.25-31.35 23.4-50.85 3.75-11.7 6-16.35 9.3-19.05 5.55-4.65 6.15-4.65 20.55 0zm-13.8 9.3c-.45.75-3.15 8.4-6 17.1-5.55 16.5-16.95 40.65-24.9 52.35l-4.65 6.75 6.3 5.7c3.45 3.15 6.9 5.4 7.8 5.1 1.05-.45 5.7-7.8 10.35-16.5l8.7-15.9 18.3-.45c10.05-.3 18.75-.3 19.35 0 .6.15-.6 4.95-2.55 10.65-2.1 5.7-3.75 10.95-3.75 11.85 0 1.95 13.8 6.75 15.15 5.25 1.2-1.35 9.9-30.3 11.25-37.65l1.05-4.8h-25.05c-13.65 0-24.9-.6-24.9-1.2 0-2.55 7.8-20.25 11.25-25.8 4.2-6.6 4.2-6.45-7.65-10.5-9.9-3.45-9.3-3.3-10.05-1.95zm145.95 9.45c-10.35 2.4-53.85 7.5-64.2 7.5-5.85 0-11.4.3-12.6.75-1.65.6-1.8 8.85-1.35 43.95.9 75.75-4.5 100.5-28.5 128.7-4.8 5.7-8.85 10.8-8.85 11.4 0 1.5 14.25 8.7 16.8 8.7 1.95-.15 9.75-11.4 18.15-26.1 4.8-8.4 10.95-25.8 13.05-37.2 2.7-14.25 6.15-46.8 6-56.7-.3-13.95-.3-13.8 3.3-13.2 3 .45 3.6 2.4 7.35 24.6 4.5 27 6.6 35.4 13.2 51.3l4.5 10.95-9.6 9.6c-5.4 5.25-14.7 12.3-21 15.75-6.15 3.45-11.25 6.6-11.25 6.9 0 .45 3.15 4.05 7.05 8.1l7.05 7.2 9-6.75c5.1-3.75 14.1-11.7 19.95-17.55l10.95-10.5 9.3 9.15c5.25 4.95 14.4 12.75 20.55 17.1l11.1 7.95 2.4-3.6c1.35-2.1 4.2-5.85 6.6-8.4 2.25-2.55 4.05-5.1 4.05-5.7 0-.45-4.2-2.85-9.3-5.1-10.8-4.95-27-16.5-30.45-21.75-2.1-3.3-1.95-4.2 2.85-14.7 2.85-6.15 7.2-17.55 9.6-25.5 5.55-17.25 14.4-59.1 13.2-62.1-.6-1.95-7.05-2.25-40.65-2.25h-39.75v-28.2l19.95-1.65c10.8-1.05 25.5-2.4 32.55-3.15 7.05-.9 17.25-1.5 22.95-1.5 5.55 0 10.05-.45 10.05-1.05 0-.45-2.55-4.95-5.55-9.75-6.15-9.3-7.35-9.75-18.45-7.2zm-.6 75c-2.7 20.55-16.05 61.5-19.95 61.5-4.5 0-14.55-35.25-16.5-57.75l-.9-11.25h38.4l-1.05 7.5zm-23.85 5.55c-1.2 1.95 2.55 21.75 4.2 22.05 1.65.15 7.05-19.8 5.85-21.75-.9-1.65-9.15-1.8-10.05-.3zm-117-22.35c-3.15 3.45-1.95 4.8 4.2 4.8 2.55 0 5.4.75 6.3 1.65 1.35 1.35 2.1.75 2.7-2.1.6-2.1.6-4.65 0-5.4-1.5-2.7-10.5-1.95-13.2 1.05zm-10.8 16.2c-1.05.3-1.35 14.1-.9 38.85.45 40.8 0 45-7.5 54.45l-2.85 3.75 6.3 6.9c3.6 3.75 7.2 6.9 8.1 6.9 1.05 0 7.05-6.15 13.35-13.5 6.45-7.5 16.05-18 21.45-23.55l9.75-9.9-4.35-6.9c-2.4-3.75-4.95-6.9-5.85-6.9-.75.15-5.85 5.7-11.25 12.45l-9.75 12.3-.75-37.5-.75-37.5-6.75-.3c-3.75-.15-7.5 0-8.25.45zm59.55 5.1c-3.45 5.7-8.7 6.45-19.95 3-5.55-1.65-10.5-3-10.95-3-.45 0-.9 8.1-.9 18 0 16.35 1.05 20.85 3.75 16.5 1.2-1.95 9.15-1.95 12.75 0 1.65.9 4.95 4.5 7.5 8.25s5.25 6.75 5.85 6.75c1.8 0 4.95-31.8 4.35-43.2-.45-8.4-.6-9-2.4-6.3zm36.6 60.75c-.6 3.75-2.4 10.65-3.75 15.15-1.5 4.5-2.25 8.4-1.65 8.85.6.3 3.9-2.25 7.35-5.85l6.45-6.6-2.4-7.35c-3.9-11.4-4.95-12.15-6-4.2z"/></svg>