<svg xmlns="http://www.w3.org/2000/svg" width="300" height="300" viewBox="0, 0, 300, 300"><path d="M184.884 7.287c-29.12 5.075-50.887 23.73-60.316 51.632l-1.601 4.737h-1.241c-.676-.023-2.661-.158-4.398-.316-63.496-5.955-110.414 56.842-86.684 116.03 22.466 55.985 94.601 70.647 137.932 28.015 3.88-3.812 4.128-4.015 4.624-3.744.293.158 2.053 1.353 3.902 2.684 3.993 2.864 6.79 4.624 10.038 6.316 2.797 1.466 2.774 1.376.992 3.879-9.541 13.376-32.188 24.654-60.879 30.271-36.181 7.105-61.737-1.714-81.158-28.038-1.241-1.691-2.775-3.767-3.406-4.601-2.842-3.835-7.805-3.587-7.805.383 0 7.985 6.09 21.294 15.677 34.196 15.496 20.865 44.368 45.383 52.782 44.842 5.12-.338 15-8.865 29.774-25.714 3.835-4.376 2.888-4.196 9.271-1.669 28.263 11.142 25.579 10.398 28.083 7.804 11.03-11.323 26.819-46.241 26.819-59.301v-1.985l2.662-2.278c4.646-3.97 10.466-10.195 18.496-19.85 1.895-2.255 3.587-4.105 3.744-4.105.294 0 6.158 2.075 9.271 3.271 1.985.744 8.098 2.977 13.963 5.053 5.503 1.962 5.188 1.962 7.082.067 8.324-8.21 19.76-33.699 22.827-50.864.745-4.128.091-5.843-2.774-7.264-3.271-1.601-4.917-1.398-5.707.722-5.346 14.707-21.203 25.263-50.504 33.632-9.699 2.797-27.18 4.962-27.18 3.406 0-.181.406-1.737.902-3.474s1.331-5.188 1.827-7.647c1.083-5.458.677-4.872 3.429-4.872 82.037-.09 107.616-111.225 33.406-145.105-13.105-6-30.609-8.436-43.85-6.113zm17.346 10.354c15 2.188 27.857 10.827 36.384 24.428 2.12 3.384 2.21 3.88.473 2.324-12.699-11.391-28.06-15.97-48.676-14.482-17.414 1.263-31.692 7.466-46.692 20.346-3.677 3.136-3.722 1.895-.203-5.368 7.195-14.887 22.105-24.993 40.353-27.339 2.842-.361 15.654-.293 18.361.091zm7.895 56.819c-.045.068-2.346.677-5.098 1.354-14.977 3.766-25.06 7.624-32.616 12.473-1.782 1.128-2.031 1.128-3.203-.18-.97-1.083-1.016-1.015 1.443-2.549 7.895-4.872 20.053-8.707 33.767-10.624 3.587-.496 5.932-.677 5.707-.474zm-95.955.812c17.932 2.436 33.812 13.579 42.97 30.158.88 1.579.383 1.353-2.188-.97-15.068-13.624-38.233-18.812-63.338-14.188-14.414 2.662-30.542 11.121-42.79 22.466-2.571 2.391-2.639 2.391-2.007.113 4.421-16.105 18.631-29.616 37.037-35.188 4.624-1.398 8.887-2.143 15.541-2.707 1.918-.157 12.97.068 14.775.316zm79.398 55.985c.745.384 3.181 1.737 5.414 3 2.233 1.263 4.782 2.662 5.662 3.113 3.586 1.804.767 2.233-5.324.812-6.067-1.399-6.496-1.714-7.105-5.165-.519-2.91-.609-2.797 1.353-1.76zm-69.586 7.376c-.18.113-2.526.722-5.188 1.376-59.707 14.481-61.399 35.368-5.414 66.271 7.512 4.15 7.196 3.857 4.354 3.879-10.669.046-27.677-8.616-38.752-19.714-23.03-23.075-10.421-42.586 32.594-50.436 6.586-1.218 13.466-1.962 12.406-1.376z"/></svg>