<svg version="1" xmlns="http://www.w3.org/2000/svg" width="1244pt" height="1348pt" viewBox="0 0 1244.000000 1348.000000"><path d="M787.5 13.6c-4.4.8-12.3 2.1-17.5 3-5.2 1-13.8 2.8-19 4.2-5.2 1.3-11.1 2.8-13 3.2-10.3 2.4-31 9.7-44.5 15.7-13.3 6-34 16.9-40.5 21.3-1.4 1-6.4 4.2-11.1 7.3-12.6 8.1-24.8 17.6-38.9 30.2-40.8 36.6-72.5 83.7-91.5 136-2.4 6.6-5.1 14.5-5.9 17.6-.8 3.1-2.2 7.9-3.2 10.8-2.2 6-1.6 5.9-19.4 3.4-7.3-1-21.9-1.7-40-2-29.1-.5-45.9.6-65 4.2-4.1.7-11.5 2.1-16.5 3-4.9.9-11.5 2.3-14.5 3.2-3 .8-7.3 2-9.5 2.5-2.2.6-8 2.3-12.8 3.9-4.9 1.6-9.3 2.9-9.8 2.9-3.5 0-44.4 17.9-55.9 24.5-3.6 2.1-8.7 5-11.5 6.5-2.7 1.5-9.7 5.8-15.3 9.6-5.7 3.8-12 8-13.9 9.2-16.9 11.2-48.3 40.3-67.9 62.7-29.6 33.9-55.5 79.8-70.8 125.6-3.6 10.8-9.4 32.9-11.2 42.9-.8 4.7-2.3 13-3.4 18.5-3.2 17.3-4.3 36.9-3.7 66.5.6 28.4 1.3 37.5 4 52 .9 4.7 2.3 12.3 3.1 17 4.9 27.1 18.1 64.9 32.9 94 24.8 48.9 60 91.9 102.8 125.8 13.1 10.4 34.4 24.8 48.2 32.6 29.8 16.9 70.8 32.6 101.1 38.7 5.6 1.1 13 2.6 16.6 3.4 16.7 3.5 41 5.5 67.5 5.5 37.1 0 66.5-3.8 99-12.7 5-1.3 11.4-3.1 14.4-3.9 3-.8 7.3-2.3 9.5-3.3 2.3-1 5.4-2.1 6.9-2.5 9.2-2.3 43.7-18.5 61.2-28.8 20.6-12.1 48.5-32.5 62.4-45.8 2.1-1.9 5.7-5.3 8.2-7.6 2.4-2.2 8.4-8.4 13.3-13.7 4.9-5.3 9.6-9.7 10.5-9.7.9 0 6.6 3.7 12.8 8.3 22.6 16.6 38.1 26.4 53.1 33.8 5.6 2.7 10.2 5.3 10.2 5.7 0 1.4-5.6 9.6-11.7 17.2-18.1 22.4-42.6 42.8-73.5 61.4-10.6 6.3-38.9 20.5-52.3 26.2-28.6 12.1-71.9 26.1-100 32.4-4.9 1.1-11.2 2.7-14 3.5-2.7.8-8.6 2.2-13 3-4.4.8-11.1 2.2-15 3-10.5 2.1-22 4.2-31 5.4-4.4.7-12.3 1.9-17.5 2.8-12 2-75.1 3-88 1.4-18.2-2.2-41-6.4-50-9.1-1.9-.6-6.9-2-11-3.1-4.1-1-10.4-3.1-14-4.5-32.5-13.2-40.6-17.4-65.5-34-33.3-22.2-67-56.5-94-95.6-8.5-12.2-13-17.5-16.6-19.3-7.1-3.7-17-2.6-22.1 2.5-3.3 3.4-3.6 7.5-1.3 21 4.8 29.2 17.7 61.6 37.7 95 10.8 18 21.7 33.6 43.3 61.9 2.5 3.4 11.4 14.1 12.8 15.6.7.7 3.7 4.1 6.7 7.6 37.7 43.5 87.4 90.3 129.5 121.8 24.5 18.3 35.5 25.4 50.6 33.1 18.8 9.6 28.6 8.8 47.9-3.7 26.3-17.2 67.1-57 112.4-109.6 6.1-7 11.6-12.7 12.3-12.7.7 0 3.2.7 5.5 1.6 4 1.5 6.9 2.6 25.8 10.2 4.1 1.7 10.4 4.2 14 5.5 11.8 4.5 28.2 10.9 52.5 20.5 13.2 5.2 27.3 10.7 31.4 12.3 11.6 4.6 12.2 4.4 22.4-6.2 8.5-8.9 18.5-21.5 26-32.9 2-3 4.5-6.6 5.5-8 12-16 40.8-72.8 53.9-106.3 1.9-4.9 3.8-9.6 4.3-10.5 2.8-4.8 17.8-49.8 22.7-67.5 5.2-19.3 7.5-32.9 7-41.2l-.5-7 9.8-8c19.9-16.2 50-48.2 81.2-86.3 10.5-12.7 19.5-23.2 20-23.2 1 0 39.1 13.5 42.3 15.1 1.1.5 7 2.7 13 4.9 6.1 2.1 14.8 5.3 19.5 7 4.7 1.8 12.8 4.7 18 6.5 9.5 3.3 19.9 7.1 27.5 9.9 2.2.8 5 1.5 6.3 1.6 3.2 0 12.8-9.3 20.8-20 3.4-4.7 7.1-9.6 8.2-11 1-1.4 5.3-8.4 9.6-15.5 4.2-7.2 8.4-14.1 9.2-15.5 4.6-7.8 19.2-37.9 25.1-52.1 7.9-18.5 9.8-23.4 19.3-49.4 4.7-13 15-49 17-59.5.5-3 1.7-9.4 2.6-14.2 1.5-8 1.5-9.1-.1-14.4-.9-3.1-2.3-6.7-3.1-7.9-4.9-7.5-26.2-14.4-31.6-10.3-.9.7-2.7 4.4-3.9 8.3-8.4 26.9-28.8 52.1-62.8 77.4-24.7 18.5-60.7 37.1-97.6 50.5-5.5 2-12.2 4.5-15 5.5-10.4 4-23 7.8-54.5 16.7-4.7 1.3-11.6 3.3-15.5 4.5-13.8 4-21.4 5.2-57 9-5.5.5-17.8 1.3-27.2 1.6-16.2.6-17.3.5-17.3-1.2 0-1.8 2.4-10.9 6-22.5 1.9-6.2 6.5-27.5 9-42.3.7-3.7 1.5-6.7 1.9-6.8.3 0 12.8-.5 27.6-.9 14.9-.5 30.6-1.3 35-2 13.9-2 26.9-4.3 29.3-5.2 1.3-.4 5.7-1.5 9.7-2.3 19.7-4.1 55.4-18.1 79-31.1 16.7-9.2 38.9-24.3 54.1-36.9 13.7-11.4 35.8-33.4 42.7-42.5 2.3-3 6.7-8.7 9.8-12.5 19.6-24.4 41.8-66.2 52-98 4.3-13.3 6.9-22.2 7.8-26.5.5-2.5 1.9-9 3.1-14.5 2.2-10.2 3.2-17.6 5.1-37 1.3-13.5.6-63.1-1-73.5-3-18.7-4.3-26-5.8-32.5-2.8-11.9-9.1-34.3-10.3-36.5-.6-1.2-2.1-5-3.2-8.3-4.2-12.9-13.3-32-25.6-53.7-3.2-5.6-15.4-24-19.6-29.4-10.6-13.9-16.8-20.9-32.1-36.2-22.3-22.4-30-28.7-56-45.8-11.6-7.6-33.3-19.8-37.5-21.1-1.4-.4-3-1.1-3.6-1.6-.6-.5-5.6-2.8-11-5-30.5-12.5-47.3-17.2-84.9-23.6-12.9-2.2-78.6-2.7-90-.7zm63.4 46.9c41.4 5.5 80.6 22.2 113.1 48.2 9.5 7.6 26.4 24.4 34.4 34.3 10.5 12.8 29.7 43.2 28.3 44.6-.2.3-4-2.9-8.3-7-22.4-21.1-45.2-35.3-75.4-46.9-32.2-12.4-61.9-17.7-101-18.2-54.3-.6-89.9 4.8-132 20-15.4 5.6-44 19.7-58.5 28.9-26.9 17-38.6 25.7-62 46.3-4.5 4-8.5 7.3-8.9 7.3-3.2 0 3.5-19.9 12.9-38.5 18.7-36.8 46.5-65.5 87-89.6 22.1-13.1 61.2-25.4 94-29.4 15-1.8 62.4-1.8 76.4 0zm39.1 255.4c-3.6 1-11 2.9-16.5 4.1-25.9 5.8-63.3 17-91.5 27.3-8.9 3.2-32.1 13.3-36.5 15.9-1.1.7-6.5 3.7-12 6.8-5.5 3.1-12 7-14.4 8.8-2.4 1.8-4.9 3.2-5.6 3.2-.7 0-3.4-2.3-6-5.1l-4.8-5.2 2.4-1.9c1.3-1 6.5-4.3 11.4-7.2 36.9-22.1 97.5-40 157.4-46.6 5.2-.6 9.7-1.3 10-1.5.2-.3 3.2-.5 6.5-.4h6.1l-6.5 1.8zm-434 2.2c10.8 1 11.9 1.3 30 5.4 15.7 3.6 39.8 11.9 53 18.4 13.7 6.6 34.1 19.8 47.5 30.6 10.2 8.3 31.4 29.6 39.7 40 12.1 15.1 31.5 46 30.6 48.7-.2.5-5-3.7-10.8-9.2-41.4-40-95.2-63-166-71.3-13.8-1.7-70.4-1.4-85 .3-32 3.7-49.6 7.4-74 15.2-9.8 3.1-30.6 11-33.7 12.7-1 .6-7 3.4-13.3 6.4-35.9 16.7-81.6 48.2-107.9 74.4-3.5 3.5-6.7 6.3-7.3 6.3-2.3 0 3.3-18.7 10.5-34.9 11.2-25.2 24.4-44.6 45.1-66 31.5-32.3 68.9-54 116.6-67.4 8.3-2.3 10.7-2.9 27.5-6.3 24.3-4.8 67.1-6.3 97.5-3.3zm357.3 249c2.3 1.2 10.4 5.7 18 10 7.6 4.4 14.1 7.9 14.4 7.9.4 0 1.4.6 2.2 1.4.9.7 5.9 3.5 11.1 6.2 5.2 2.6 11.3 5.9 13.4 7.2 3.5 2.2 3.7 2.5 2.1 3.5-2.5 1.4-17.7.2-29.5-2.2-13.3-2.8-29-8-31.5-10.5-1.7-1.7-2.5-4.7-3.8-13.1-1.9-12.2-1.9-12.5-1.2-12.5.3 0 2.5 1 4.8 2.1zm-311.9 36.5c-4.9 1.2-16.8 4.1-26.4 6.4-16.8 4-24.3 6.1-43 11.7-84.7 25.6-134.6 54.2-151.1 86.6-4.3 8.4-5.9 14.7-5.9 23.7 0 24.3 15.6 50.8 46.7 79.2 14.4 13.2 25.2 22 48.6 39.3 12.9 9.6 36.9 24.8 58.7 37.3 9.1 5.2 17.9 10.2 19.5 11.1 1.7 1 6.6 3.7 11 6.1 4.4 2.3 8.5 4.6 9 5 .6.4 5.2 2.9 10.3 5.5 5 2.5 9.2 5.1 9.2 5.6 0 1.1-2.9 1.3-13.5 1-15.8-.5-40.6-6.8-61.5-15.6-66.6-28.1-125.5-77.7-148.6-125.1-7.9-16.2-12.4-32.7-12.4-45.1 0-9.5 4.7-25.6 10.7-36.7 7.7-14.1 25-31.3 42.8-42.3 36.5-22.5 87.6-40 145.5-49.8 5.2-.9 12.7-2.2 16.5-3 9.8-1.9 40.1-4.5 41.9-3.6.6.3-3 1.5-8 2.7z"/></svg>