<svg xmlns="http://www.w3.org/2000/svg" width="300" height="300" viewBox="0, 0, 300, 300"><path d="M143.182 7.172c-18.334 1.262-37.323 6.363-50.707 13.636-27.02 14.697-45.606 38.687-54.849 70.808-3.838 13.333-5.101 25-4.596 41.717.556 18.435 3.132 29.95 11.263 49.344 2.071 5 3.636 9.242 3.434 9.394-.555.555-1.919-.657-5.353-4.596-9.495-10.909-17.425-26.919-20.758-41.869-1.111-4.848-1.161-6.263-1.161-21.869.05-16.262.05-16.818 1.414-22.979 1.616-7.374 2.828-11.869 5.252-19.344.96-3.03 1.616-5.606 1.465-5.757-.758-.758-8.637 14.09-12.879 24.191-6.364 15.354-8.131 24.748-8.131 43.334 0 11.464.606 16.616 2.98 25.757 7.171 27.576 22.02 49.697 42.929 63.687 10.505 7.071 20.505 11.111 34.394 13.94 6.363 1.262 27.323 1.262 33.283 0 15.858-3.435 27.929-9.95 39.192-21.263 6.313-6.313 10-11.313 14.09-18.99 4.445-8.434 6.718-15.454 9.899-31.06 3.081-14.798 4.243-17.475 10.354-23.99 2.374-2.475 4.293-4.748 4.293-5 0-.808-1.97-1.162-6.01-1.162-6.717.051-14.293 3.131-19.647 7.929-1.414 1.313-5.05 5.556-8.03 9.495-9.192 12.222-14.798 17.323-22.879 20.859-3.232 1.414-3.485 1.464-12.374 1.464-10 0-11.212-.252-18.232-3.636-6.616-3.182-12.374-8.939-15.858-15.808-2.021-3.99-4.445-11.515-5.303-16.515-.96-5.556-.96-19.849 0-26.919 2.929-21.97 14.798-44.596 30.606-58.637 12.272-10.909 24.798-18.232 38.889-22.878 11.363-3.738 13.888-4.091 29.494-4.091l13.637.05 7.424 1.869c20.354 5.101 34.95 13.434 53.03 30.353 4.344 4.041 8.031 7.374 8.233 7.374.505 0-1.465-3.131-6.01-9.596-6.112-8.687-21.213-23.687-29.091-28.939-10.051-6.616-22.98-12.222-34.899-15-11.717-2.728-27.071-3.485-38.586-1.818-39.798 5.707-73.99 31.919-89.344 68.535-4.747 11.313-8.131 23.939-9.394 35.05-.606 5.657-.606 25.455 0 30.556 1.061 8.434 1.162 10.101.607 10.101-1.415 0-5.354-8.232-8.081-16.768-2.879-8.99-3.889-16.414-3.839-29.192.051-12.979.808-19.646 3.485-30.05 3.586-14.041 9.091-25.303 17.424-35.859 4.899-6.212 18.283-19.242 24.091-23.485 7.324-5.303 16.061-10.202 23.384-13.08 10.101-3.99 12.172-4.546 30.808-8.536l1.263-.252-1.263-.354c-1.313-.404-4.798-.454-9.343-.151zm37.374 47.828c-16.213 3.081-28.334 9.596-40.152 21.465-3.939 3.939-7.071 7.676-9.495 11.363-7.778 11.566-10.555 18.99-14.495 37.98-1.97 9.596-3.333 14.495-5.05 17.879-1.263 2.424-5.303 7.323-8.283 9.949-2.424 2.122-1.717 2.829 3.182 3.081 4.848.253 8.383-.505 13.484-2.98 5.202-2.525 9.849-6.919 16.263-15.353 5.606-7.374 13.182-15.051 17.273-17.525 5.05-3.031 8.788-4.091 15.757-4.344 9.192-.353 16.162 1.515 23.384 6.162 9.798 6.363 15.505 16.717 17.93 32.374 1.111 7.121.606 20.959-1.061 29.393-2.323 11.768-7.677 25.455-13.586 34.596-13.838 21.364-37.374 38.233-61.869 44.293-18.737 4.596-39.394 3.081-57.878-4.242-15.354-6.111-26.364-13.687-42.475-29.243-2.879-2.777-5.202-4.848-5.202-4.595 0 .656 3.99 6.767 7.727 11.868 3.939 5.303 15 16.869 21.313 22.222 16.263 13.738 41.566 22.728 64.041 22.728 3.383 0 8.838-.253 12.121-.505 27.374-2.273 56.768-17.829 75.202-39.849 12.828-15.303 21.161-32.879 25.959-54.596 1.314-5.959 1.364-7.222 1.617-21.969.151-12.324.05-17.071-.606-22.172-.455-3.586-.708-6.616-.607-6.768.91-.909 7.526 13.788 9.546 21.111 2.323 8.586 2.626 11.515 2.626 25.758-.05 11.565-.202 14.192-1.161 19.495-3.889 21.515-10 34.949-22.526 49.545-8.03 9.344-17.272 17.727-25.555 23.182-12.778 8.333-26.364 13.737-43.435 17.172-3.484.707-6.414 1.414-6.565 1.565-.404.455 18.99-.303 22.98-.858 1.969-.303 6.363-1.212 9.848-2.071 21.97-5.303 39.344-15.151 54.192-30.757 15.758-16.566 25.303-35.556 30.707-61.162l1.667-7.778v-17.424c.05-17.222.05-17.525-1.364-23.99-2.576-12.121-5.303-20.606-10.909-34.293-1.162-2.778-2.071-5.303-2.071-5.656 0-1.314 1.616-.051 5.152 4.04 10.353 11.97 18.434 28.737 21.262 44.394.96 5.353 1.112 7.929 1.112 19.293 0 11.363-.152 13.99-1.162 19.444-1.364 7.475-3.434 15.859-5.859 23.485-.959 3.03-1.666 5.606-1.565 5.707.202.202 2.626-3.333 5-7.475 4.646-7.929 11.919-27.525 13.939-37.272 1.313-6.566 2.222-22.273 1.869-31.92-.758-18.535-9.798-42.222-22.475-58.838-3.485-4.545-13.434-14.596-18.03-18.182-10.051-7.828-20.808-12.929-34.849-16.515-5.858-1.465-6.464-1.515-19.697-1.717-9.949-.101-14.596 0-17.171.505zm-25.455 83.889c-4.091 1.162-5.404 2.172-12.525 9.697-4.748 5.05-7.526 7.525-9.899 8.939-4.849 2.829-5 3.132-2.071 4.445 1.97.858 3.687 1.161 8.131 1.313 5.505.202 5.808.151 8.99-1.364 2.728-1.262 4.798-2.98 11.515-9.495 5.96-5.858 8.889-8.333 10.859-9.192 1.465-.707 2.576-1.464 2.475-1.767-.101-.303-1.515-1.111-3.182-1.768-3.838-1.515-10.354-1.919-14.293-.808z"/></svg>