<svg xmlns="http://www.w3.org/2000/svg" width="300" height="300" viewBox="0, 0, 300, 300"><path d="M117 35.571c-87.857 26.572-99.857 31.286-99.857 39 0 5.143 12.857 51.429 28.714 103.286 33 108.429 38.572 117.857 71.143 117.857 17.143 0 24.857-4.285 91.286-51.428 56.571-40.286 72.857-54 73.714-62.572.857-6-2.571-22.714-7.286-37.285-4.714-14.572-16.285-52.286-26.143-83.572-13.714-44.143-19.285-56.571-24.857-56.143-3.857 0-52.285 14.143-106.714 30.857zm87.857 5.572c15 10.286 12 36-5.143 44.143-10.714 5.143-13.285 4.714-23.571-2.572-15.857-12-16.714-27.857-2.143-39.428 13.714-10.715 18-11.143 30.857-2.143zm-69.428 12c5.571 22.714-13.286 40.714-34.286 33-18.857-7.286-21.429-31.714-3.429-38.143 21.429-8.143 34.715-6.429 37.715 5.143zm1.714 109.714c0 71.572-5.143 92.572-25.714 107.143-17.572 12.429-23.572 10.714-32.143-8.571-7.286-16.286-7.286-18.429-.857-32.572 5.571-11.571 7.285-27.428 7.285-72.428v-57.858h51.429v64.286zm77.143-21.857c0 23.571-1.286 43.714-3 44.571-2.143 1.286-13.715 3.429-25.715 5.143l-22.714 3v-95.143h51.429v42.429z"/></svg>