<?xml version="1.0" encoding="UTF-8"?>
<!DOCTYPE svg PUBLIC "-//W3C//DTD SVG 1.1//EN" "http://www.w3.org/Graphics/SVG/1.1/DTD/svg11.dtd">
<svg version="1.1" xmlns="http://www.w3.org/2000/svg" xmlns:xlink="http://www.w3.org/1999/xlink" x="0px" y="0px" width="300" height="300" viewBox="0, 0, 300, 300">
  <g id="Layer 1">
    <g>
      <path d="M140.797,14.802 C37.673,22.11 -19.708,137.685 36.861,224.027 C93.972,311.182 224.433,303.603 271.259,209.953 C317.813,117.114 244.463,7.494 140.797,14.802 z M161.639,32.666 C260.432,42.681 303.197,162.586 233.365,233.23 C176.796,290.341 79.627,274.101 44.169,201.562 C3.569,119.009 70.153,23.193 161.639,32.666 z" fill="#000000"/>
      <path d="M71.777,142.557 L125.099,142.557 L125.099,160.421 L71.777,160.421 L72.048,226.193 L145.399,226.463 L145.399,207.246 L93.16,207.246 L93.431,182.074 L145.399,182.074 L145.399,123.339 L93.16,123.339 L93.16,103.039 L145.399,103.039 L145.399,81.386 L71.777,81.386 z" fill="#000000"/>
      <path d="M154.601,103.039 L206.84,103.039 L206.84,123.339 L154.601,123.339 L154.601,182.074 L206.84,182.074 L206.84,206.975 L154.601,207.246 L154.601,226.463 L228.223,226.193 L228.223,160.421 L174.901,160.421 L174.901,142.557 L228.223,142.557 L228.223,81.386 L154.601,81.386 z" fill="#000000"/>
    </g>
  </g>
  <defs/>
</svg>
