<svg xmlns="http://www.w3.org/2000/svg" width="300" height="300" viewBox="0, 0, 300, 300"><path d="M69.917 101.653c-.991 2.975-6.446 3.719-27.52 3.719-21.571 0-26.033.744-26.033 3.719 0 3.223 8.429 3.719 61.983 3.719 53.554 0 61.984-.496 61.984-3.719 0-2.975-4.711-3.719-27.273-3.719-22.562 0-27.273-.744-27.273-3.719 0-2.479-2.479-3.719-7.19-3.719-3.967 0-7.686 1.487-8.678 3.719zm116.529 0c-.991 2.727-4.958 3.719-13.884 3.719-9.422 0-12.397.992-12.397 3.719s2.728 3.719 9.918 3.719c5.454 0 9.917.496 9.917 1.24 0 .743-3.223 7.933-7.438 16.115-3.967 8.182-7.438 15.868-7.438 17.356 0 1.487 9.174 2.479 23.554 2.479h23.553v19.835c0 17.107-.743 20.33-4.958 22.81-2.728 1.735-4.959 4.71-4.959 6.694 0 5.454 15.372 1.24 21.818-6.198 4.711-5.207 5.455-9.174 5.455-24.794v-18.347h24.793c20.083 0 24.794-.744 24.794-3.719 0-2.727-4.959-3.719-24.05-4.215l-24.298-.744-.743-10.661c-.744-10.165-.992-10.413-9.422-10.413s-8.43 0-8.43 11.157v11.157h-11.9c-6.695 0-12.645-.744-13.637-1.488-.744-.743 1.488-7.438 5.207-14.876l6.446-13.388h42.893c36.446 0 42.892-.496 42.892-3.719s-6.198-3.719-40.909-3.719c-35.206 0-40.661-.496-39.421-3.719 1.239-2.975-.496-3.719-7.19-3.719-5.455 0-9.174 1.487-10.166 3.719zm-165.62 32.479c-.247 7.686-.247 14.38.248 14.876.496.496 12.149.992 25.538.992h24.297v13.388c0 19.091-2.479 28.265-7.686 30-2.727.992-4.711 3.224-4.711 5.455 0 5.455 14.133 2.479 21.571-4.711 4.958-4.711 5.702-7.686 5.702-24.793v-19.339h49.587v-29.752h-113.554l-.992 13.884zm99.174.248l-.744 6.942h-81.818l-.744-6.942-.744-6.694h84.794l-.744 6.694zm-89.752 35.951c-2.479 8.677-6.694 19.338-9.422 23.553l-4.958 8.182h5.206c5.703 0 17.852-14.876 25.29-30.992 6.446-13.884 5.95-16.115-3.471-16.115-8.182 0-8.43.496-12.645 15.372zm75.372-11.653c0 5.454 10.909 26.529 18.595 35.702 3.719 4.215 8.678 7.686 11.157 7.686 4.215 0 4.215-.744-1.24-10.661-3.471-5.703-7.438-16.364-8.925-23.554-2.976-12.396-3.224-12.892-11.405-12.892-5.703 0-8.182 1.239-8.182 3.719zm71.157-1.984c-.496 1.24-1.984 6.447-2.975 11.653-.744 5.455-4.463 15.372-7.686 21.818-4.711 9.174-5.207 11.901-2.48 11.901 6.943 0 24.546-24.545 29.752-41.653 1.736-4.958.992-5.454-6.942-5.454-4.71 0-9.173.743-9.669 1.735zm70.165-.744c0 .744 2.727 7.191 5.951 14.629 6.446 14.628 20.082 31.487 25.289 31.487 4.463 0 4.463-1.24-.744-8.925-2.231-3.472-5.95-13.141-8.182-21.571-4.215-15.124-4.463-15.372-13.14-16.115-5.207-.496-9.174-.248-9.174.495z"/></svg>