<?xml version="1.0" encoding="UTF-8"?>
<!DOCTYPE svg PUBLIC "-//W3C//DTD SVG 1.1//EN" "http://www.w3.org/Graphics/SVG/1.1/DTD/svg11.dtd">
<svg version="1.1" xmlns="http://www.w3.org/2000/svg" xmlns:xlink="http://www.w3.org/1999/xlink" x="0px" y="0px" width="300" height="300" viewBox="0, 0, 300, 300">
  <g id="Layer 1">
    <g>
      <path d="M157.392,28.935 C148.452,30.052 148.452,31.17 154.04,32.287 C171.92,40.11 188.682,55.755 216.62,92.632 C247.91,133.979 245.675,132.862 263.555,116.099 C276.964,104.924 276.964,104.924 256.85,81.457 C216.62,33.405 198.74,23.347 157.392,28.935 z" fill="#000000"/>
      <path d="M124.985,36.757 C29.998,54.637 -5.762,169.739 62.405,237.906 C119.398,294.899 214.385,279.254 252.38,206.617 C259.085,194.324 265.789,168.622 263.555,167.504 C261.32,165.269 213.267,160.799 204.327,160.799 C200.975,160.799 197.622,163.034 186.447,171.974 C155.157,195.442 140.63,206.617 139.512,206.617 C97.048,155.212 91.46,148.507 91.46,147.389 C148.452,101.572 151.805,99.337 151.805,99.337 C188.682,144.037 199.857,157.447 199.857,157.447 C202.092,157.447 232.265,136.214 236.735,131.744 L238.97,129.509 C219.972,103.807 207.68,88.162 192.035,69.165 C167.45,37.875 152.922,31.17 124.985,36.757 z" fill="#000000"/>
    </g>
  </g>
  <defs/>
</svg>
