<?xml version="1.0" encoding="UTF-8"?>
<!DOCTYPE svg PUBLIC "-//W3C//DTD SVG 1.1//EN" "http://www.w3.org/Graphics/SVG/1.1/DTD/svg11.dtd">
<svg version="1.1" xmlns="http://www.w3.org/2000/svg" xmlns:xlink="http://www.w3.org/1999/xlink" x="0px" y="0px" width="300" height="300" viewBox="0, 0, 300, 300">
  <g id="Layer 1">
    <path d="M25.314,68.03 L25.314,139.198 C24.043,220.532 24.043,216.72 34.21,238.324 C49.46,270.096 78.69,287.888 113.003,287.888 C118.086,287.888 118.086,287.888 115.544,286.617 C54.543,259.929 31.668,206.553 59.627,154.448 C101.565,73.113 219.754,93.447 232.463,184.948 L232.463,191.303 L208.317,191.303 L184.17,190.032 L181.629,184.948 C167.649,137.927 99.023,148.094 99.023,197.657 C97.752,247.22 170.191,256.116 182.9,209.095 C184.17,201.47 184.17,201.47 212.129,202.74 L232.463,202.74 L232.463,209.095 C231.192,219.262 226.109,233.241 219.754,242.137 C217.213,247.22 214.671,251.033 214.671,251.033 C213.4,254.845 241.359,226.887 247.713,217.991 C331.589,113.781 205.775,1.946 113.003,97.26 C100.294,109.968 100.294,113.781 101.565,59.134 C101.565,33.717 101.565,12.112 100.294,12.112 z" fill="#000000"/>
  </g>
  <defs/>
</svg>
