<svg xmlns="http://www.w3.org/2000/svg" width="300" height="300" viewBox="0, 0, 300, 300"><g><path d="M103.378 33.367c-.845.212-3.222.687-5.282 1.057-44.845 8.081-73.422 33.172-86.31 75.799-.845 2.641-2.535 10.353-3.328 14.526-.898 5.282-.898 28.787 0 34.598 7.976 49.493 34.757 83.246 77.542 97.719 12.836 4.385 11.938 4.596 21.868-5.176 4.49-4.437 17.801-17.431 29.58-28.894 11.779-11.462 26.041-25.354 31.693-30.9 5.652-5.546 15.53-15.213 21.921-21.393 6.392-6.233 16.163-15.793 21.657-21.181 5.546-5.441 12.096-11.832 14.684-14.262 2.536-2.377 4.596-4.701 4.596-5.071 0-1.162-74.584-1.003-76.591.211-2.536 1.479-2.641 2.747-2.641 37.873v32.538l-1.321.846c-4.965 3.222-21.657 3.01-34.334-.423-34.017-9.191-52.716-43.472-42.046-76.908 6.022-18.699 19.808-31.693 42.469-39.88 1.214-.476 16.797-.687 55.832-.898l54.142-.264.158-25.249.106-25.196-61.379.053c-33.805 0-62.118.211-63.016.475zM193.809 171.601c-.634.634-.423 95.132.211 95.554.317.159 4.015-3.063 8.557-7.553 4.437-4.332 18.963-18.541 32.327-31.587 13.364-13.047 29.422-28.735 35.654-34.915 6.233-6.128 13.681-13.364 16.534-16.058 2.799-2.694 5.123-5.124 5.123-5.388 0-.475-97.931-.581-98.406-.053z"/></g></svg>