<svg xmlns="http://www.w3.org/2000/svg" width="300" height="300" viewBox="0, 0, 300, 300"><path d="M37.089 17.175c-8.015 1.323-15.442 7.684-18.603 15.919l-1.066 2.757-.111 46.875c-.037 25.772-.037 52.096 0 58.456l.111 11.581 5.845-7.72c3.235-4.265 6.471-8.456 7.206-9.375.735-.92 2.316-2.905 3.529-4.412 23.934-30.221 55.662-60.662 71.287-68.493 19.044-9.485 47.243-2.5 53.088 13.199 2.574 6.838 1.875 7.684-17.058 20.367-34.522 23.052-63.787 45.147-87.317 65.772-12.022 10.552-19.485 17.427-29.705 27.243l-7.059 6.802.073 33.455.111 33.456.808 2.169c2.942 7.721 9.964 14.706 17.096 16.949l2.904.919h222.794l2.795-.919c8.455-2.868 16.029-10.221 18.272-17.794.514-1.728.588-4.559.588-20.258v-18.272l-1.728.147c-1.14.111-3.272-.183-5.846-.772-53.492-12.389-137.279-15.625-205.11-7.904-5.441.625-10.956 1.213-12.169 1.324l-2.279.22-.625-1.985c-1.545-4.596-.809-7.28 2.316-8.677 35-15.588 93.125-30.294 137.022-34.669 51.801-5.147 74.191-.992 87.389 16.177l.993 1.286.037-43.529v-43.493l-.993.221c-3.345.809-23.639 7.537-30.809 10.221-35.625 13.382-68.161 30.073-100.33 51.47-16.103 10.735-25.589 13.456-42.243 12.096-26.434-2.169-36.287-13.787-22.905-27.059 30.221-29.89 104.853-54.191 193.53-62.978 1.875-.184 3.493-.404 3.566-.515.552-.551.184-52.426-.404-54.338-2.243-7.5-8.603-13.603-16.324-15.625-1.912-.515-225.698-.809-228.676-.294z"/></svg>