<svg xmlns="http://www.w3.org/2000/svg" width="300" height="300" viewBox="0, 0, 300, 300"><path d="M11.93 78.07c-.351.351-.351 18.421 0 40.176l.526 39.649h13.86v-25.263l12.807 12.631c11.754 11.755 13.333 12.632 20.175 12.632 7.369 0 7.544-.176 5.088-3.684-1.404-1.93-7.018-8.246-12.456-13.86-5.439-5.614-9.825-10.877-9.825-11.93 0-.877 5.088-7.193 11.404-13.86 6.14-6.842 10.877-12.807 10.175-13.508-.526-.527-4.21-1.053-7.895-1.053-7.368 0-8.421.877-21.929 16.491l-7.544 8.597v-47.193l-6.842-.176c-3.86 0-7.193.176-7.544.351zm96.316.176c-.702.701-1.228 7.017-1.228 14.21v12.983l-5.264-2.807c-18.07-9.299-38.596 4.386-38.596 25.964 0 15.615 7.017 25.264 21.403 29.65 5.965 1.754 8.071 1.579 15.614-1.579 6.843-2.983 8.597-3.158 8.597-1.228 0 1.754 2.105 2.456 7.017 2.456h7.018l-.351-40-.526-39.825-6.141-.526c-3.508-.351-6.842 0-7.543.702zm-8.071 35.789c3.86 2.281 8.597 10.702 8.597 15.79 0 6.14-4.737 13.333-10.526 15.789-10.176 4.211-21.053-3.86-21.053-15.789 0-12.807 12.456-21.404 22.982-15.79zm34.737-8.947c-9.649 9.649-5.263 21.052 10.877 29.123 5.965 3.157 8.597 5.438 8.597 7.894 0 5.263-4.912 6.316-11.579 2.632-5.965-3.158-5.965-3.158-10.351.877-5.088 4.737-3.684 7.719 5.614 11.754 16.842 7.018 32.632-3.508 29.649-19.649-1.052-5.087-2.982-7.368-9.298-11.403-4.561-2.983-9.649-5.614-11.403-6.316-1.755-.526-3.158-2.105-3.158-3.509 0-4.035 5.438-5.088 10.701-2.105 4.562 2.632 4.913 2.632 8.948-1.579l4.035-4.386-4.912-4.21c-7.544-6.492-20.702-5.965-27.72.877zm41.755-3.86c-.702.526-1.228 13.158-1.228 27.719 0 19.825.526 27.193 2.28 28.597 2.281 1.93 94.737 2.807 102.632.877 3.86-.877 3.86-1.228 3.86-29.649v-28.772h-53.158c-29.299 0-53.86.526-54.386 1.228zm18.245 6.316c-.175.702-.175 11.403-.175 24.035 0 14.035-.702 22.807-1.755 22.807-1.052 0-1.754-9.474-1.754-24.737 0-16.842.526-24.561 1.93-24.035 1.053.351 1.754 1.228 1.754 1.93zm14.737 1.228c0 1.403-1.403 2.807-2.982 3.158-2.281.351-3.158-.526-3.158-3.158 0-2.632.877-3.509 3.158-3.158 1.579.351 2.982 1.754 2.982 3.158zm21.93-1.93c0 .877-1.579 1.93-3.509 2.456-2.456.527-3.509 2.456-3.509 5.439 0 3.333.878 4.561 3.509 4.561 1.93 0 3.509.702 3.509 1.755 0 .877-1.579 1.754-3.509 1.754-3.333 0-3.509 1.228-3.509 15.789 0 12.808-.526 15.79-2.631 15.79-2.105 0-2.632-2.982-2.632-15.614 0-10.877-.702-15.965-2.105-16.667-1.754-.877-1.754-1.228 0-2.105 1.053-.526 2.105-2.632 2.105-4.386 0-5.965 3.334-10.351 7.895-10.351 2.456 0 4.386.702 4.386 1.579zm34.386 14.737l4.737 4.21-12.106 8.422c-6.666 4.736-12.456 8.771-12.807 9.122-.35.176.351 1.579 1.579 3.158 5.264 6.316 21.053-.175 21.053-8.947 0-2.632 1.053-4.211 2.632-4.211 5.438 0 2.105 12.106-5.088 17.895-9.298 7.544-25.965.526-28.421-11.93-3.158-16.666 15.965-28.421 28.421-17.719zm-57.193 15.263c0 14.386-.526 17.544-2.632 17.544-2.105 0-2.631-3.158-2.631-17.544 0-14.386.526-17.544 2.631-17.544 2.106 0 2.632 3.158 2.632 17.544zm36.842-10.526c-1.93 1.93-3.509 5.789-3.509 8.772v5.438l10.527-7.368c5.614-4.035 10-8.07 9.473-8.947-1.754-2.808-12.982-1.404-16.491 2.105zm-214.035 45.614c0 .877-4.035 1.754-8.947 1.754-8.597 0-8.772.176-8.246 4.562.526 4.561 2.105 6.14 9.298 8.772 3.334 1.228 3.334 1.403-.351 1.929-3.333.702-4.035 1.93-4.035 7.72 0 4.912.702 6.842 2.632 6.842 1.754 0 2.631-1.755 2.631-5.439v-5.263l9.299.526c6.491.351 9.122 1.228 9.298 3.158.175 1.404.351 3.684.526 4.737 0 1.228 1.404 2.281 2.807 2.281 1.93 0 2.632-1.93 2.632-6.316 0-4.737-.877-6.491-3.509-7.193-4.561-1.228-4.561-4.035.175-4.035 4.562 0 8.597-4.035 8.597-8.597 0-3.157-1.053-3.684-8.772-3.684-4.737 0-8.772-.877-8.772-1.754 0-1.053-1.228-1.755-2.631-1.755-1.404 0-2.632.702-2.632 1.755zm-6.14 6.842c.526.877.175 2.281-.878 2.807-2.631 1.579-7.543-.526-6.14-2.632 1.404-2.28 5.614-2.28 7.018-.175zm11.403 1.053c0 1.403-1.228 2.631-2.631 2.631-1.404 0-2.632-1.228-2.632-2.631 0-1.404 1.228-2.632 2.632-2.632 1.403 0 2.631 1.228 2.631 2.632zm12.281 0c0 1.403-1.579 2.631-3.509 2.631s-3.509-1.228-3.509-2.631c0-1.404 1.579-2.632 3.509-2.632s3.509 1.228 3.509 2.632zm-12.281 7.894c0 .877-1.579 1.755-3.684 1.755-1.93 0-2.983-.878-2.456-1.755.526-1.052 2.28-1.754 3.684-1.754 1.403 0 2.456.702 2.456 1.754zm35.088-15.965c0 .878-1.755 1.93-3.86 2.281-5.614.877-6.14 4.912-.702 4.912 2.807 0 4.562 1.053 4.562 2.632 0 1.579-1.579 2.632-4.386 2.632-3.509 0-4.386.877-4.386 4.385 0 2.808 1.053 4.386 2.631 4.386 1.404 0 2.632-.877 2.632-1.754 0-1.053 6.14-1.754 14.737-1.754 8.246 0 15.438.701 15.965 1.754 2.105 3.509 6.14 1.754 6.14-2.456 0-4.211-.351-4.386-10.702-3.684-8.947.526-10.526.175-9.649-1.93.527-1.579 1.053-3.158 1.053-3.509s1.228-.702 2.631-.702c1.404 0 2.632.702 2.632 1.755 0 .877 1.228 1.754 2.632 1.754 1.403 0 2.631-.877 2.631-1.754 0-1.053 1.579-1.755 3.509-1.755s3.509-1.228 3.509-2.631c0-1.404-1.579-2.632-3.509-2.632s-3.509-.877-3.509-1.754c0-2.983-4.737-1.93-6.14 1.228-1.053 2.982-1.228 2.982-3.333 0-2.457-3.333-6.316-4.035-6.316-1.228 0 .877-1.228 1.754-2.632 1.754-1.403 0-2.631-.877-2.631-1.754 0-1.053-.702-1.755-1.755-1.755-.877 0-1.754.702-1.754 1.579zm10.526 9.65c0 2.28-3.509 4.561-7.017 4.561-.702 0-1.053-1.579-.527-3.509 1.053-3.86 7.544-4.912 7.544-1.052zm48.597-10.001c-.702.527-1.228 8.422-1.228 17.544 0 16.316 0 16.316-4.386 16.316-4.211 0-4.386-.351-4.386-12.281 0-9.824-.527-12.28-2.632-12.28s-2.632 2.807-2.632 14.912v14.912l14.913.351c8.245.176 16.14.351 17.719.351 2.456.175 2.983-2.105 3.158-15.263.175-13.509-.175-15.263-2.807-15.263s-3.158 1.754-3.158 12.28c0 11.93-.175 12.281-4.386 12.281h-4.386v-17.544c0-13.508-.526-17.544-2.281-17.544-1.403 0-2.982.527-3.508 1.228zm79.473 4.036c0 4.21-.701 5.263-3.684 5.263-2.807 0-3.509-.877-2.807-3.334.526-2.28-.175-3.684-2.105-4.035s-3.86 2.106-6.667 8.948c-3.684 8.947-3.859 12.456-.702 12.456.702 0 2.281-1.93 3.334-4.386 2.631-5.79 12.631-6.491 12.631-.877 0 2.807-1.228 3.508-6.14 3.508-4.211 0-6.14.878-6.14 2.632s1.929 2.632 6.14 2.632c5.439 0 6.14.526 6.14 4.386 0 3.859-.701 4.386-6.491 4.561-10.526.351-11.579.526-12.281 2.807-.701 1.754 4.211 2.281 20.351 2.281 17.018 0 21.228-.527 21.228-2.456 0-1.755-2.105-2.281-8.772-1.755-8.772.526-8.772.526-8.772-4.561 0-4.913.527-5.263 6.141-5.263 4.21 0 6.14-.878 6.14-2.632s-1.93-2.632-6.14-2.632c-4.912 0-6.141-.701-6.141-3.508 0-2.983 1.229-3.509 7.018-3.509 5.088 0 7.018-.702 7.018-2.632 0-1.929-1.93-2.631-7.018-2.631-6.667 0-7.018-.351-7.018-5.263 0-3.509-.877-5.264-2.631-5.264-1.754 0-2.632 1.755-2.632 5.264zm61.404-4.211c-1.404.175-5.614.877-9.123 1.579-7.544 1.228-9.123 4.386-2.281 4.386 6.667 0 5.614 4.912-1.228 5.614-8.07.702-8.596 4.912-.702 4.912 4.386 0 6.316.702 6.316 2.632 0 1.579-1.579 2.631-4.386 2.631-4.21 0-4.386.527-4.386 10.527 0 8.245.527 10.526 2.632 10.526 1.403 0 2.632-.877 2.632-1.93 0-1.403 2.807-1.754 8.771-1.052l8.772 1.052v-9.649c0-8.947-.351-9.649-3.859-9.123-2.632.351-4.211-.526-4.562-2.631-.526-2.456.702-2.983 5.614-2.983 4.562 0 6.316-.701 6.316-2.807 0-2.105-1.403-2.631-5.614-2.105-4.912.351-5.965-.175-6.316-3.509-.526-3.158.176-3.859 4.035-3.859 2.807 0 4.386-.878 4.035-2.106-.877-2.28-2.807-2.982-6.666-2.105zm1.754 31.404c0 3.859-.702 4.386-6.14 4.386-5.439 0-6.14-.527-6.14-4.386 0-3.86.701-4.386 6.14-4.386 5.438 0 6.14.526 6.14 4.386zm-28.947-28.772c-.702 1.052.175 2.807 1.93 4.21 4.21 2.983 7.368.351 4.21-3.509-2.631-3.157-4.561-3.333-6.14-.701zm-3.684 10.526c-1.228 2.105 2.105 5.088 5.965 5.088 3.157 0 2.631-4.737-.702-5.965-3.684-1.404-3.86-1.404-5.263.877zm-73.86 6.14c-.526 1.404-.175 3.509 1.053 4.737 2.456 2.456 8.245-2.631 6.491-5.614-1.755-2.807-6.316-2.281-7.544.877zm-84.737 2.456c-1.403.878-5.263 1.755-8.245 1.755-5.615 0-5.79.175-5.79 7.895 0 9.649 4.737 11.403 5.614 2.105.877-8.772 5.614-7.369 6.316 1.754.702 10.351 5.263 10.351 5.965 0 .351-5.087 1.403-7.368 3.158-7.368 1.93 0 2.456 1.754 2.28 6.666-.35 5.615 0 6.667 2.632 6.141 2.281-.351 3.158-2.632 3.509-8.948l.526-8.245h-6.14c-3.334 0-6.316-.702-6.667-1.755-.351-1.052-1.403-1.052-3.158 0zm161.053 8.772c-2.807 6.667-2.807 7.193.351 8.772 2.631 1.404 3.333.702 4.912-5.614 3.158-11.93-.526-14.21-5.263-3.158zm-214.913-.175c-1.403 4.035-3.333 5.439-8.245 6.316-6.14 1.228-7.895 3.158-4.737 5.263 2.105 1.228 15.965-4.211 15.965-6.316 0-.877.877-1.579 1.754-1.579 1.053 0 1.755 1.579 1.755 3.509 0 3.158 1.228 3.509 9.473 3.509 7.018 0 9.65-.702 10.527-2.807 1.579-4.035 1.403-4.211-2.456-4.211-1.93 0-3.509.702-3.509 1.755 0 .877-1.93 1.754-4.386 1.754-3.333 0-4.386-.877-4.386-3.684 0-4.035-3.86-8.597-7.369-8.597-1.403 0-3.333 2.281-4.386 5.088z"/></svg>