<svg xmlns="http://www.w3.org/2000/svg" width="300" height="300" viewBox="0, 0, 300, 300"><g><path d="M145.866 20.9c-9.805 5.268-13.024 8.927-33.951 37.61-15.073 20.634-16.683 22.39-20.927 22.39-6.292 0-28.097-8.927-43.902-18-14.634-8.488-21.805-9.659-29.122-4.976-10.39 6.878-13.171 29.122-5.854 47.415 4.537 11.268 15.366 31.024 25.903 47.268 8.048 12.439 7.902 10.098.878 35.854-3.951 14.927-4.683 20.195-4.83 35.122-.146 16.39.147 18.146 4.098 26.634 4.976 10.975 14.488 20.341 21.805 21.658 7.902 1.464 14.195-1.317 26.049-11.707 12.146-10.537 34.536-24.585 37.902-23.707 1.171.292 15.073 9.366 30.732 20.049 34.683 23.56 41.414 26.926 53.707 27.073 9.659 0 14.195-2.195 20.049-9.952 5.415-7.317 4.976-21.073-1.024-39.951-9.22-28.39-13.025-44.195-11.415-46.975.732-1.464 13.024-10.098 27.512-19.025 30-18.878 36.439-24 43.61-34.683 6.732-10.097 6.585-14.048-.732-22.829-9.073-10.829-12-11.561-53.122-12.585-24.439-.439-36-1.317-37.171-2.488-.878-1.025-3.365-14.634-5.414-30.293-4.244-31.756-6.878-39.366-15.366-44.927-7.463-4.975-19.024-4.536-29.415 1.025zm25.171 14.049c1.61 2.78 3.659 12.585 5.561 26.341 4.683 35.415 5.561 39.366 10.39 43.902 4.098 3.952 4.83 4.098 25.756 5.122 12 .586 28.83 1.171 37.464 1.171 17.707.146 23.853 2.195 25.317 8.342 1.317 4.829-1.61 10.097-8.927 16.097-6.146 5.122-51.512 34.244-53.268 34.244-2.049 0-8.781 8.049-10.39 12.439-.879 2.342-1.171 6.878-.732 10.244 1.171 7.317 8.488 33.805 13.171 47.707 6.585 19.317 3.951 30-7.61 29.708-3.073-.147-8.488-1.61-11.854-3.366-6.293-3.22-54.585-34.83-55.902-36.586-2.781-3.512-10.391-6.585-16.83-6.585-6.292-.146-9.073.878-19.609 7.171-6.732 3.951-16.391 10.975-21.659 15.366-5.268 4.39-11.561 9.219-13.902 10.829-4.244 2.634-4.391 2.634-8.195-.146-5.708-4.098-11.708-15.952-12.878-25.318-1.171-9.512.878-23.561 6.292-44.195 5.854-22.39 5.561-27.512-2.634-39.951-9.366-14.341-22.39-38.049-26.049-47.268-5.414-13.464-3.366-31.025 3.366-31.025 1.756 0 7.756 2.635 13.317 6 10.537 6.147 32.927 15.659 44.634 18.732 11.122 3.073 16.976-.293 28.83-16.536 27.219-37.171 30-40.391 36.878-44.049 9.219-4.976 15.951-4.39 19.463 1.61zM112.208 88.802c-14.781 5.415-22.537 31.025-16.976 56.195 1.464 6.586 9.951 14.488 16.829 15.805 4.244.732 10.098-1.171 13.903-4.829 3.073-2.927 4.39-3.22 6-1.903 1.756 3.22 2.78 6 4.244 8.927 4.829 9.513 14.927 12.147 26.195 7.025 2.927-1.317 11.854-13.025 12-15.512.146-.732 1.317-4.683 2.78-9.074 4.391-12.878 1.318-31.317-7.024-41.707-3.658-4.537-15.073-5.707-21.805-2.195-7.171 3.658-7.61 3.512-9.951-1.756-4.537-11.268-14.488-15.366-26.195-10.976zm13.902 16.244c0 3.366-4.975 4.829-6.585 2.049-1.903-2.927.146-5.854 3.512-5.415 1.903.293 3.073 1.464 3.073 3.366zm23.415 10.537c-5.268 8.048-3.512 27.366 2.634 27.512 7.317 1.756 15.659 5.122 15.659 7.463 0 .878-1.903 4.391-4.391 7.61-7.317 10.244-16.39 9.805-21.805-.878-3.073-6-5.414-7.61-11.268-7.61-13.171 2.927-19.171 3.805-21.805 1.756-6-4.244-9.658-19.609-6.878-29.561l1.317-5.122 2.049 4.391c4.537 10.097 14.195 13.756 21.805 8.487 4.829-3.365 6.878-6.146 7.902-10.975.732-3.805 3.565-7.286 9.506-10.082 5.941-2.795 8.348 2.179 5.275 7.009zm18.878 4.39c-3.534 10.618-7.902 1.024-7.463-.146 1.17-3.074 8.502-2.974 7.463.146zM84.403 136.363c0 5.854 7.61 32.049 11.707 40.537 9.366 19.024 26.342 28.975 43.464 25.463 14.927-3.219 32.195-12.585 44.78-24.585 8.195-8.049 6.586-8.342-4.244-.878-25.609 17.414-44.78 21.805-60.292 13.902-12.586-6.439-25.025-25.61-30.586-47.122-2.488-9.658-4.829-13.17-4.829-7.317z"/></g></svg>