<svg xmlns="http://www.w3.org/2000/svg" width="300" height="300" viewBox="0, 0, 300, 300"><g><path d="M15.842 56.789c-4.159 2.026-4.586 6.079-4.586 39.46 0 36.581.32 38.287 7.146 40.313 2.666.747 12.051 1.067 27.088.853 27.302-.426 27.622-.533 27.622-10.024 0-7.679-1.919-8.959-13.331-8.959-13.864 0-13.118 1.813-13.544-30.395-.427-33.701.533-31.888-16.637-32.208-6.719-.213-12.372.214-13.758.96zM169.843 57.642c-1.494 1.173-2.88 3.52-3.093 5.119-.32 2.667-.747 2.88-6.612 3.52-4.373.533-6.826 1.386-7.786 2.666-1.493 2.026-1.919 10.878-.533 12.798 1.493 2.24 5.439 3.626 10.238 3.626h4.906v46.605000000000004l2.773 2.56c2.666 2.56 2.986 2.56 24.102 2.56 21.117 0 21.33 0 23.357-2.56 1.279-1.6 2.026-4.159 2.026-7.145 0-6.399-2.666-8.959-9.172-8.959-8.958 0-8.958-.107-8.958-17.49v-15.358l6.505-.426c7.892-.534 10.558-2.986 10.558-9.599 0-6.292-3.626-9.385-11.091-9.385-5.546 0-5.866-.106-6.506-3.199-1.279-5.973-4.799-7.466-17.063-7.466-9.385 0-11.305.32-13.651 2.133zM99.668 61.268c-12.265 4.693-19.837 11.412-24.849 21.97-2.986 6.186-3.306 7.999-3.306 16.531 0 8.318.426 10.451 2.986 16.103 3.839 8.212 12.051 16.424 20.476 20.37 5.653 2.667 7.572 2.986 17.064 2.986s11.305-.319 16.531-2.879c7.678-3.839 12.904-8.212 16.957-14.398 5.225-7.892 3.519-10.984-2.56-4.585-8.532 8.958-31.035 7.785-40.526-2.133-3.946-4.16-3.2-6.293 3.199-8.532 41.913-15.358 43.193-15.891 43.193-21.33 0-3.519-5.439-11.838-10.558-15.997-7.466-6.293-14.611-8.852-25.169-9.279-6.293-.213-10.879.214-13.438 1.173zm26.555 14.505c6.506 4.052 3.946 6.399-13.864 12.371-12.158 4.159-14.931 4.799-16.317 3.626-3.946-3.306.533-12.051 8.212-15.891 6.185-2.986 17.063-3.093 21.969-.106zM221.78 67.561c-.746 1.919 14.185 63.669 16.211 66.548 1.493 2.347 2.24 2.453 14.717 2.453 10.985 0 13.545-.32 15.465-1.919 2.559-2.027 2.986-3.093 13.97-38.82 9.599-31.142 9.919-29.649-7.038-29.649-6.079 0-12.158.533-13.651 1.173-3.2 1.493-4.586 5.013-9.172 22.716-1.706 7.039-3.413 13.012-3.733 13.332-1.28 1.173-2.453-2.133-4.692-12.798-3.413-16.424-5.119-22.503-6.719-23.463-2.346-1.493-14.718-1.173-15.358.427zM35.359 176.129c-2.773 2.133-2.773 2.346-2.773 16.53 0 13.865.107 14.505 2.666 16.958 2.453 2.559 3.306 2.666 14.398 2.666h11.731v31.994h14.824l.32-15.784.32-15.677 13.331-.533 13.331-.533.32-4.48.32-4.479-13.651-.32-13.651-.32-.32-7.785-.32-7.786-7.145.32-7.146.32-.32 7.786-.32 7.785-6.612-.32-6.612-.32v-18.13l28.048-.32 27.942-.213v-9.599h-32.954c-31.675 0-32.954.107-35.727 2.24zM109.586 178.369l.32 4.585h19.197000000000003v-8.530999999999999l-9.919-.32-9.918-.32.32 4.586zM135.395 175.276c-.213.746-.32 10.878-.213 22.609l.32 21.33 6.719.32c3.626.213 6.612.64 6.612.96 0 1.066-6.399 11.838-7.786 12.904-.639.533-2.452 1.28-3.946 1.493-2.346.32-2.666.853-2.666 4.586v4.266h7.039c8.212 0 10.025-1.173 14.611-9.278 1.6-2.773 3.199-5.119 3.733-5.119.426 0 .746 2.132.746 4.692 0 2.986.747 5.546 2.026 7.146 1.92 2.346 2.987 2.559 13.865 2.879l11.838.427v-9.812h-14.824l-.64-3.519c-.427-1.92-.534-5.44-.32-7.679l.32-4.266 6.932-.533 6.932-.534.32-17.063c.32-19.197-.533-24.103-4.586-25.916-4.053-1.92-46.285-1.813-47.032.107zm37.967 22.609c0 13.651-.107 14.398-2.133 14.398-1.92 0-2.133-.853-2.346-12.585l-.32-12.478-6.292-.32c-4.373-.213-6.613.107-7.146 1.067-.533.746-.96 5.866-.96 11.305 0 7.785-.426 10.771-2.133 14.077-1.173 2.347-2.453 4.266-2.666 4.266-.32 0-.533-7.679-.533-17.064v-17.063h24.529v14.397zM192.345 174.956c-.106.533-.213 16.424 0 35.194l.32 34.127h6.186c4.479 0 6.399-.426 6.825-1.493.32-.853 2.347-1.706 4.693-1.919 3.306-.214 4.373-.96 5.652-3.52 2.347-4.586 2.987-4.692 5.12-.533 1.706 3.519 2.239 3.733 7.465 4.053l5.652.32 1.813-4.266c.96-2.453 2.133-4.373 2.56-4.373.32 0 1.28 1.6 1.92 3.626 1.279 3.946 2.772 4.906 7.465 4.906 1.706 0 3.199.746 3.626 1.6.427 1.173 2.24 1.599 7.039 1.599h6.399v-64.202l-3.093-3.093-3.093-3.093h-33.061c-21.01 0-33.274.427-33.488 1.067zm58.87 10.131c0 1.067-1.066 1.6-2.986 1.6-3.839 0-7.252 2.453-8.105 5.866-.96 3.626-2.133 3.306-3.733-1.067-1.066-2.986-2.026-3.839-4.906-4.372-5.865-1.067-8.958.213-10.771 4.372-.853 2.027-1.813 3.733-2.133 3.733-.32 0-1.067-1.493-1.706-3.306-1.174-3.306-4.373-5.226-8.959-5.226-1.6 0-2.559-.64-2.559-1.6 0-1.386 3.306-1.599 22.929-1.599 19.623 0 22.929.213 22.929 1.599zm-40.953 20.05l2.88 8.852-2.88 8.745c-1.599 4.8-3.412 8.746-3.946 8.746-.533 0-.959-7.679-.959-17.598 0-10.238.426-17.597.959-17.597.64 0 2.347 3.946 3.946 8.852zm40.953 8.959c0 10.131-.426 17.384-.959 16.85-.427-.64-2.133-4.692-3.52-9.065l-2.666-7.999 2.56-7.465c3.306-9.918 3.412-10.132 4.052-10.132.32 0 .533 7.999.533 17.811zm-19.836-5.333c1.6 4.586 1.6 5.439-.107 10.665-.96 3.093-2.133 5.653-2.559 5.653-.534 0-1.707-2.56-2.667-5.653-1.706-5.439-1.706-6.079.107-11.198.96-3.093 2.133-5.332 2.666-5.012.427.32 1.6 2.772 2.56 5.545zM110.226 187.327c-.533.427-.853 2.666-.853 4.906v4.052h5.332c2.986 0 5.333.32 5.333.747 0 2.56-4.48 19.09-5.546 20.263-.64.747-2.026 1.387-3.2 1.387-1.706 0-2.026.64-1.706 4.479.213 3.839.747 4.692 2.773 4.906 2.24.32 2.346.853 2.346 8.318v7.999l7.786-.32 7.678-.32.32-11.731c.214-8.959.64-11.945 1.813-12.585 1.28-.64 1.6-3.519 1.6-13.971 0-17.49-.427-18.13-13.544-18.557-5.12-.213-9.705 0-10.132.427zM38.878 224.761c-1.6 5.225-3.306 8.532-4.692 9.278-3.093 1.706-3.307 2.346-2.88 6.612l.427 3.84 6.825-.427c4.586-.32 7.359-1.066 8.959-2.453 1.813-1.706 8.532-20.263 8.532-23.889 0-.747-2.56-1.173-7.253-1.173h-7.252l-2.666 8.212zM82.071 219.428c.426 1.707 2.026 7.252 3.626 12.585 3.413 11.091 4.799 12.264 14.397 12.264h6.079v-4.692c0-4.053-.32-4.799-2.346-5.119-2.346-.32-2.559-.747-5.652-11.838l-1.707-6.079h-15.036999999999999l.64 2.879z"/></g></svg>