<svg version="1" xmlns="http://www.w3.org/2000/svg" width="752pt" height="582pt" viewBox="0 0 752.000000 582.000000"><path d="M453 32.7c-5.6 1-17.7 5.5-26.3 10-12.4 6.4-23.1 14.6-35.9 27.5l-10.7 10.8-4.4-5.8c-15.6-20.2-40.5-35.7-66.2-41.3-5.2-1.1-26.9-1.1-32 .1-19.8 4.3-33.5 12.1-48.2 27.3-7.3 7.6-17.3 21.6-17.3 24.2 0 .4-.7 2.1-1.5 3.8-4.1 9-4.7 12.4-5.2 27.5-.5 13.4-.3 16.3 1.7 23.9 1.2 4.8 2.6 9.4 3 10.2l5.7 11.5c2.6 5.4 5.6 11.5 6.6 13.5 1.1 2 27.5 29.3 58.8 60.6 31.3 31.4 56.9 57.4 56.9 57.8 0 .4-24.9 25.6-55.2 56-30.4 30.5-56.5 57.1-57.9 59.3-7.7 11.5-12.5 21.4-17.1 34.9-2.9 8.5-3.8 35.2-1.4 42.5.9 2.7 1.6 5.4 1.6 6.1 0 2.2 7.8 17.7 11.8 23.6 4.2 6 14.8 16.8 21.7 22 10.1 7.6 21.8 12.7 36.8 16.2 6.1 1.4 24.3 1.4 30.4 0 14.2-3.3 25.8-7.8 36.3-14.1 8.5-5.1 25.4-20.3 32.5-29.2l3-3.8 10.8 10.9c5.9 6 12.5 12.3 14.8 13.9 2.2 1.6 5.9 4.3 8.2 6 6.7 4.9 18.6 11 28.3 14.4 7.1 2.5 11.1 3.2 19.9 3.7 15.4.7 25.3-1.5 41.3-9.3 19-9.2 27.7-16.4 36.7-30.2 5.7-8.9 12-21.7 13-26.2.4-1.9 1.1-4 1.5-4.5.5-.6 1.3-5.1 1.8-10 1.1-10.1.1-24.1-2.3-31.1-.8-2.5-1.5-4.9-1.5-5.5 0-2-9.3-21.7-12.9-27.4-1.4-2.2-28-29.5-59.1-60.8-31.1-31.2-56.7-57-56.9-57.2-.3-.3 25.3-26.3 56.7-57.8 38.8-38.8 58.3-59 60.5-62.7 4.4-7.4 11.7-22.9 11.7-24.9 0-.6.7-3 1.5-5.4 3.1-9.2 3.6-37.4.6-41.1-.5-.6-1.2-2.7-1.6-4.6-.8-3.9-9.8-22.8-12.4-26-.9-1.1-3.6-4.6-6.1-7.9-7.6-9.9-22.2-19.8-38.5-26.1-3.3-1.2-6.9-2.6-8-3.1-5.8-2.4-26.7-3.7-35.5-2.2zm-150.2 59.9c3.2.9 6.8 2.4 8.2 3.2 3.4 2.1 27 25.4 27 26.7-.1.5-7.3 8.4-16 17.5l-16 16.5 20.8 20.8 20.8 20.8 16.7-16.8 16.7-16.8 16.7 16.8 16.8 16.7 20.9-21 20.9-20.9-15.4-15.8c-8.5-8.7-15.7-16-16.1-16.1-.5-.2-.8-.9-.8-1.6 0-1.4 23.3-24.4 27.1-26.8 3.5-2.2 15.5-5.1 18.2-4.5 9 2.2 11.2 3 14.5 5.1 12.8 8.2 17.8 26.7 10.7 40.1-1.6 2.8-21.6 23.5-57.5 59.2-30.3 30.1-55.5 54.9-55.9 55.1-.7.2-40.6-39.7-92.7-92.8-20.6-20.9-22.2-22.9-23.9-28.2-1.5-4.9-1.6-6.4-.5-11 2.7-11.1 8.2-18.9 16.5-23 11-5.5 13.3-5.8 22.3-3.2zm134.4 300.4c62.3 61.7 60.3 59.2 60.2 73 0 12.8-6.4 23.4-17.1 28.3-6.6 3-19.8 3-26 .1-4-2-30.3-26-30.3-27.8 0-.4 7-8 15.5-16.9 8.6-8.8 15.5-16.6 15.3-17.3-.3-1.3-39.6-41.4-40.5-41.4-.3 0-7.8 7.5-16.7 16.6l-16.2 16.6-16.4-16.6c-9.1-9.1-16.7-16.6-17-16.6-.3 0-9.9 9.3-21.4 20.5l-20.8 20.6 12.4 12.7c15.6 15.9 19.8 20.5 19.8 21.6 0 1.8-24.8 25.5-28.9 27.6-5.1 2.6-16 3.7-21.6 2.1-10.3-2.7-18.9-11.6-22.5-23.1-1.8-5.4-1.9-7.2-1-11.5.6-2.7 1.6-6 2.3-7.2.7-1.2 9.5-10.6 19.7-21s35.3-36.1 55.9-57.1 37.9-38.2 38.6-38.2c.6 0 26.1 24.7 56.7 55zm-323.2-187.9c-11.3.6-18.1 2.1-26.7 6-2.4 1-4.6 1.9-4.9 1.9-.3 0-3.7 2.1-7.5 4.6-12.8 8.6-26.8 25.3-33.3 39.9-1.5 3.3-3.1 6.8-3.6 7.7-2 3.6-3.5 15.8-3.4 27.3.2 26.9 4.1 38.9 19 58.1 7.4 9.6 9.3 11.3 22.2 19.7 10.6 6.9 17.8 10.2 26 11.7 3 .5 5.8 1.2 6.3 1.5.4.3 7.3.6 15.1.6 17.2 0 25.5-1.8 39.1-8.4 7.3-3.6 21.4-13.1 24.7-16.7.3-.3 5.5-5.4 11.6-11.3l11.1-10.8 16.4 16.1c9 8.8 16.6 16 16.9 16 1.1 0 41-40.1 41-41.2 0-.6-7.2-8.2-16-16.7-8.8-8.6-16-16-16-16.4 0-.4 7.2-7.9 16-16.8 8.8-8.8 16-16.3 16-16.7 0-.4-9.4-10.1-20.8-21.5l-20.9-20.9-9.9 10.4c-5.5 5.7-12.7 13.1-15.9 16.6-3.2 3.4-6.2 6.1-6.6 6-.4-.2-6.6-5.9-13.7-12.8s-15.4-14.3-18.6-16.5c-3.1-2.2-6.2-4.5-6.9-5-.7-.6-4.4-2.6-8.2-4.7-13.9-7.2-24.8-9-48.5-7.7zm19 59.5c2.5.9 5.9 2.4 7.5 3.4 3.2 2 26.5 25.7 26.5 27 0 .4-1.5 1.9-3.4 3.3-1.8 1.5-7.6 6.9-12.7 12.1-12.2 12.2-15 13.6-27.4 13.6-7.5 0-10.4-.4-13.3-1.9-6.2-3.2-11.5-8.6-14.6-14.6-2.6-5.2-2.8-6.4-2.4-13.8.7-11.8 5.7-20.8 14.3-25.5 9.1-5 17.9-6.3 25.5-3.6zm493-59.6c-21.6 1.6-44.9 15.9-68.2 41.8-2.6 2.8-5.1 5.2-5.5 5.2-.5 0-3.1-2.4-5.8-5.3-2.8-2.9-9.9-10.4-15.9-16.6l-10.8-11.4-20.9 20.9c-11.5 11.5-20.8 21.2-20.7 21.6.2.4 7.4 7.9 16.1 16.7 8.6 8.7 15.7 16.3 15.7 16.8s-7.2 7.9-16 16.6c-8.8 8.6-16 16.1-16 16.5 0 1.1 40.8 41.7 41.4 41.2.2-.3 7.7-7.6 16.6-16.3l16.1-15.8 13.2 12.7c15.1 14.6 23.7 21 35.7 26.7 12.7 6 20.7 7.7 37.1 7.7 23.3 0 34.1-3.6 55.9-18.7 4.2-2.9 14.8-14.3 19.1-20.5 5.9-8.7 10.7-19.3 12-26.2.6-3.4 1.5-8.3 2-10.9 1.6-8.5 1.1-24.9-1.1-34.4-4-17-14.4-34.2-29.1-47.7-10-9.3-18-13.8-31.6-18-8-2.5-25.9-3.6-39.3-2.6zm20.3 59.7c9.3 3 15.3 7.9 19.5 15.8 2.3 4.4 2.6 6.2 2.7 14.6 0 8.9-.2 9.9-3 14.4-1.6 2.6-5.6 6.8-8.9 9.4l-5.8 4.6-11.3.3c-10.8.4-11.4.3-15.6-2.4-2.4-1.5-8.2-6.5-12.9-11.2-4.7-4.6-10.2-9.8-12.2-11.5-2.1-1.7-3.8-3.5-3.8-3.9 0-.4 6-6.7 13.3-14.1 11.8-12.1 13.8-13.6 19.2-15.5 7.5-2.5 12.1-2.7 18.8-.5z"/></svg>