<?xml version="1.0" encoding="UTF-8"?>
<!DOCTYPE svg PUBLIC "-//W3C//DTD SVG 1.1//EN" "http://www.w3.org/Graphics/SVG/1.1/DTD/svg11.dtd">
<svg version="1.1" xmlns="http://www.w3.org/2000/svg" xmlns:xlink="http://www.w3.org/1999/xlink" x="0px" y="0px" width="300" height="300" viewBox="0, 0, 300, 300">
  <g id="Layer 1">
    <g>
      <path d="M23.287,129.802 C22.952,130.445 22.13,132.926 20.497,138.286 C20.099,139.622 19.431,141.782 19.032,143.106 C18.467,144.956 14.418,158.067 11.05,168.941 C10.857,169.571 11.436,169.622 19.675,169.622 L28.505,169.622 L30.343,163.735 C31.346,160.509 32.502,156.782 32.914,155.445 C34.713,149.545 35.279,147.694 37.991,138.967 C39.572,133.877 40.793,129.584 40.703,129.417 C40.304,128.723 23.672,129.095 23.287,129.802 z" fill="#000000"/>
      <path d="M59.096,142.052 C44.327,144.005 34.675,152.373 36.114,161.987 C37.374,170.342 55.15,173.388 73.787,168.452 C75.137,168.092 77.605,163.954 77.605,162.051 C77.605,161.344 77.759,161.319 72.643,163.015 C61.384,166.769 53.081,166.601 52.618,162.604 C52.477,161.383 51.564,161.691 62.476,159.237 C64.43,158.799 67.592,158.093 69.507,157.656 C71.409,157.231 74.584,156.524 76.538,156.087 C80.304,155.265 83.145,154.609 84.237,154.327 C85.972,153.877 85.368,148.607 83.312,146.267 C79.841,142.309 70.021,140.599 59.096,142.052 z M67.335,146.242 C69.726,147.244 71.242,150.65 69.803,151.782 C66.667,154.224 53.312,159.545 53.325,158.337 C53.389,149.854 60.754,143.491 67.335,146.242 z" fill="#000000"/>
      <path d="M107.296,141.91 C92.065,143.298 92.335,143.208 90.831,147.694 C85.253,164.416 83.762,169.378 84.237,169.673 C85.098,170.226 100.509,170.085 101.178,169.519 C101.486,169.262 102.283,167.398 102.939,165.38 C106.91,153.17 108.941,147.052 109.07,146.91 C110.227,145.676 117.322,146.447 118.478,147.926 C119.571,149.314 119.648,148.992 113.993,166.113 C112.617,170.252 112.142,170.008 121.653,170.008 C131.602,169.995 130.252,170.972 133.324,161.524 C134.738,157.18 136.229,152.656 136.627,151.473 C139.339,143.62 128.247,140.008 107.296,141.91 z" fill="#000000"/>
      <path d="M162.63,141.884 C149.146,143.414 140.535,148.877 138.298,157.283 C133.53,175.226 179.93,175.637 188.748,157.733 C194.223,146.627 182.642,139.597 162.63,141.884 z M170.175,147.463 C174.108,150.972 169.943,163.787 164.339,165.393 C156.666,167.591 153.902,161.075 158.607,151.846 C161.023,147.09 167.154,144.777 170.175,147.463 z" fill="#000000"/>
      <path d="M260.379,142.052 C246.035,143.967 237.475,150.381 236.935,159.635 C235.997,175.213 278.425,174.416 287.153,158.684 C293.798,146.704 281.716,139.198 260.379,142.052 z M268.271,147.039 C271.652,148.44 271.575,153.864 268.091,160.74 C264.39,168.054 254.981,167.63 255.264,160.162 C255.636,150.792 261.96,144.404 268.271,147.039 z" fill="#000000"/>
      <path d="M192.514,143.684 C192.514,144.956 193.002,149.082 194.814,163.247 C195.239,166.64 195.598,169.455 195.598,169.519 C195.598,169.571 201.678,169.622 209.094,169.622 L222.59,169.622 L231.562,157.566 C241.523,144.198 242.256,143.196 242.256,142.861 C242.256,142.733 238.477,142.643 233.876,142.643 L225.482,142.656 L218.747,151.692 C215.046,156.666 211.781,160.817 211.498,160.933 C210.765,161.216 210.675,160.689 209.274,148.992 C208.94,146.229 208.58,143.671 208.478,143.298 C208.285,142.694 207.565,142.63 200.393,142.63 L192.514,142.63 L192.514,143.684 z" fill="#000000"/>
    </g>
  </g>
  <defs/>
</svg>
