<svg xmlns="http://www.w3.org/2000/svg" width="300" height="300" viewBox="0, 0, 300, 300"><path d="M139.018 28.342c-24.254 3.059-51.12 13.209-69.03 26.119-20.597 14.776-35.448 35.224-41.269 56.567-1.791 6.567-1.94 8.508-1.94 20.672 0 12.388.149 14.03 2.015 20.821 4.85 17.612 12.462 30.447 26.194 44.104 13.806 13.732 26.791 22.164 45.224 29.403 16.343 6.418 29.029 9.329 45.447 10.523l11.493.895 5.298 4.478c13.956 11.791 34.03 22.015 53.806 27.388 12.015 3.209 15.523 3.582 17.463 1.642.896-.896 1.567-2.09 1.567-2.836 0-.672-2.388-4.926-5.373-9.478-5.448-8.358-8.06-14.179-10-22.761-1.94-8.284-1.642-8.731 8.508-13.657 44.029-21.343 68.656-59.254 64.403-99.104-2.687-25.597-16.941-48.657-41.493-67.314-16.119-12.239-39.254-22.015-61.194-25.895-9.552-1.717-41.791-2.687-51.119-1.567zm93.283 54.403c2.388 1.716 3.284 5 2.612 9.477-.746 5.224-2.91 7.015-8.507 7.015-7.836 0-9.776-1.94-9.776-9.627 0-5.149 1.343-7.313 5.223-8.283 3.508-.896 8.209-.224 10.448 1.418zm-52.985 15.522c5.075 2.537 7.164 4.925 9.552 10.97.97 2.537 1.269 7.164 1.418 28.06.299 29.925-.074 35.448-2.761 37.463-4.254 3.134-12.537 2.313-14.478-1.493-.746-1.493-1.119-8.209-1.492-27.313-.522-23.806-.672-25.448-2.09-27.239-.821-1.045-2.164-2.314-3.059-2.836-1.941-1.119-16.045-1.269-17.687-.224-.97.597-1.194 4.851-1.492 28.657l-.374 27.91-1.791 1.94c-3.358 3.583-13.059 3.284-15.149-.522-.672-1.194-1.045-9.03-1.418-26.866-.448-23.507-.522-25.373-1.94-27.164-2.836-3.88-4.702-4.701-12.015-5.224-6.567-.447-7.015-.373-8.731 1.269l-1.866 1.716v54.254l-2.164 2.388c-2.09 2.314-2.463 2.463-7.164 2.463-4.627 0-5.15-.149-7.09-2.314l-2.015-2.388-.597-30.149c-.522-30-.298-37.836 1.269-41.94 1.642-4.179 1.642-4.179 46.865-3.955l41.418.149 4.851 2.388zm52.761 21.418l2.09 1.791.224 25.448.224 25.447-1.791 1.791c-2.239 2.239-6.866 3.06-10.896 1.941-5.224-1.418-5.298-1.791-5.298-28.657 0-15.224.298-24.104.82-25.298 2.015-4.403 10.672-5.896 14.627-2.463zm-214.627 24.403c-4.403 4.776-9.626 18.507-10.447 27.686-2.463 26.269 10.298 49.03 36.119 64.777 7.911 4.776 8.209 5.074 8.433 7.761.298 3.582-1.194 7.388-5.896 15.074-5.298 8.657-4.104 10.299 5.896 8.135 10.075-2.239 20.821-6.717 31.119-12.911l4.478-2.761 13.507-.522c18.284-.747 35.672-4.329 40.374-8.359 2.014-1.791 2.014-1.865.671-3.358-.746-.821-2.686-1.642-4.477-1.865-14.851-1.866-16.269-2.09-29.926-5.448-11.866-2.911-28.134-10.299-39.925-18.209-12.239-8.209-24.478-21.269-32.09-34.254-4.104-7.089-8.507-18.283-10.448-26.866-.895-3.88-1.94-7.835-2.313-8.806-.821-2.089-3.134-2.164-5.075-.074z"/></svg>