<svg xmlns="http://www.w3.org/2000/svg" width="300" height="300" viewBox="0, 0, 300, 300"><g><path d="M119.829 41.876c-52.774 15.944-76.371 33.163-85.459 62.659-2.232 7.016-5.899 13.234-12.755 21.684-19.611 23.916-13.074 41.454 22.003 59.311l9.088 4.624h-9.886c-8.29 0-10.204-.479-11.639-3.189-4.145-7.813-11.32-.797-8.928 8.769 1.913 7.334 6.537 10.364 15.944 10.364 21.524 0 36.511 12.117 28.858 23.437-4.943 7.334-4.943 8.928-.478 15.306 2.072 2.87 3.348 6.059 3.188 7.334-.637 2.87 2.551 4.943 7.972 4.943 8.769 0 16.423-6.218 12.437-10.204-3.189-3.189-1.754-8.769 2.551-9.885 15.784-3.986 54.846 11.957 54.846 22.48 0 4.943 4.146 7.175 13.553 7.175 9.885 0 10.523-2.71 3.348-13.552-6.697-10.204-6.697-10.364-2.392-10.364 8.291 0 15.466-9.407 12.596-16.741-.957-2.391-1.595-4.305-1.595-4.623 0-.16 2.233-.16 4.784.318 6.058.798 11.16-3.348 11.16-9.247 0-6.377-2.551-8.131-8.609-5.58-2.711 1.116-6.378 1.435-8.132.797-2.391-.797-1.275-1.594 5.102-3.029 28.221-6.856 39.7-24.713 39.063-60.746-.479-36.99 15.306-55.485 59.151-69.675 15.944-5.102 15.466-4.783 11.002-8.61-9.726-7.812-39.541-10.523-78.285-7.174-41.772 3.507-55.962 4.304-55.962 2.87 0-.638 3.985-6.219 8.928-12.118 15.306-18.495 2.711-20.727-41.454-7.334zm1.276 34.12c57.876 14.828 90.401 73.82 58.195 106.026-31.25 31.25-135.204 16.901-159.917-22.162-7.653-11.798-6.218-18.494 7.175-33.96 6.537-7.334 8.609-11.161 10.363-19.133 7.813-33.322 34.758-43.207 84.184-30.771zm-91.359 116.071c3.508 4.464 3.986 9.247.638 9.247-2.71 0-5.58-4.783-5.58-9.406 0-4.305 1.116-4.146 4.942.159zm122.13 25.988c4.624.957 5.102 1.435 4.305 5.581-.797 3.826-.319 4.623 3.508 6.058l4.623 1.595-4.623 1.754c-6.378 2.551-8.132 1.594-13.712-7.335-5.421-8.609-5.899-10.522-1.913-9.406 1.435.318 4.942 1.116 7.812 1.753zm10.523 44.005c-4.305 1.754-4.783 1.754-7.812-1.275-2.551-2.711-2.551-2.87 1.116-3.827 5.102-1.275 11.32 3.349 6.696 5.102zM43.458 113.942c2.711 2.87 6.856 9.088 9.088 13.712 4.464 8.769 7.813 10.044 8.61 3.348.478-4.624-8.61-16.103-15.785-19.77-6.855-3.667-7.334-2.87-1.913 2.71zM119.67 132.915c-12.755 1.914-24.713 6.059-25.829 8.929-2.073 5.421 2.391 5.58 18.016.478 12.436-3.986 19.611-5.261 33.801-5.899 11.958-.638 17.698-1.594 17.379-2.71-.797-2.233-30.134-2.711-43.367-.798z"/></g></svg>