<svg xmlns="http://www.w3.org/2000/svg" width="300" height="300" viewBox="0, 0, 300, 300"><g><path d="M74.66 118.756l.123-.122-.124-.002zM225.16 117.882v.174l.09-.088zM118.66 225.77h.122l-.122-.124zM118.45 74.684h.174l-.086-.088zM181.39 74.188h-.125l.124.12zM74.792 181.495v-.174l-.086.087zM181.005 225.745h-.173l.088.086zM150.013 20C78.207 20 20 78.2 20 150c0 71.804 58.207 130.003 130.013 130.003 71.793 0 129.985-58.2 129.985-130.002.002-71.8-58.19-130-129.985-130zm47.316 106.18V38.07c9.814 4.157 19.185 9.683 27.835 16.555 3.535 2.808 6.962 5.817 10.233 9.088 7.65 7.65 14.012 16.09 19.16 25.042 1.297 2.25 2.51 4.535 3.658 6.844l-60.878 60.873c.594-3.672.765-7.395.485-11.097-.106-1.398-.27-2.79-.496-4.18V126.18zm-60.79-96.726c4.484-.515 9.035-.81 13.66-.81 10.82 0 21.286 1.472 31.257 4.158 2.508.675 4.982 1.43 7.425 2.253v86.092c-2.18-3.016-4.687-5.773-7.504-8.19-1.063-.912-2.165-1.78-3.305-2.603l-10.62-10.62-5.026-5.03-57.278-57.272c9.88-4 20.41-6.718 31.39-7.978zM55.192 74.68C58 71.144 61.01 67.718 64.28 64.447c7.652-7.65 16.092-14.012 25.043-19.16 2.25-1.297 4.535-2.512 6.844-3.66l60.876 60.878c-3.673-.594-7.395-.768-11.098-.486-1.397.106-2.792.27-4.178.494H38.637c4.16-9.813 9.684-19.182 16.556-27.834zm-25.265 88.805c-.515-4.486-.81-9.037-.81-13.662 0-10.82 1.47-21.285 4.158-31.257.674-2.508 1.43-4.982 2.252-7.424h86.094c-3.016 2.178-5.772 4.688-8.192 7.503-.912 1.064-1.78 2.165-2.603 3.305l-10.62 10.622-5.03 5.025-57.274 57.278c-3.998-9.883-6.718-20.414-7.975-31.39zm72.698 9.714v88.109c-9.816-4.162-19.186-9.686-27.837-16.557-3.536-2.81-6.962-5.818-10.233-9.09-7.65-7.65-14.012-16.092-19.16-25.04-1.297-2.25-2.512-4.536-3.658-6.845l60.874-60.876c-.593 3.672-.767 7.395-.485 11.097.105 1.397.27 2.79.493 4.178v15.02zM150 110.762c21.67 0 39.238 17.567 39.238 39.238 0 21.673-17.567 39.24-39.238 39.24-21.67 0-39.24-17.567-39.24-39.24 0-21.67 17.57-39.237 39.24-39.237zM163.51 270.5c-4.485.516-9.036.81-13.66.81-10.82 0-21.287-1.47-31.258-4.157-2.508-.675-4.982-1.43-7.424-2.253v-86.094c2.178 3.016 4.686 5.772 7.503 8.192 1.065.912 2.166 1.782 3.306 2.603l10.62 10.622 5.026 5.028 57.276 57.276c-9.88 3.997-20.412 6.718-31.388 7.975zm80.753-44.753c-2.808 3.535-5.818 6.962-9.09 10.233-7.65 7.65-16.09 14.012-25.04 19.16-2.25 1.297-4.535 2.512-6.845 3.658l-60.873-60.878c3.673.594 7.395.767 11.097.485 1.398-.106 2.79-.27 4.18-.494H260.82c-4.162 9.818-9.686 19.187-16.557 27.837zm20.24-36.886h-86.09c3.015-2.178 5.77-4.686 8.19-7.503.913-1.063 1.78-2.165 2.6-3.305l10.623-10.62 5.027-5.028 57.275-57.276c4 9.883 6.718 20.414 7.978 31.39.514 4.485.81 9.036.81 13.662 0 10.82-1.472 21.285-4.158 31.256-.677 2.506-1.433 4.98-2.255 7.425zM225.375 181.368v-.122l-.124.122z"/></g></svg>