<svg xmlns="http://www.w3.org/2000/svg" width="300" height="300" viewBox="0, 0, 300, 300"><g><path d="M149.038 8.033c-5.451 5.451-4.81 10.261 2.565 16.995l6.414 5.772-6.734 7.376c-3.528 3.848-11.865 8.016-18.278 9.299-31.426 5.772-57.4 25.653-71.83 55.155-8.979 18.278-10.262 24.691-10.262 43.932.321 15.071 2.566 28.539 7.055 39.762l6.413 16.996-7.375 2.886c-14.43 5.451-20.843 15.071-20.843 30.143 0 11.865 1.603 15.392 9.94 22.447 10.582 8.978 16.996 10.261 30.143 5.13 7.696-2.886 9.941-1.924 21.485 9.3 16.995 16.995 38.48 24.05 64.454 21.485 10.903-1.283 26.616-1.925 34.633-1.925 16.354.321 24.05-5.451 20.522-15.712-1.282-4.169.962-10.903 6.093-18.599 4.49-6.734 8.979-16.034 9.941-20.844 1.603-6.734 4.169-8.978 9.941-8.978 9.94 0 20.522-10.582 20.522-20.523 0-4.81-3.527-10.582-8.337-14.43-8.017-6.414-8.337-7.055-4.489-23.088 8.658-35.915-6.414-79.205-35.915-102.614-8.658-6.734-17.958-12.827-21.485-14.11-3.207-.962-7.375-5.451-9.299-9.62-3.528-7.375-2.886-8.658 4.489-11.865 5.451-2.565 7.696-5.772 7.055-10.261-1.604-10.261-10.903-9.941-16.034.321-6.413 13.788-13.789 11.544-13.789-3.848 0-10.262-1.282-13.148-6.413-13.789-3.527-.321-8.337.962-10.582 3.207zm13.468 50.345c5.451 1.924 4.81 2.886-3.848 6.413-13.147 5.451-12.827 8.979.321 11.544 13.788 2.886 36.556 16.354 40.725 24.05 3.206 6.093 2.244 6.414-11.544 6.414-12.827 0-16.355 1.603-27.257 12.185l-12.186 12.185-6.734-8.978c-7.696-10.262-14.75-14.11-32.708-16.996-9.299-1.282-11.544-2.886-9.941-7.054 1.604-4.49.321-4.81-8.016-3.207-12.827 2.565-12.827-.321.32-12.827 20.523-19.561 53.552-30.463 70.868-23.729zm-25.974 64.454c14.43 16.033 10.261 43.611-7.696 53.231-18.92 9.62-40.084 3.207-49.704-15.071-5.772-11.544-5.772-20.202.321-31.747 11.223-21.484 40.725-24.691 57.079-6.413zm76.64-.962c11.544 10.903 14.43 25.974 7.375 39.122-5.131 10.261-21.805 22.767-29.822 22.767-9.299 0-26.936-10.903-31.105-19.561-18.919-36.235 24.371-70.226 53.552-42.328zm-53.231 52.59c6.734 6.413 14.43 10.261 23.409 11.544l13.468 1.924-6.734 7.055c-15.072 16.033-50.666 17.957-72.792 4.489-12.186-7.696-13.468-12.506-3.207-12.506 8.658 0 27.578-10.903 29.822-17.637 2.566-6.734 4.49-6.093 16.034 5.131zM106.71 148.486c-4.81 8.978 1.282 19.24 11.223 19.24s16.034-10.262 11.224-19.24c-1.924-3.848-6.735-6.414-11.224-6.414s-9.299 2.566-11.223 6.414zM171.485 145.92c-8.017 8.017-2.245 21.806 9.299 21.806 9.3 0 14.11-8.658 9.941-17.637-3.848-8.658-12.827-10.582-19.24-4.169zM140.059 185.362c-2.886 7.055 2.886 11.865 11.865 10.583 5.131-.642 7.696-3.207 7.696-7.376 0-8.337-16.675-11.223-19.561-3.207z"/></g></svg>