<svg xmlns="http://www.w3.org/2000/svg" width="300" height="300" viewBox="0, 0, 300, 300"><path d="M134.576 26.089c-35.5 7.9-60.3 37.1-63.2 74.1-.3 4.6-1 8.3-1.5 8.3-1.5 0-4.8 6.4-4.8 9.3 0 1.5-.7 3.9-1.6 5.2-1.2 1.9-1.5 4.2-1.2 9.7l.4 7.3-6.3 8.3c-15.4 20.2-21.4 41.7-16.8 59.7 2.1 7.9 3.4 9.2 7.5 7.5 3.2-1.3 11.5-9.9 13.3-13.8 1.1-2.4 2.7-3 2.7-1 0 2.4 6.1 14.2 10.6 20.6 2.5 3.5 4.4 6.5 4.2 6.6-.1.2-2.1 1.3-4.3 2.4-8.2 4.2-11.8 10.3-11.9 20.7-.1 3.6.5 5.9 1.9 7.9 1.1 1.6 2.5 3.7 3.1 4.7 3.5 6 9.9 9 23.3 11 10 1.4 16.9.8 36.6-3.1 19.9-3.9 28.2-3.9 48.9.2 29.3 5.8 47.1 3.9 56.5-6 7-7.6 9.1-13.8 6.7-19.7-.8-1.8-1.2-3.6-.9-3.8.2-.3-.3-1.9-1.1-3.6-1.9-3.5-6.7-7.4-11.9-9.6l-3.6-1.5 5.3-7.8c2.9-4.3 6.5-11 8.1-15l2.8-7.2 3.7 5.7c3.9 6 9.3 11.6 12.2 12.6 4.2 1.5 7.7-7.2 8.5-20.8.4-7.2.1-10.8-1.6-17.5-2.4-9.9-10.2-26-16.4-34.3-4.3-5.7-4.4-5.7-3.4-11 1.2-6.8-.4-14.9-4.3-21.1-2.4-3.7-3.2-6.5-4-13.4-3.7-32.6-26.6-60-58.5-70.2-9.3-3-28.8-3.7-39-1.4zm43.1 36c4.4 2.9 7.6 9.8 8.2 17.3 1.6 23.2-16.4 34.1-26 15.7-3.3-6.1-3.2-19.3.1-25.9 3.8-7.9 11.7-11 17.7-7.1zm-42 1c4.5 3 7.7 9.8 8.2 17.8.5 9-1 14.7-5.4 19.5-4 4.5-8.1 5.7-12.7 3.7-7.2-3.1-11-10.4-11-21.6 0-8.4 2.4-14.7 7.1-18.7 3.3-2.8 10.1-3.1 13.8-.7zm43.2 48.3c13 3.3 27.2 10.6 27.2 14.1 0 1.9-8.8 7.5-14.2 9-3.2 1-3.1.7 1-4.8 3.6-4.8 2.1-4.9-4-.3-22.2 16.7-49 17.1-70.6.9-3-2.2-5.6-3.8-5.8-3.5-.3.2.5 2.1 1.7 4.1 1.2 2 1.9 3.9 1.6 4.2-.7.7-9-2.9-12.7-5.6-1.7-1.2-3-3-3-4.1 0-4.2 18.2-12.4 33.9-15.4 10.8-2.1 33.9-1.3 44.9 1.4zm-64.6 35c8.3 2.9 23 5.1 33.5 5.1 6.3 0 9.3.4 9.3 1.2 0 1.5-19.7.4-30.6-1.7-8.6-1.6-17.4-4.3-18.8-5.6-1.6-1.4.5-1.1 6.6 1zm57.3 5.1c-1.6.4-5.5.7-8.5.7h-5.5l6-.7c3.3-.4 7.1-.7 8.5-.7 2.2-.1 2.1 0-.5.7zm-80.8 14.8c.8.5.6 4-.8 13.7-2.4 16.1-1.9 22.3 2.3 27 3.8 4.4 10.4 6.8 18.7 6.9 13.8.2 15.1-1.6 15.1-21v-12.7l8.3.9c30.2 3.2 59.3-2.9 80.6-17.1 3-2 5.8-3.2 6.2-2.8 3.7 3.7 5.1 28 2.4 38.8-8 30.9-35.5 52.7-68.5 54.2-23.2 1.1-42.2-6-58-21.7-12-12-18.9-26.2-20.5-42.6-.7-7.7.8-20.7 3.1-26.2l1.4-3.3 4.2 2.6c2.4 1.4 4.8 2.9 5.5 3.3zm-8.6 66.8c.8.9 3 2.7 4.9 3.9 1.9 1.3 5.3 4 7.6 6.1 2.2 2.2 7.3 6.5 11.2 9.7 5.2 4.2 7.2 6.5 7.2 8.1 0 3-2 3.6-13.8 3.6-16.5 0-29.2-4.6-32.4-11.6-1.1-2.3-.9-3.3 1.4-7.5 2.4-4.6 2.5-4.9.7-5.4-2.5-.8-1.4-2.7 3.1-6 4.1-2.8 8.2-3.2 10.1-.9zm144.7-.2c5.6 2.9 7.8 7.6 3.5 7.6-1.4 0-1.4.3.2 2 1 1.1 2 4.1 2.3 6.8.4 4.5.2 5-3.2 8-5.6 4.9-13 6.7-27.4 6.5-9.2 0-12.8-.4-13.8-1.5-2.1-2 .3-4.9 7.4-8.9 8.9-5.1 12.4-7.8 13.6-10.1.6-1.2 2.5-2.5 4.2-3 2-.5 4.1-2.2 5.9-4.8 3.1-4.5 3.5-4.6 7.3-2.6zm-62.1-156.6c-2.4 2.6-3.9 7.3-3.2 10 .8 3.3 2.7 2.3 4-2.4 1.3-4.9 5.1-6.1 6-2l1 5.2c1 4.5 3 2.1 3-3.6-.1-4.3-.5-5.6-2.4-7.1-2.9-2.4-6.3-2.4-8.4-.1zm-34.1-.9c-3.9 4.3-3.6 12.6.6 15.6 3.1 2.1 4.5 1.9 7.3-1 1.9-1.8 2.5-3.5 2.5-7 0-7.5-6.3-12.1-10.4-7.6zm6.9 6.2c0 2.8-2.9 3.8-3.9 1.3-.7-1.9 1.1-4.7 2.8-4.1.6.2 1.1 1.4 1.1 2.8z"/></svg>