<svg xmlns="http://www.w3.org/2000/svg" width="300" height="300" viewBox="0, 0, 300, 300"><path d="M190.285 31.248c-2.855 4.425-18.988 11.421-32.979 14.419-17.132 3.427-26.412 6.567-35.549 11.564-12.135 6.996-18.845 16.418-17.275 24.556.429 1.713 14.848 22.7 31.98 46.685 17.275 23.985 31.837 44.258 32.408 45.257.714 1.142-1.856 1.428-9.993.856-26.127-1.713-50.683 11.707-61.39 33.551-3.141 6.424-3.855 9.993-3.855 18.131 0 17.846 9.708 32.123 27.554 40.546 7.139 3.283 9.708 3.712 24.413 3.712 15.99 0 16.704-.143 27.412-5.283 28.981-13.705 40.688-40.831 28.696-65.387-2.427-5.139-17.561-31.123-33.551-57.82l-29.124-48.541 4.997-.286c19.131-1.427 32.551-6.995 41.688-17.274 7.852-8.995 10.422-17.846 9.422-32.694-.713-12.992-2.141-16.275-4.854-11.992z"/></svg>