<svg xmlns="http://www.w3.org/2000/svg" width="300" height="300" viewBox="0, 0, 300, 300"><path d="M148.075 17.702c-1.367.559-5.218 4.658-5.218 5.59 0 .31-6.025 13.106-13.416 28.385-7.391 15.28-13.727 28.634-14.099 29.689-.311.994-.87 2.174-1.118 2.547-.311.373-2.05 3.727-3.913 7.453-1.988 4.1-4.1 7.516-5.28 8.448-2.857 2.422-.932 2.174-58.137 8.571-25.838 2.919-28.695 3.354-30.248 4.783-1.118.993-1.553 4.596-.745 6.708.248.559 11.366 11.118 24.72 23.478 42.236 39.006 39.503 36.273 39.503 39.193 0 1.428-.869 6.583-1.863 11.552-1.056 4.969-3.416 17.392-5.342 27.64-1.925 10.249-4.161 21.988-4.969 26.087-4.285 21.863-4.348 22.485-2.111 24.845 2.111 2.236 4.534 1.987 10.931-1.242 5.963-3.044 6.522-3.354 18.261-10.249 4.286-2.484 9.876-5.714 12.422-7.143 2.547-1.428 7.267-4.223 10.435-6.149 3.168-1.925 5.901-3.478 6.087-3.478.124 0 2.05-1.118 4.224-2.485 2.174-1.366 4.161-2.484 4.41-2.484.248 0 2.484-1.242 4.969-2.795 5.9-3.665 10.993-5.528 13.913-4.969 1.242.248 4.223 1.429 6.584 2.733 6.211 3.292 45.341 25.838 57.515 33.106 10.373 6.211 13.416 7.391 16.957 6.459 2.36-.559 3.043-3.975 2.236-10.745-.373-3.044-.932-6.46-1.243-7.64-.497-1.988-2.546-12.981-7.515-40.559-2.298-13.106-2.298-13.354 2.857-15.279 7.143-2.671 10.497-5.031 9.193-6.336-.435-.435-4.41.062-12.671 1.553-15.342 2.795-18.51 3.23-34.721 4.72-18.447 1.74-35.466 2.112-58.199 1.305-17.764-.621-38.882-2.174-40.062-2.919-.931-.622-.497-2.547.932-3.789.745-.684 10.186-7.454 20.932-15.093 33.664-23.851 55.528-39.628 57.329-41.305 3.106-2.919 2.857-3.043-10.062-4.72-20.435-2.609-25.777-3.044-59.069-4.597-11.118-.496-21.18-1.118-22.36-1.304-12.174-2.05 49.876-7.64 76.087-6.832 17.205.497 37.454 1.925 49.379 3.478 11.118 1.491 11.801 1.615 11.801 2.857 0 .994-1.18 1.864-27.329 19.876-10.745 7.453-22.174 15.342-25.404 17.578-3.167 2.236-6.459 4.534-7.205 5.031-3.478 2.36-15.155 10.497-18.385 12.857-2.049 1.49-3.664 3.105-3.664 3.602 0 1.18 3.043 1.926 12.422 3.044 24.907 2.919 71.242 4.534 73.292 2.484.435-.435.373-1.801-.311-4.658-.496-2.174-.931-4.224-.931-4.534 0-.87 10.559-11.429 25.155-25.093 38.571-36.15 39.441-37.019 39.441-39.876 0-2.485-2.05-4.721-5.093-5.466-1.491-.373-10.373-1.367-19.752-2.298-9.379-.87-19.751-1.864-22.981-2.174-3.23-.373-10.062-1.056-15.217-1.615-19.69-1.988-25.715-2.733-27.143-3.416-2.733-1.242-5.28-6.336-24.1-48.696-13.416-30.31-14.596-32.733-16.459-34.41-1.553-1.428-3.975-1.987-5.652-1.304z"/></svg>