<?xml version="1.0" encoding="UTF-8"?>
<!DOCTYPE svg PUBLIC "-//W3C//DTD SVG 1.1//EN" "http://www.w3.org/Graphics/SVG/1.1/DTD/svg11.dtd">
<svg version="1.1" xmlns="http://www.w3.org/2000/svg" xmlns:xlink="http://www.w3.org/1999/xlink" x="0px" y="0px" width="300" height="300" viewBox="0, 0, 300, 300">
  <g id="Layer 1">
    <g>
      <path d="M128.423,28.88 C127.794,29.217 126.525,29.716 125.983,30.377 L125.322,31.917 L125.224,44.911 L125.126,57.893 L117.252,57.904 C106.688,57.926 105.387,58.609 103.445,61.993 L102.708,103.977 L102.708,145.029 L103.934,145.669 C133.272,162.816 135.029,163.662 135.441,163.51 C135.799,163.369 136.047,162.861 135.972,139.172 C135.898,115.483 137.957,111.949 137.957,111.949 C142.708,102.925 153.608,103.326 159.237,111.537 C161.677,115.094 161.603,113.9 161.603,140.212 C161.603,166.817 161.005,164.877 163.987,162.99 L194.442,144.931 L194.453,104.216 L194.464,63.5 L193.553,61.754 C192.891,60.496 192.219,59.748 191.058,59.032 L189.475,58.056 L172.046,57.85 L171.948,45.258 C171.84,31.18 171.829,30.8 169.475,29 L148.933,29.011 C130.517,28.924 129.497,28.306 128.423,28.88 z" fill="#000000"/>
      <path d="M195.061,151.048 C194.225,151.623 191.297,153.402 188.553,155.007 C168.814,166.732 167.827,167.328 166.894,167.881 C164.855,169.085 164.79,169.443 166.406,170.332 C167.067,170.701 169.594,172.154 172.013,173.554 C196.59,187.794 199.703,189.595 201.937,190.831 C212.338,196.612 214.724,205.191 207.935,212.447 C201.872,218.933 198.455,218.249 179.171,206.731 C152.057,190.517 153.575,191.406 153.304,191.677 C153.185,191.796 153.109,200.571 153.13,211.178 L153.163,230.462 L153.879,230.972 C154.269,231.254 154.898,231.622 155.267,231.807 C214.605,266.026 217.327,267.566 219.214,268.661 C226.611,272.945 229.301,272.229 233.661,264.789 L239.789,254.41 L241.611,255.44 C251.687,261.264 254.398,262.837 255.472,263.466 C261.524,267.023 263.466,267.468 266.21,266.318 C279.908,244.507 281.35,241.427 283.064,238.477 C288.292,229.421 288.01,228.108 279.875,223.455 C267.37,216.308 263.444,213.954 263.444,213.618 C263.444,213.249 264.225,211.861 268.574,204.508 C271.296,199.898 271.578,199.193 271.578,196.829 C271.578,193.358 270.309,191.71 265.581,189.031 C204.648,153.879 203.087,153.001 201.243,151.927 C197.392,149.682 197.11,149.649 195.061,151.048 z" fill="#000000"/>
      <path d="M95.701,153.597 C29.498,191.84 30.312,191.308 29.119,193.391 C28.555,194.388 28.37,195.224 28.37,196.829 C28.359,199.269 28.273,199.074 33.023,207.241 C37.286,214.573 37.763,213.38 28.414,218.662 C22.438,222.111 20.29,223.336 18.88,224.128 C12.242,227.826 11.906,229.855 16.603,237.946 C27.231,256.416 28.392,258.423 29.639,260.57 C32.698,265.895 33.424,266.568 36.331,266.73 L38.587,266.861 C58.457,255.331 60.192,254.388 60.463,254.811 C60.615,255.039 62.415,258.162 64.476,261.752 C68.511,268.813 69.487,270.006 71.938,270.809 C75.3,271.926 74.617,272.208 90.506,263.043 C140.343,234.269 143.272,232.566 144.519,231.828 L146.796,230.494 L146.959,211.547 C147.122,192.566 147.111,191.948 146.666,191.948 C118.716,208.054 115.267,210.061 112.719,211.568 C104.758,216.275 105.007,216.178 101.081,216.178 C87.231,216.21 83.728,199.345 96.059,192.002 C121.612,176.471 127.469,172.903 129.313,171.786 C133.651,169.139 133.705,169.291 127.111,165.625 C117.805,160.387 116.504,159.671 115.018,158.803 C99.15,149.53 101.58,150.181 95.701,153.597 z" fill="#000000"/>
    </g>
  </g>
  <defs/>
</svg>
