<svg xmlns="http://www.w3.org/2000/svg" width="300" height="300" viewBox="0, 0, 300, 300"><path d="M151.445 185.751c1.42.903 2.582 2.839 2.582 4.259 0 1.549 3.614 10.198 8.003 19.492 4.776 9.939 14.715 23.751 24.784 34.465 9.294 9.811 20.782 20.396 25.688 23.364 3.474 2.034 1.437.736 5.959 4.123l.187.338c-21.323 12.271-43.696 17.097-68.089 17.714-21.181.076-41.899-4.934-61.036-13.883-2.574-1.204-4.994-2.713-7.491-4.069 1.369-1.736 3.522-2.812 5.387-3.964 4.776-2.969 16.265-13.296 25.688-22.977 10.714-11.231 19.621-23.623 24.655-34.337 4.26-9.294 8.52-18.846 9.423-21.427.904-2.582 2.84-4.002 4.26-3.098zm22.005-175.896c11.519 2.355 14.143 2.467 25.515 6.624 47.629 17.411 83.128 60.645 90.756 110.802 4.253 27.961.018 56.968-12.26 82.476-6.158 12.793-12.216 20.931-21.109 31.708-3.981-.822-1.674-.192-6.804-2.274-4.776-2.323-16.264-11.23-25.3-19.75-9.165-8.519-20.911-21.944-26.204-29.689-5.292-7.874-11.617-19.621-14.199-25.946-2.582-6.454-6.196-18.071-8.132-25.816-2.324-9.682-3.486-32.53-3.486-71.255-.016-23.768-.085-9.506.447-42.783zm-47.608.765c.322 2.586.534 7.696.586 11.689.281 6.641.372 15.408.421 21.845.13 17.148.14 34.307-.018 51.454-.115 12.561.186 25.916-1.792 38.373-1.092 6.88-1.354 7.253-3.025 13.044-2.711 8.52-7.616 20.783-10.714 27.108-3.227 6.454-11.101 18.717-17.556 27.366-6.454 8.519-18.717 20.653-27.365 26.978-8.649 6.325-17.943 12.263-20.783 13.296l-.468.13c-8.634-9.648-15.854-20.477-21.471-32.146-24.747-51.41-15.715-113.437 22.69-155.697 15.24-16.769 45.378-33.847 55.805-37.581 10.427-3.734 21.772-7.137 23.69-5.859z"/></svg>