<?xml version="1.0" encoding="UTF-8"?>
<!DOCTYPE svg PUBLIC "-//W3C//DTD SVG 1.1//EN" "http://www.w3.org/Graphics/SVG/1.1/DTD/svg11.dtd">
<svg version="1.1" xmlns="http://www.w3.org/2000/svg" xmlns:xlink="http://www.w3.org/1999/xlink" x="0px" y="0px" width="300" height="300" viewBox="0, 0, 300, 300">
  <g id="Layer 1">
    <path d="M151.445,185.751 C152.865,186.654 154.027,188.59 154.027,190.01 C154.027,191.559 157.641,200.208 162.03,209.502 C166.806,219.441 176.745,233.253 186.814,243.967 C196.108,253.778 207.596,264.363 212.502,267.331 C215.976,269.365 213.939,268.067 218.461,271.454 L218.648,271.792 C197.325,284.063 174.952,288.889 150.559,289.506 C129.378,289.582 108.66,284.572 89.523,275.623 C86.949,274.419 84.529,272.91 82.032,271.554 C83.401,269.818 85.554,268.742 87.419,267.59 C92.195,264.621 103.684,254.294 113.107,244.613 C123.821,233.382 132.728,220.99 137.762,210.276 C142.022,200.982 146.282,191.43 147.185,188.849 C148.089,186.267 150.025,184.847 151.445,185.751 z M173.45,9.855 C184.969,12.21 187.593,12.322 198.965,16.479 C246.594,33.89 282.093,77.124 289.721,127.281 C293.974,155.242 289.739,184.249 277.461,209.757 C271.303,222.55 265.245,230.688 256.352,241.465 C252.371,240.643 254.678,241.273 249.548,239.191 C244.772,236.868 233.284,227.961 224.248,219.441 C215.083,210.922 203.337,197.497 198.044,189.752 C192.752,181.878 186.427,170.131 183.845,163.806 C181.263,157.352 177.649,145.735 175.713,137.99 C173.389,128.308 172.227,105.46 172.227,66.735 z M125.842,10.62 C126.709,28.95 126.8,37.717 126.849,44.154 C126.979,61.302 126.989,78.461 126.831,95.608 C126.716,108.169 127.017,121.524 125.039,133.981 C123.947,140.861 123.685,141.234 122.014,147.025 C119.303,155.545 114.398,167.808 111.3,174.133 C108.073,180.587 100.199,192.85 93.744,201.499 C87.29,210.018 75.027,222.152 66.379,228.477 C57.73,234.802 48.436,240.74 45.596,241.773 L45.128,241.903 C36.494,232.255 29.274,221.426 23.657,209.757 C-1.09,158.347 7.942,96.32 46.347,54.06 C61.587,37.291 91.725,20.213 102.152,16.479 C112.579,12.745 123.924,9.342 125.842,10.62 z" fill="#000000"/>
  </g>
  <defs/>
</svg>
