<svg xmlns="http://www.w3.org/2000/svg" width="300" height="300" viewBox="0, 0, 300, 300"><path d="M174.592 15.614c-35.109 4.659-64.005 24.645-71.893 49.741l-1.063 3.351-.45 40.382c-.694 69.85-.694 70.136.123 74.387 4.782 25.626 24.728 45.327 54.36 53.869 2.697.776 5.354 1.717 5.885 2.084l1.022.654-.163 9.074c-.082 6.948-.246 9.278-.695 9.768-.695.899-4.251.899-10.995.082-37.561-4.659-64.291-20.232-76.43-44.55-2.534-4.987-5.273-12.957-5.804-16.554-.45-3.065-.613-106.512-.204-107.615 1.471-3.679 13.119 4.863 19.209 14.1 2.943 4.456 3.066 3.965 3.066-12.138 0-14.633.327-13.366-4.537-17.657-11.281-9.932-23.174-16.88-35.477-20.6-4.251-1.308-5.354-1.43-6.09-.694-1.022 1.021-.163 144.645.899 151.144 6.949 41.526 43.897 69.687 102.63 78.311 14.796 2.166 36.662 3.147 38.092 1.716.654-.695.736-2.411.859-22.398.122-15.163.327-21.825.654-22.275.245-.368 3.188-1.349 6.703-2.248 28.242-7.357 50.558-24.972 57.507-45.368 2.697-7.929 2.942-10.831 3.269-40.667.123-10.136.409-35.068.654-55.463.246-20.355.368-37.521.205-38.093-.368-1.431-1.39-1.635-7.398-1.594-22.97.204-50.967 11.648-67.602 27.711-8.134 7.848-12.63 14.714-15.859 24.237l-1.471 4.373-.327 10.218c-.164 5.6-.409 28.039-.572 49.864-.123 21.785-.368 40.218-.491 40.954-.449 2.779-1.921 2.697-9.605-.531-15.572-6.581-25.872-19.496-28.733-36.131-1.062-5.968-.694-109.578.368-111.581 1.145-2.166 10.218-10.912 14.346-13.855 4.619-3.229 12.344-7.03 17.126-8.42 6.58-1.88 6.376-2.125 6.376 8.502 0 12.588.49 30.817.858 31.43.45.695 1.431-.245 4.659-4.373 4.619-5.886 9.973-10.382 15.082-12.63 1.635-.735 2.412-1.348 2.698-2.125.286-.695.408-9.319.327-24.564-.123-22.725-.164-23.501-.9-24.074-1.021-.735-3.147-.694-10.218.246zm58.08 66.621c.858 1.717.735 89.305-.123 94.455-3.27 19.005-20.068 34.945-41.567 39.36-3.964.817-4.986.49-5.313-1.676-.613-3.638-.327-88.57.327-92.125 3.351-19.21 18.964-34.537 41.28-40.464 3.597-.94 4.742-.858 5.396.45z"/></svg>