<?xml version="1.0" encoding="UTF-8"?>
<!DOCTYPE svg PUBLIC "-//W3C//DTD SVG 1.1//EN" "http://www.w3.org/Graphics/SVG/1.1/DTD/svg11.dtd">
<svg version="1.1" xmlns="http://www.w3.org/2000/svg" xmlns:xlink="http://www.w3.org/1999/xlink" x="0px" y="0px" width="300" height="300" viewBox="0, 0, 300, 300">
  <g id="Layer 1">
    <g>
      <path d="M81.466,79.974 C36.882,124.531 14.429,147.114 14.679,147.163 C14.88,147.203 16.333,146.832 17.903,146.341 C30.211,142.478 47.228,138.722 64.123,136.133 C71.393,135.02 77.849,134.108 79.883,133.902 C80.684,133.826 82.848,133.567 84.69,133.335 C88.879,132.803 98.187,131.904 104.362,131.434 C108.891,131.086 110.625,130.974 119.339,130.455 C135.287,129.507 170.062,129.507 185.295,130.455 C187.383,130.585 190.544,130.777 192.327,130.885 C198.694,131.256 211.682,132.44 216.582,133.093 C217.566,133.227 219.98,133.54 221.947,133.791 C233.764,135.302 242.876,136.898 256.038,139.755 C264.05,141.494 272.085,143.676 279.47,146.121 C282.09,146.989 284.281,147.646 284.344,147.588 C284.406,147.525 280.432,143.466 275.509,138.566 C270.591,133.665 244.07,107.224 216.573,79.804 C150.39,13.808 149.424,12.852 148.995,12.856 C148.789,12.856 118.4,43.062 81.466,79.974 z" fill="#000000"/>
      <path d="M248.997,149.144 C239.491,149.247 211.481,150.552 206.97,151.107 C206.478,151.169 204.417,151.321 202.387,151.446 C193.664,151.996 178.445,153.436 169.079,154.598 C131.438,159.284 116.46,165.548 117.287,176.265 C117.631,180.731 119.947,183.391 127.937,188.484 C135.184,193.107 137.272,196.473 137.076,203.202 C136.825,211.853 123.636,219.901 96.202,228.132 C94.052,228.776 92.143,229.442 91.964,229.607 C91.682,229.871 93.949,232.232 108.399,246.735 C117.618,255.99 130.436,268.867 136.883,275.349 C143.33,281.837 148.772,287.144 148.973,287.144 C149.514,287.144 285.323,150.932 285.323,150.391 C285.323,149.841 263.755,148.876 255.479,149.054 C254.496,149.077 251.581,149.117 248.997,149.144 z" fill="#000000"/>
    </g>
  </g>
  <defs/>
</svg>
