<svg xmlns="http://www.w3.org/2000/svg" width="300" height="300" viewBox="0, 0, 300, 300"><g><path d="M108.326 51.794c-5.814 16.224-14.196 32.887-22.139 44.041-3.414 4.766-5.915 7.74-10.106 12.033l-4.023 4.09 11.729 6.692 11.695 6.659 2.535-2.467c3.076-3.042 10.106-10.85 13.554-15.075l2.535-3.11 6.827-2.873c3.752-1.589 7.234-3.042 7.741-3.245l.912-.338-1.25 2.299c-6.76 12.168-15.819 25.654-22.477 33.394-1.488 1.724-2.671 3.245-2.637 3.38 0 .169 3.177 3.042 7.064 6.388l7.031 6.085-7.402.101-7.403.067v16.901h47.659v40.32299999999999l-3.11-.236c-6.76-.507-11.83-2.265-14.196-4.868-2.772-3.075-3.515-8.551-2.501-18.117.304-2.771.54-5.61.54-6.32v-1.318h-16.494c-13.317 0-16.63.101-17.137.439-.912.676-1.487 4.732-1.724 12.067-.27 7.098.136 11.424 1.454 16.697 3.278 13.013 11.12 20.821 23.761 23.66 2.975.642 4.158.71 16.055.676 9.803 0 14.061-.135 18.016-.574 22.105-2.502 39.986-8.451 54.114-18.05 1.96-1.318 3.684-2.332 3.786-2.197.135.135 1.216 4.022 2.467 8.687 1.251 4.63 2.299 8.484 2.366 8.551.068.068 6.186-2.4 13.588-5.475 8.72-3.617 13.452-5.746 13.385-6.017-.102-.541-17.914-44.278-18.117-44.447-.135-.135-21.768 6.456-22.004 6.726-.068.068.777 3.448 1.893 7.538 1.081 4.089 1.994 7.537 1.994 7.706 0 .406-5.341 3.752-8.754 5.476-2.535 1.25-9.6 4.225-10.073 4.225-.067 0-.101-7.909-.101-17.576v-17.576h46.644v-16.901h-46.644v-20.956h46.982v-16.9h-83.18199999999999l1.859-2.298c4.901-6.084 10.579-15.143 9.937-15.819-.101-.101-2.974-.912-6.388-1.825-3.414-.946-6.524-1.825-6.895-1.96-1.082-.473 17.069-6.321 28.392-9.16 20.787-5.171 36.977-5.983 48.165-2.366 4.394 1.453 7.368 3.279 10.647 6.557 2.501 2.468 3.346 3.583 4.462 5.915 1.723 3.515 2.636 6.76 3.143 11.087.27 2.298.338 19.469.27 56.852l-.101 53.573-.946 3.008c-1.724 5.476-3.617 8.653-7.132 11.932-5.172 4.867-12.236 7.199-21.7 7.199-3.752 0-4.901-.169-14.196-2.197-5.543-1.183-10.208-2.062-10.309-1.927-.27.271-4.698 18.117-4.698 18.827 0 .575 1.115.913 7.436 2.197 10.14 2.062 14.939 2.501 27.04 2.535 12.067 0 14.94-.27 22.781-2.265 22.139-5.577 35.152-20.347 38.025-43.196 1.183-9.329 2.265-24.607 2.772-39.208.845-23.965-.642-51.377-3.786-70.305-1.149-6.827-2.839-11.154-6.354-16.122-13.452-19.064-43.264-27.007-84.027-22.41-15.21 1.724-35.423 5.78-51.647 10.343-1.656.473-3.076.777-3.177.676-.068-.068.845-1.961 2.028-4.158 3.481-6.286 6.118-11.931 5.78-12.235-.304-.271-33.158-9.498-33.767-9.498-.169 0-1.318 2.704-2.467 5.983zm41.845 87.643v10.478h-32.516l10.241-10.444 10.275-10.478h6.017l5.983-.034v10.478zM55.902 49.901c-9.16 1.791-16.697 8.416-18.793 16.528-.879 3.346-.744 7.673.304 11.019 4.834 15.109 25.147 20.956 38.904 11.12 5.814-4.123 9.092-10.275 9.092-17.069 0-5.678-1.96-10.309-6.219-14.568-3.616-3.65-7.639-5.813-12.675-6.895-2.569-.541-8.213-.608-10.613-.135zM33.053 113.783c-4.09 6.321-7.47 11.661-7.538 11.898-.033.236 6.254 4.36 14.028 9.16 18.657 11.593 17.508 10.782 20.381 13.689 7.977 8.01 8.045 17.103.304 28.426-6.388 9.329-22.578 26.837-39.546 42.791-3.718 3.481-6.692 6.456-6.659 6.625.136.338 36.369 22.916 36.809 22.916.169 0 .608-.642.946-1.453 1.352-3.076 10.411-22.41 17.036-36.268 3.819-7.977 7.571-16.123 8.348-18.083 3.515-8.788 7.707-23.086 8.856-30.217.236-1.488.405-5.138.372-8.112 0-4.394-.136-5.915-.744-8.112-.879-3.347-2.636-7.065-4.563-9.769-1.927-2.704-14.061-14.568-19.604-19.198-4.327-3.617-19.739-15.346-20.551-15.65-.27-.101-3.278 4.259-7.875 11.357z"/></g></svg>