<svg xmlns="http://www.w3.org/2000/svg" width="300" height="300" viewBox="0, 0, 300, 300"><path d="M210.382 37.426c-5.68.816-12.279 3.537-17.041 7.041-8.333 6.122-13.707 15.17-15.272 25.612-.646 4.184-.646 6.394-.034 10.51 2.109 13.946 11.259 25.408 24.252 30.408 5.748 2.245 14.081 3.266 16.598 2.041 2.381-1.122 2.619-4.762.443-6.292-.749-.545-1.837-.749-5.136-.987-8.062-.612-13.776-3.095-19.422-8.469-4.116-3.98-6.769-8.436-8.436-14.184-1.122-3.877-1.122-11.701 0-15.578 1.565-5.442 3.742-9.286 7.517-13.265 2.824-2.96 4.966-4.524 8.504-6.293 7.483-3.775 16.666-4.286 24.524-1.36 9.285 3.469 16.428 11.36 18.945 20.986.68 2.619.851 4.15.885 7.381.034 7.075-1.429 11.837-5.579 18.163-1.02 1.565-1.666 2.891-1.666 3.504 0 1.598.85 2.857 2.381 3.469 1.326.51 1.496.51 2.823-.068 1.734-.782 3.911-3.81 6.224-8.742 2.313-4.898 3.232-8.877 3.436-14.796.136-4.149.034-5.476-.579-8.503-3.265-15.85-15.408-27.687-31.224-30.442-3.095-.544-8.844-.612-12.143-.136zm-122.619 19.558c-3.469.306-10.51 1.598-13.571 2.483-11.157 3.265-20.375 8.605-28.708 16.666-17.347 16.803-24.184 41.327-18.095 65 1.462 5.715 4.388 12.823 6.088 14.864 2.721 3.232 8.47 2.517 10.408-1.258 1.021-1.973.885-4.15-.374-6.803-3.877-8.163-5.408-14.898-5.408-23.809 0-9.456 1.701-16.463 6.021-24.932 10.204-19.966 31.904-31.565 54.455-29.116 8.708.918 17.177 4.048 24.728 9.082 4.66 3.095 11.497 9.932 14.524 14.523 8.095 12.177 11.02 26.191 8.401 40.409-4.013 21.904-21.632 39.387-43.843 43.435-5.578 1.02-13.912 1.02-19.592 0-3.367-.578-4.422-.646-5.544-.34-2.653.714-4.796 3.435-4.796 6.122 0 2.653 2.143 5.408 4.694 6.089 6.156 1.632 17.143 2.211 24.251 1.224 20.068-2.721 37.313-13.775 48.368-30.952 7.381-11.531 11.326-27.347 10.102-40.647-1.973-21.7-13.197-40.238-31.191-51.632-7.823-4.966-17.006-8.368-26.224-9.762-3.368-.51-11.939-.884-14.694-.646zm124.456 5c-3.64 1.02-6.463 3.469-8.232 7.006-.986 2.041-1.088 2.517-1.088 5.477 0 2.993.102 3.435 1.122 5.51.613 1.224 1.735 2.857 2.483 3.639 1.633 1.633 4.864 3.3 6.973 3.64 1.395.204 1.565.34 2.075 1.632 2.347 5.885 8.095 15.511 12.585 20.987 8.912 10.884 20.442 19.626 34.014 25.748 7.449 3.367 9.013 3.776 10.816 2.789 2.245-1.224 2.483-4.864.374-6.224-.408-.272-2.279-1.123-4.183-1.871-20.681-8.367-36.293-22.551-45-40.986l-1.633-3.47 1.939-1.871c8.367-8.027 3.435-21.7-8.062-22.312-1.53-.068-3.265.034-4.183.306zm-122.245 38.537c-9.388 1.973-15.987 8.061-18.368 16.973-.748 2.721-.714 7.891.035 10.544.306 1.123.646 2.381.714 2.789.136.578-.51 1.565-2.857 4.252-15.477 17.789-26.089 37.585-32.415 60.442-2.075 7.483-3.98 17.789-4.932 26.735-1.123 10.17-.987 31.564.204 35.986.442 1.667 2.415 3.844 3.945 4.354 2.892.952 6.531-.476 7.824-3.027.544-1.089.578-1.871.442-5.851-.374-10.238-.136-26.564.476-31.802 3.129-26.973 12.007-49.66 27.585-70.409 3.435-4.557 7.891-9.693 8.435-9.693.238 0 .885.306 1.463.646 1.769 1.088 5.68 2.347 8.435 2.721 6.531.918 13.81-1.633 18.742-6.599 4.796-4.762 7.313-12.211 6.326-18.605-1.768-11.599-11.19-19.762-22.653-19.626-1.496.034-3.027.102-3.401.17z"/></svg>