<svg xmlns="http://www.w3.org/2000/svg" width="300" height="300" viewBox="0, 0, 300, 300"><path d="M57.788 31.005c-2.908.969-6.236 4.677-7.837 8.764-2.655 6.615-2.823 9.101-2.823 41.04.042 25.323.084 28.946.716 31.011 1.475 5.014 3.371 7.331 7.542 9.269 4.214 1.896 7.458 2.107 35.183 2.107 27.514.042 27.724.042 32.781 2.318 2.865 1.264 5.519 3.834 6.657 6.404 1.011 2.149 1.432 17.823.505 18.539-.294.211-5.098 2.739-10.66 5.604-16.601 8.512-19.761 10.155-20.351 10.703-.842.842-.21 2.738 1.011 3.033.97.253 3.835-.084 9.439-1.137l4.634-.801c1.265-.253 3.287-.59 4.425-.8 6.741-1.265 11.081-1.981 11.502-1.812.38.126.506 12.514.506 51.446 0 41.419.126 51.447.548 52.037.8 1.095 2.865.758 3.539-.59.253-.59 1.054-2.865 1.728-5.056 1.306-4.256 3.708-12.009 5.351-17.275.548-1.728 1.559-5.141 2.317-7.585.759-2.444 1.643-4.677 2.023-4.972.379-.295 1.854-.505 3.455-.505 3.623 0 3.918.337 5.646 6.109 1.264 4.424 4.845 16.096 5.435 17.908.337 1.053 1.349 4.129 2.191 6.825.843 2.697 1.812 5.141 2.107 5.394.337.252 1.095.421 1.77.337l1.179-.127.211-51.91c.126-28.525.337-51.994.464-52.121.21-.21 6.741.843 14.073 2.234 1.179.252 3.328.632 4.845.884 1.517.253 3.497.632 4.424.843.927.211 2.908.506 4.424.674 3.118.295 3.961-.168 3.708-2.149-.126-1.222 1.475-.295-21.826-12.303-5.224-2.697-9.648-5.098-9.817-5.351-.169-.253-.253-3.708-.169-7.626.127-5.562.338-7.669.927-9.397 1.264-3.707 4.593-6.825 8.849-8.3 3.876-1.348 5.604-1.433 30.969-1.475 27.219 0 31.053-.253 35.225-2.064 3.834-1.728 6.278-4.804 7.542-9.523.927-3.666.969-57.303.042-63.034-1.264-7.626-3.16-12.134-6.363-15.084-5.308-4.888-11.502-2.444-18.539 7.332-1.769 2.486-9.691 10.491-13.062 13.23-5.519 4.466-11.587 7.711-17.907 9.522-5.73 1.644-6.657 1.686-46.138 1.686h-38.342l-3.792-1.011c-10.998-2.866-18.835-8.68-31.896-23.638-4.467-5.141-6.784-7.163-9.986-8.722-2.571-1.264-6.11-1.643-8.385-.885zm27.092 36.952c.127.211 0 .548-.252.717-.717.421-2.739 5.098-3.245 7.542-.253 1.137-.674 2.991-.927 4.087-.674 3.076-.547 16.854.211 20.562 1.053 5.224 1.348 6.236 2.612 8.764.632 1.306 1.264 2.57 1.349 2.781.337.8-4.13-.295-7.332-1.854-5.688-2.697-9.944-7.753-11.882-13.989-1.095-3.455-.969-9.944.253-13.483 1.938-5.731 6.025-10.45 11.418-13.104 3.877-1.938 7.29-2.823 7.795-2.023zm9.102.506c3.876 1.264 6.91 3.118 9.648 5.899 4.256 4.34 6.321 9.522 6.321 15.969 0 6.573-1.896 11.124-6.531 15.801-3.371 3.412-7.879 5.856-11.545 6.362l-2.275.295 1.137-1.896c1.222-2.107 2.402-5.562 3.245-9.607.8-3.708.8-18.202.042-21.91-.885-4.129-2.191-8.048-3.329-9.691-.506-.801-.969-1.601-.969-1.77 0-.547 1.433-.379 4.256.548zm115.955-.632c.126.126-.211.969-.759 1.812-1.938 3.034-3.202 8.005-4.003 16.053-.379 3.539-.337 5.604.169 10.323.843 7.922 1.854 11.714 3.961 15.127l1.011 1.643-2.233-.295c-5.899-.801-12.936-6.067-15.759-11.798-3.581-7.289-3.413-15.126.464-21.784 2.949-5.014 7.036-8.342 12.724-10.323 2.95-1.011 4.003-1.179 4.425-.758zm9.522.758c7.416 2.486 12.219 7.163 14.663 14.242.843 2.444 1.053 3.919 1.096 7.289.042 5.014-.927 8.385-3.582 12.514-2.359 3.624-5.014 5.984-8.975 7.922-3.076 1.474-7.373 2.612-7.373 1.938 0-.169.421-1.096.969-2.065 1.264-2.317 2.317-5.646 3.034-9.775.716-3.961.842-16.348.21-19.677-1.348-6.91-2.149-9.396-3.792-11.713-1.39-1.981-.548-2.149 3.75-.675zm-63.244 16.349c1.011 1.011.463 2.528-2.276 6.236-2.991 3.96-3.581 4.466-4.761 3.792-.758-.379-5.73-6.952-6.194-8.216-.168-.38.043-1.012.464-1.475.674-.759 1.348-.843 6.531-.843 3.876 0 5.899.169 6.236.506zm-3.413 19.424c.885 5.351 2.444 7.963 5.73 9.649 3.455 1.727 9.902 1.306 13.694-.969 1.517-.885 2.191-.759 2.191.379 0 1.348-1.348 2.697-3.75 3.75-1.98.885-3.034 1.053-6.615 1.095-4.003 0-4.424-.084-7.163-1.432-2.191-1.096-3.287-1.938-4.551-3.666-1.769-2.402-2.781-2.739-3.96-1.264-3.498 4.34-5.562 5.646-9.986 6.278-4.424.632-9.733-.463-12.093-2.486-.674-.59-1.096-3.455-.548-3.455.127 0 1.138.464 2.233 1.053 3.961 2.065 9.944 2.444 13.02.843 3.244-1.643 6.025-6.573 6.025-10.618 0-2.444.295-2.696 2.865-2.57l2.36.126.548 3.287z"/></svg>