<svg xmlns="http://www.w3.org/2000/svg" width="300" height="300" viewBox="0, 0, 300, 300"><path d="M136.865 16.237c-9.212 1.024-21.732 3.701-29.448 6.299-9.843 3.307-28.741 13.15-36.693 19.134-8.426 6.378-25.906 24.252-31.182 31.969-11.338 16.535-18.661 34.881-22.44 56.692-1.575 8.819-1.339 32.363.393 42.126 5.118 28.426 17.638 52.205 38.268 72.835 11.024 11.024 20.709 18.032 34.252 24.724 16.772 8.347 31.181 12.363 49.842 13.937 35.748 3.15 74.016-10.078 100.552-34.645 19.291-17.874 31.889-38.662 39.606-65.433 0 0 4.012-15.023 3.937-30.945-.075-15.922-.63-21.732-2.205-29.134-3.779-17.559-10.551-33.701-20.63-49.055-6.85-10.473-22.441-26.378-33.7-34.41-9.056-6.378-25.276-14.645-35.276-17.874-18.11-5.826-38.425-8.11-55.276-6.22zm33.386 26.772c7.323 1.259 20.551 5.905 29.213 10.236 10.078 4.96 19.37 11.968 28.346 21.26 13.937 14.409 21.969 28.425 27.795 48.74 2.048 7.244 3.308 8.11 3.308 26.771 0 17.717-1.339 19.764-2.993 25.591-6.299 22.047-15.354 37.559-30.472 52.284-15.197 14.803-33.307 24.488-53.858 28.818-7.638 1.575-34.567 1.654-42.835.079-20.866-4.016-42.126-15.827-57.401-31.89-14.961-15.669-25.04-35.275-28.583-55.511-1.575-9.134-1.575-28.426 0-38.268 2.441-14.882 10.63-33.543 20.394-46.457 18.11-24.016 46.929-40.472 75.275-42.834 5.669-.473 26.693.314 31.811 1.181zm-80.236 64.724c-5.433 1.811-10.315 5.118-15.197 10.394-4.646 4.96-7.559 10.63-8.583 16.693-.393 2.519-.393 2.519 1.811 1.889 1.26-.393 3.78-1.259 5.67-1.968 7.874-2.835 22.834-4.646 21.968-2.677-.236.551-1.653 3.779-3.228 7.244-1.496 3.386-3.465 9.291-4.41 13.149l-1.732 6.93-2.441-1.575c-3.071-1.811-8.582-1.969-11.181-.236-2.441 1.574-4.567 6.929-3.937 9.921.315 1.181 1.654 3.464 3.071 4.96l2.598 2.678-1.968 1.811c-4.725 4.488-5.118 9.527-1.024 13.937 4.095 4.33 10.394 4.252 14.016-.237l2.047-2.677 2.52 2.599c4.724 5.039 12.126 4.252 15.59-1.811 2.126-3.701 1.26-7.638-2.519-11.26l-2.992-2.756 2.283-1.339c4.961-2.834 5.748-10.708 1.339-14.803-2.756-2.52-5.985-3.149-9.922-1.811-1.574.551-3.149.866-3.307.63-1.102-1.024 4.646-14.173 9.37-21.417 2.363-3.78 3.544-4.882 4.961-4.882 3.622 0 16.693 3.779 22.913 6.614 3.386 1.575 6.3 2.835 6.457 2.835.709 0 .236-4.567-.787-8.347-2.52-9.449-10.394-18.976-19.134-22.913-3.858-1.732-5.906-2.126-12.835-2.362-5.354-.158-9.37.157-11.417.787zm0 64.567c1.024.787 1.26 1.653.866 3.15-.551 2.362-2.913 3.385-5.197 2.126-1.89-1.024-2.047-2.914-.236-4.882 1.496-1.654 2.598-1.811 4.567-.394zm99.527-64.095c-10.157 3.229-19.291 12.599-22.283 22.835-1.181 4.173-1.732 9.528-.866 9.528.236 0 2.52-1.024 5.118-2.363 7.874-4.015 17.48-6.378 27.559-6.85 10.079-.472 16.063.236 27.323 3.465 4.016 1.181 7.48 1.968 7.638 1.732.708-.709-1.181-7.244-3.229-11.417-2.362-4.804-7.323-10.315-11.889-13.229-8.111-5.118-20.237-6.614-29.371-3.701z"/></svg>