<svg xmlns="http://www.w3.org/2000/svg" width="300" height="300" viewBox="0, 0, 300, 300"><path d="M30.925 10.137c-9.6 2.124-16.748 8.497-20.099 17.974l-1.143 3.267v237.335l1.267 3.513c2.981 8.333 8.7 14.011 17.115 16.993l3.268 1.144h237.334l3.513-1.267c8.334-2.982 14.012-8.701 16.994-17.116l1.143-3.267v-237.335l-1.143-3.267c-2.982-8.415-8.66-14.134-16.994-17.116l-3.513-1.266-117.646-.082c-96.404-.041-118.094.041-120.096.49zm99.999 107.189c6.372 1.675 10.58 4.942 12.989 10.049 2.779 5.841 2.043 13.398-1.797 19.239-2.492 3.84-6.944 7.762-16.013 14.175-1.797 1.307-4.289 3.227-5.515 4.371l-2.246 2.001 14.011.042h13.97l-.081 7.23-.123 7.271h-53.921l.123-1.43c.245-2.165 1.633-6.414 3.227-9.641 2.941-6.126 8.66-12.009 20.016-20.669 10.294-7.884 13.235-12.091 11.519-16.544-.938-2.532-4.084-4.575-7.025-4.616-1.798 0-4.208.899-5.474 2.124-1.021.981-2.574 4.698-2.574 6.25 0 .531-.122 1.062-.286 1.144-.449.286-17.646-1.144-17.973-1.47-.49-.491.694-5.678 2.002-8.824 2.532-6.045 8.087-10.048 15.645-11.274 5.187-.858 15.237-.532 19.526.572zm-82.476 4.616c.818 2.532 4.004 12.785 7.108 22.753 3.146 9.967 5.76 17.973 5.883 17.768.122-.203 3.308-10.416 7.108-22.753l6.862-22.344h20.629l-.817 2.125c-.449 1.184-5.8 15.686-11.928 32.189l-11.152 30.024-10.988.082-11.029.122-12.051-31.903c-6.617-17.565-12.091-32.108-12.173-32.271-.081-.204 4.657-.368 10.499-.368h10.621l1.428 4.576zm155.473 2.369v6.944h-33.496v9.804l15.441.081 15.399.123.124 6.617.081 6.659-15.4.082-15.442.122v12.255l17.035.122 17.034.083.123 5.8.122 5.759 9.967-14.991c5.475-8.252 9.968-15.196 9.968-15.482 0-.286-4.412-7.271-9.845-15.523-5.433-8.292-9.886-15.155-9.886-15.236 0-.082 5.025-.164 11.152-.164h11.111l5.474 9.6c3.023 5.229 5.637 9.477 5.759 9.395.164-.123 2.656-4.411 5.516-9.599l5.269-9.396h10.947c6.006 0 10.949.082 10.949.205 0 .122-4.412 7.108-9.805 15.523-5.392 8.373-9.804 15.359-9.804 15.522 0 .123 4.739 7.434 10.54 16.258 5.8 8.824 10.702 16.258 10.866 16.503.245.409-2.084.531-11.071.531h-11.397l-6.086-10.007c-3.39-5.516-6.25-9.968-6.414-9.886-.203.041-3.022 4.493-6.372 9.886l-6.046 9.803-37.662.123-37.663.081v-64.542h53.512v6.945z"/></svg>