<svg xmlns="http://www.w3.org/2000/svg" width="300" height="300" viewBox="0, 0, 300, 300"><path d="M25.576 3.855c-10.031 2.219-17.5 8.878-21.001 18.781l-1.195 3.414v247.995l1.324 3.671c3.115 8.707 9.091 14.64 17.884 17.756l3.415 1.195h247.994l3.671-1.323c8.708-3.116 14.641-9.092 17.757-17.885l1.195-3.414v-247.995l-1.195-3.414c-3.116-8.793-9.049-14.769-17.757-17.885l-3.671-1.323-122.93-.086c-100.734-.042-123.399.043-125.491.513zm104.491 112.003c6.658 1.75 11.055 5.164 13.573 10.5 2.903 6.104 2.134 14-1.878 20.104-2.604 4.012-7.256 8.11-16.732 14.811-1.878 1.366-4.482 3.372-5.763 4.568l-2.347 2.091 14.64.043h14.598l-.085 7.555-.128 7.598h-56.343l.128-1.494c.256-2.263 1.707-6.702 3.372-10.074 3.073-6.402 9.049-12.549 20.915-21.598 10.757-8.238 13.83-12.634 12.037-17.287-.981-2.646-4.268-4.78-7.341-4.823-1.879 0-4.397.939-5.72 2.219-1.067 1.025-2.689 4.909-2.689 6.531 0 .555-.128 1.11-.299 1.195-.469.299-18.439-1.195-18.781-1.536-.512-.513.726-5.933 2.092-9.22 2.646-6.317 8.451-10.5 16.348-11.781 5.42-.896 15.921-.555 20.403.598zm-86.18 4.823c.854 2.646 4.183 13.36 7.427 23.775 3.287 10.415 6.019 18.781 6.147 18.567.128-.213 3.457-10.884 7.427-23.775l7.171-23.348h21.555l-.853 2.22c-.47 1.238-6.061 16.391-12.464 33.635l-11.653 31.373-11.482.085-11.524.128-12.592-33.336c-6.915-18.354-12.635-33.55-12.72-33.721-.085-.213 4.866-.384 10.97-.384h11.098l1.493 4.781zm162.456 2.476v7.256h-35.001v10.244l16.135.085 16.091.128.129 6.915.085 6.958-16.092.085-16.135.128v12.805l17.8.128 17.799.086.128 6.061.128 6.018 10.415-15.665c5.72-8.622 10.415-15.878 10.415-16.177 0-.299-4.61-7.598-10.287-16.22-5.677-8.665-10.33-15.836-10.33-15.921 0-.085 5.251-.171 11.653-.171h11.61l5.72 10.031c3.159 5.464 5.89 9.903 6.018 9.817.171-.128 2.775-4.609 5.763-10.03l5.506-9.818h11.439c6.275 0 11.44.086 11.44.214s-4.61 7.427-10.245 16.22c-5.634 8.75-10.244 16.049-10.244 16.22 0 .128 4.952 7.768 11.013 16.988 6.061 9.22 11.183 16.988 11.354 17.244.256.427-2.177.555-11.568.555h-11.909l-6.359-10.457c-3.543-5.763-6.531-10.415-6.702-10.33-.213.043-3.158 4.695-6.659 10.33l-6.317 10.244-39.354.128-39.355.085v-67.441h55.916v7.257z"/></svg>