<svg xmlns="http://www.w3.org/2000/svg" width="300" height="300" viewBox="0, 0, 300, 300"><path d="M180.661 20.256c-2.258.513-3.387 2.464-1.437 2.464.513 0 2.361 1.231 4.106 2.669 2.566 2.053 3.182 3.49 3.182 6.467 0 7.185-4.208 8.622-15.91 5.645-8.623-2.155-35.107-3.079-45.782-1.437-30.282 4.414-56.766 21.659-68.365 44.448-13.961 27.51-4.517 61.384 24.02 86.123 4.414 3.798 11.702 8.931 16.116 11.292 10.675 5.748 14.473 9.238 12.934 12.01-1.643 3.182-4.722 4.414-13.55 5.338-9.957 1.129-13.653 2.668-19.298 7.698-12.01 10.881-13.755 32.232-2.669 32.232 2.977 0 5.44-3.695 6.159-9.238 1.232-9.033 8.314-14.371 15.5-11.702.821.41 2.258 1.95 3.079 3.593 3.285 6.261.924 14.781-5.645 20.94-5.954 5.543-11.292 12.934-11.292 15.603 0 3.285 5.851 9.033 9.957 9.854 9.033 1.745 20.017-11.496 24.534-29.46.923-3.798 2.668-8.315 3.9-10.163 4.004-5.851 11.805-5.953 15.603-.102 1.54 2.361 1.643 3.49.719 9.136-1.745 10.059-5.338 16.526-14.063 25.354-6.057 6.262-7.802 8.623-7.802 10.881 0 6.262 7.083 11.292 13.961 9.957 2.771-.513 5.44-2.361 9.649-6.467 6.056-6.159 6.569-7.185 11.394-25.662 3.49-13.447 7.391-17.451 14.884-15.398 1.745.411 4.722 2.259 6.467 4.106 2.566 2.566 3.182 4.106 3.182 7.596 0 3.593-.718 5.236-4.414 9.855-8.725 10.675-9.854 15.397-4.722 19.709 3.696 3.182 6.467 3.387 10.779.718 8.314-5.03 15.808-21.864 15.808-35.414 0-6.467-2.772-14.576-6.365-18.682-1.745-1.951-5.851-4.928-9.033-6.57-15.192-7.699-16.424-19.093-2.258-21.043 6.672-.924 16.116-3.285 22.583-5.749 24.123-8.828 44.447-28.639 51.12-49.888 2.463-8.006 2.977-23.199 1.026-32.437-3.9-19.196-13.755-34.696-28.844-45.885-7.494-5.543-8.726-7.699-9.855-17.04-1.437-11.189-4.003-15.295-12.113-19.401-3.592-1.745-13.036-2.874-17.245-1.95zm-11.291 42.292c8.109 4.003 15.603 11.189 21.762 20.633 5.337 8.212 5.748 12.01 1.642 14.063-3.798 1.95-5.646.513-11.189-7.904-9.752-14.885-17.861-20.428-30.384-20.428-8.418 0-17.554 2.156-25.663 6.262-6.672 3.285-8.828 3.593-10.676 1.745-4.721-4.722 3.388-11.189 20.838-16.424 4.62-1.335 8.726-1.745 16.63-1.54 9.238.308 11.189.719 17.04 3.593zm-39.315 42.702c10.983 2.567 28.331 6.262 38.493 8.212 22.173 4.414 30.385 7.904 34.08 14.474 5.851 10.368.514 23.404-12.523 29.974-24.944 12.831-66.62 4.722-90.435-17.451-9.854-9.135-13.755-16.629-13.755-26.278 0-15.911 7.596-17.451 44.14-8.931z"/></svg>