<svg xmlns="http://www.w3.org/2000/svg" width="300" height="300" viewBox="0, 0, 300, 300"><path d="M210.246 86.753c-7.616 1.555-9.326 2.798-9.326 7.461 0 3.886.155 3.886 8.238 2.798 10.881-1.709 38.239-1.088 43.057.933 5.441 2.021 7.617 6.062 8.705 15.855 1.243 10.881-2.176 15.078-12.124 15.078-3.731.155-14.767.466-24.871.777-22.694.777-23.627 0-23.938-17.099-.155-6.217-.622-11.968-1.243-13.057-1.71-2.797-6.84-2.02-8.705 1.244-1.71 3.42-2.021 18.187-.311 26.58 1.865 9.793 5.285 12.902 15.078 13.679 7.306.622 8.394 1.088 6.684 2.953-4.353 5.285-19.43 11.348-28.601 11.348-7.306 0-10.726 2.953-9.171 7.772 1.554 4.974 11.502 4.352 29.378-2.021 5.907-2.176 19.119-12.591 22.383-17.876 2.643-4.041 2.954-4.197 18.187-4.041 18.964.155 24.87-1.71 27.979-9.327 2.798-6.684 2.954-11.036.622-20.673-3.886-16.166-6.062-18.498-19.275-21.917-6.994-1.866-34.352-2.176-42.746-.467zm-172.849 4.508c-4.042.777-16.477 20.518-17.721 27.979-.932 5.907-.621 6.84 4.042 11.192 4.352 4.197 4.974 5.441 4.197 10.415-.622 3.108-2.487 7.305-4.508 9.326-4.042 4.352-4.352 14.767-.622 18.964 3.109 3.419 16.788 6.839 22.384 5.596 2.331-.467 7.616-3.886 11.658-7.617 6.684-6.062 7.305-7.15 6.373-11.969-.933-5.129-2.177-8.238-7.306-17.565-2.953-5.44-2.021-8.083 3.731-11.191 8.704-4.508 4.352-16.166-6.063-16.166-5.596 0-7.616 2.331-4.818 5.596 2.487 2.953-.156 8.86-5.441 12.279-3.109 2.177-4.507 2.177-7.461.622-6.995-3.73-7.15-7.927-.466-18.497 2.642-4.352 5.129-6.062 9.015-6.84 9.638-1.865 11.503-9.326 2.798-11.191-2.176-.467-4.663-1.088-5.596-1.244-.777-.155-2.797-.155-4.196.311zm14.611 55.492c2.332 5.13.311 14.301-3.731 16.477-4.041 2.176-16.632.311-17.875-2.642-1.555-4.353 6.528-17.721 12.124-19.586 3.109-1.243 7.461 1.554 9.482 5.751zm34.663-46.01c-12.28.933-12.435.933-15.078 6.373-3.575 6.839-3.575 14.301-.155 20.674 3.886 7.305 3.42 32.176-.933 49.274-3.575 13.834-6.373 19.275-6.373 12.125 0-7.306-2.642-12.125-6.839-12.125-4.508 0-5.596 2.332-3.886 8.394 1.71 5.751 6.062 10.57 8.705 9.637 1.709-.621 1.709-.155.466 2.332-3.42 6.218 1.865 12.435 7.772 9.171 3.264-1.71 7.15-12.435 9.326-25.648 1.71-10.103 2.021-10.881 5.441-9.637 1.71.777 2.331 3.264 2.331 9.482 0 7.461.467 9.015 3.886 11.192 2.021 1.243 4.353 2.02 5.13 1.554.777-.466 1.243-5.751.933-11.658l-.467-10.881 5.441-1.71c2.953-1.088 9.326-1.554 13.989-1.243 6.995.311 9.171-.156 10.415-2.176 2.642-3.886-.622-6.374-9.482-7.462-6.839-.777-7.306-1.088-7.772-5.595-.466-4.508 0-4.975 4.819-5.907 5.751-1.088 12.435.777 14.456 3.886.621 1.088 1.398 13.523 1.709 27.513.311 13.989 1.244 26.891 2.177 28.601 1.088 2.021 2.953 2.798 5.751 2.487 5.596-.622 6.528-5.596 3.575-19.897-2.953-13.989-2.953-59.689 0-68.704 2.487-7.461.933-12.28-5.13-16.788-4.507-3.264-6.839-3.73-21.45-4.041-9.016-.156-21.917.155-28.757.777zm39.793 12.591c4.352 4.197 4.663 5.285 4.197 14.3l-.467 9.793-5.284.466c-7.617.777-8.705-1.243-4.819-9.793 2.642-5.906 3.109-8.238 1.71-11.036-.933-2.02-2.176-3.73-2.954-3.73-3.264 0-6.684 6.373-7.616 13.834-.467 4.352-1.866 8.705-2.954 9.637-1.243.933-6.684 2.176-12.124 2.487-12.746 1.088-16.477-1.865-16.477-13.368 0-13.212 6.218-16.787 29.223-17.098 12.435-.156 13.213 0 17.565 4.508zm-26.58 40.57c0 4.663-.156 4.663-12.125 6.684-4.818.777-5.129.621-4.663-3.42.311-2.954 2.021-4.974 5.596-6.684 6.995-3.575 11.192-2.176 11.192 3.42zm-8.55-34.197c-1.554 2.487.467 11.658 3.109 13.834 5.596 4.663 8.86-2.487 5.441-11.503-1.555-4.197-6.684-5.596-8.55-2.331zm118.601-9.948c-.777 1.088-1.243 3.108-.932 4.663.466 2.487 2.487 2.798 19.896 2.798l19.43-.156.467-4.197c.621-4.974 1.709-4.663-20.363-4.818-11.503-.156-17.41.466-18.498 1.71zm26.892 33.264c-2.798 1.088-3.42 2.331-2.798 5.285.621 3.575-1.088 5.129-16.632 15.388-10.881 7.306-20.674 12.436-26.581 14.145-17.254 4.975-20.518 7.462-16.321 12.436 6.528 7.772 35.44-6.84 66.528-33.731 6.684-5.751 12.591-5.44 15.545.622 1.554 3.42 3.108 4.352 7.15 4.352 11.191 0 14.611 12.902 6.528 24.715-8.083 11.658-22.072 16.943-31.865 11.969-4.352-2.331-4.974-2.331-5.751-.155-1.244 2.953 1.865 10.57 5.751 14.145 5.907 5.285 23.316-.156 35.751-11.347 7.928-7.151 10.57-12.125 11.347-21.762 1.399-17.409-11.968-33.575-29.844-35.596-4.042-.466-9.016-1.088-11.192-1.243-2.176-.311-5.596 0-7.616.777zm6.528 27.513c-20.984 16.632-38.705 26.58-55.958 31.243-10.104 2.798-10.726 12.591-.778 12.591 6.063 0 23.472-7.461 32.954-14.145 4.818-3.42 9.948-6.062 11.347-6.062 1.399 0 2.642-.933 2.642-2.021 0-1.244 4.042-5.596 8.86-9.793 14.456-12.435 14.923-12.901 12.747-15.544-2.487-3.109-3.42-2.798-11.814 3.731zm-223.368 14.767c-2.176 4.041-4.352 10.725-4.974 15.699-1.088 8.394-.933 8.705 2.643 8.705 5.44 0 11.036-12.28 10.414-22.539-.311-4.197-1.243-7.772-2.176-8.083-1.088-.311-3.575 2.487-5.907 6.218zm18.031-1.71c-2.642 2.642-2.487 20.052.311 23.782 4.819 6.684 9.793-5.596 7.461-18.653-1.243-6.373-4.352-8.549-7.772-5.129zm73.524.777c-5.907.933-8.55 3.109-8.55 6.995 0 2.642 1.088 2.953 10.57 2.487 9.638-.467 10.415-.777 10.881-4.197.311-2.021-.311-4.352-1.554-4.974-2.021-1.399-3.42-1.399-11.347-.311z"/></svg>