<svg xmlns="http://www.w3.org/2000/svg" width="300" height="300" viewBox="0, 0, 300, 300"><path d="M177.162 18.724c-15.687 5.762-27.852 22.57-27.852 38.737 0 4.802 1.12 12.646 2.561 17.448 1.44 4.802 2.241 8.964 1.921 9.124-.16.32-5.283 2.721-11.365 5.442-21.29 9.765-36.497 29.613-39.538 51.703-5.282 37.137 17.608 67.55 50.743 67.55 21.289 0 39.537-12.645 47.06-32.334 4.963-13.446 3.362-30.734-5.922-60.027-2.401-7.523 16.007 2.721 28.012 15.847 14.727 16.007 20.009 39.698 13.766 62.748-5.602 20.329-22.57 40.018-42.899 49.302-54.104 24.811-113.01-3.362-129.177-61.788-6.083-21.929-4.002-42.578 6.563-65.308 8.163-17.608 25.291-35.216 43.059-44.02 14.246-7.043 17.128-9.444 18.408-15.367 1.121-5.442-2.561-13.446-7.523-16.167-10.565-5.763-34.576 6.243-56.505 28.172-20.169 20.169-29.773 37.617-35.056 63.549-11.365 55.064 16.968 113.65 66.75 137.821 18.088 8.964 32.974 12.325 53.464 12.325 45.14 0 84.837-23.05 104.206-60.507 9.604-18.408 12.005-29.453 11.045-51.542-.801-21.13-3.202-30.094-12.006-44.66-14.566-24.171-39.377-41.619-63.388-44.82l-8.003-.961-2.882-9.604c-4.001-13.286-3.681-17.608 1.281-21.449 5.282-4.162 11.045-4.322 18.248-.32 13.606 7.683 16.007 8.323 21.45 6.562 5.602-1.76 10.564-8.803 10.564-15.046 0-5.763-7.843-14.086-18.728-19.369-11.365-5.602-28.012-6.883-38.257-3.041zm-8.804 116.051c5.603 20.81 6.083 26.732 2.721 33.295-5.442 10.245-21.289 13.766-29.133 6.403-6.563-6.083-8.643-11.685-8.643-23.05 0-11.846 3.201-19.689 10.724-26.572 5.443-5.122 16.968-11.205 18.248-9.764.481.64 3.202 9.444 6.083 19.688z"/></svg>