<?xml version="1.0" encoding="UTF-8"?>
<!DOCTYPE svg PUBLIC "-//W3C//DTD SVG 1.1//EN" "http://www.w3.org/Graphics/SVG/1.1/DTD/svg11.dtd">
<svg version="1.1" xmlns="http://www.w3.org/2000/svg" xmlns:xlink="http://www.w3.org/1999/xlink" x="0px" y="0px" width="400" height="400" viewBox="0, 0, 400, 400">
  <g id="Layer 1">
    <path d="M120.601,46.576 C9.241,66.466 -27.879,192.281 60.7,249.869 C65.557,252.991 65.557,252.645 58.271,274.385 L52.027,293.002 L74.461,280.976 L96.895,268.95 L108.806,271.841 C121.294,274.963 137.253,277.16 147.891,277.16 L154.252,277.16 L152.054,268.718 C134.593,204.423 194.956,140.706 273.475,140.706 L284.114,140.706 L281.917,133.074 C264.686,72.826 191.95,33.856 120.601,46.576 z M110.887,102.892 C122.682,110.872 123.376,128.102 112.043,135.503 C93.657,147.529 72.148,126.367 84.521,108.327 C89.956,100.233 103.024,97.573 110.887,102.892 z M205.711,102.892 C225.138,115.96 210.568,146.141 188.827,137.815 C173.101,131.802 171.25,110.178 185.936,102.43 C191.718,99.308 200.738,99.539 205.711,102.892 z M248.613,150.536 C193.453,160.596 155.177,202.457 157.374,250.563 C160.265,314.974 235.777,359.379 308.282,339.489 L316.839,337.176 L334.879,346.89 C344.824,352.325 353.15,356.257 353.381,355.794 C353.613,355.216 351.647,348.278 349.103,340.299 C343.321,322.49 343.205,323.762 350.953,318.212 C438.144,255.651 361.592,130.068 248.613,150.536 z M246.416,202.457 C251.272,205.695 253.816,213.79 251.735,219.688 C247.341,232.292 228.492,233.217 223.403,221.075 C217.621,207.083 233.58,194.131 246.416,202.457 z M323.662,203.845 C331.294,211.13 330.022,223.504 321.118,228.129 C307.473,235.067 293.134,221.191 300.188,207.892 C304.813,199.335 316.724,197.254 323.662,203.845 z M220.43,328.772" fill="#000000"/>
  </g>
  <defs/>
</svg>
