<svg xmlns="http://www.w3.org/2000/svg" width="300" height="300" viewBox="0, 0, 300, 300"><path d="M196.802 39.964c-8.656 3.787-10.64 12.803-4.328 19.115 3.066 3.066 5.951 3.607 18.574 3.607 17.673 0 29.575 4.688 38.592 15.148 11 12.443 12.263 16.23 12.263 38.952 0 20.197 0 20.558 4.688 23.263 10.82 6.131 18.034-1.443 20.558-21.64 3.246-26.329-12.443-56.986-36.066-71.052-15.509-9.016-42.018-12.623-54.281-7.393zm-88.724 33.542c-20.198 7.213-39.674 21.099-60.592 43.46-49.592 52.658-46.346 102.791 8.295 129.48 56.805 27.771 133.267 18.574 174.924-21.099 31.198-29.575 27.411-66.724-8.115-79.347-6.312-2.164-8.296-3.787-7.394-5.771 3.246-7.934 4.328-17.131 2.525-22.541-5.591-17.132-25.968-21.099-56.264-10.82l-12.083 4.147 1.082-12.082c1.263-14.246-1.803-22.001-10.279-26.329-7.033-3.607-20.558-3.246-32.099.902zm50.133 69.789c26.869 7.394 43.28 23.624 43.28 42.919 0 21.46-19.116 40.756-50.133 51.035-16.591 5.41-47.428 6.492-62.576 2.344-28.673-8.115-44.903-23.984-44.903-44.362 0-11.181 4.869-20.919 15.509-30.837 9.918-9.377 17.492-13.886 32.099-18.755 22.001-7.393 45.625-8.295 66.724-2.344zm-56.806 17.492c-18.213 8.476-27.951 21.46-27.951 37.69 0 14.788 6.492 24.886 20.738 32.46 11 5.951 31.198 5.41 43.461-.901 15.689-8.296 25.968-23.624 25.968-38.592-.181-12.263-11.001-26.87-23.804-32.099-10.279-4.328-27.592-3.607-38.412 1.442zm13.165 33.903c1.262 1.262 2.164 4.328 2.164 7.033 0 9.017-15.148 16.411-21.28 10.279-3.426-3.426-2.524-11.902 1.443-15.869 3.967-3.968 14.246-4.869 17.673-1.443zm85.298-117.758c-8.296 8.296-2.705 18.214 10.459 18.214 11.361 0 16.41 5.771 16.41 18.755 0 8.115.722 10.459 3.968 12.623 9.738 6.853 17.673-.721 17.673-16.771 0-19.656-14.067-34.444-34.084-35.887-9.016-.721-11.18-.18-14.426 3.066z"/></svg>