<svg xmlns="http://www.w3.org/2000/svg" width="300" height="300" viewBox="0, 0, 300, 300"><path d="M233.437 38.207c-7.5 1.443-13.269 4.471-18.534 9.952-10.456 10.89-11.899 28.197-3.317 41.034 12.837 19.327 41.827 19.182 54.663-.217 4.183-6.274 5.553-11.538 5.265-19.759-.217-6.13-.577-7.5-2.813-12.332-6.346-13.341-21.346-21.274-35.264-18.678zm-173.798 5.842c-7.933 1.153-16.947 5.841-22.139 11.538-2.669 2.957-6.635 10.024-7.861 14.279-1.586 5.264-1.586 15.072 0 20.336 1.37 4.688 5.265 11.467 8.582 15 10.024 10.673 27.692 14.135 40.889 8.149 23.221-10.528 28.991-40.961 11.106-58.846-7.861-7.86-20.192-12.043-30.577-10.456zm89.712 33.822c-26.539 2.884-49.183 23.509-54.736 49.759-1.442 6.707-1.37 20.12 0 26.466 3.389 14.856 11.899 28.125 24.014 37.212 2.452 1.875 4.472 3.75 4.472 4.111 0 .432-1.515.721-3.39.721-16.586.072-30.937 12.187-33.461 28.269-3.318 21.562 15.865 40.817 37.283 37.5 12.116-1.875 22.428-10.313 26.25-21.491 4.039-11.682 1.803-23.365-6.202-32.74-1.73-2.019-3.173-4.038-3.173-4.471 0-.433 1.082-.577 2.741-.288 6.634 1.009 17.452 1.298 22.283.504 11.899-1.875 24.231-7.428 32.38-14.783l4.183-3.678 7.283-.433c6.13-.288 8.077-.721 11.971-2.596 8.582-4.111 13.847-10.457 16.226-19.688 3.246-12.62-2.307-25.24-14.062-32.307-4.615-2.741-4.688-2.813-6.563-8.51-2.307-6.706-4.254-10.673-7.932-16.154-13.125-19.326-36.202-29.927-59.567-27.403zm4.687 18.245c1.587 1.082 3.822 3.317 4.904 4.976 1.803 2.596 2.019 3.678 2.019 8.581 0 5.049-.216 5.914-2.163 8.726-3.895 5.553-12.26 8.51-18.173 6.274-6.419-2.379-11.034-8.653-11.034-15.072 0-6.274 4.327-12.476 10.385-14.928 3.822-1.514 10.6-.793 14.062 1.443zm33.822 12.548c.289 6.562-1.442 11.61-6.13 17.957-8.149 11.033-7.788 10.312-7.788 15.504 0 6.779 1.803 8.943 10.457 12.476 4.11 1.731 7.716 3.822 9.447 5.409 3.317 3.173 7.355 11.394 6.995 14.279-.217 1.947-.577 2.091-8.366 4.038-8.942 2.308-9.735 2.164-10.6-1.803-.722-3.101-5.914-8.221-9.375-9.158-11.827-3.246-21.491 3.966-21.635 15.937 0 2.668-.289 5.12-.721 5.553-.793.793-14.64 4.399-16.803 4.399-1.875 0-2.38-1.37-2.813-7.933-.504-6.778.938-12.115 4.472-17.019 5.552-7.716 5.48-7.572 5.192-12.043-.216-3.462-.577-4.471-2.524-6.49-1.226-1.226-4.327-3.101-6.779-4.039-6.202-2.38-11.25-5.697-14.784-9.735-3.533-4.039-7.139-10.601-6.562-12.116.433-1.009 10.889-4.183 13.702-4.183.649 0 2.235 1.443 3.533 3.246 4.544 6.346 13.125 10.24 20.77 9.519 10.817-.938 19.759-9.736 20.913-20.625.361-3.389.721-4.183 2.236-4.904 3.101-1.442 12.548-3.75 14.783-3.606l2.164.145.216 5.192z"/></svg>