<svg xmlns="http://www.w3.org/2000/svg" width="300" height="300" viewBox="0, 0, 300, 300"><path d="M65.167 22.667h169.666c27.615 0 50 22.385 50 50v154.666c0 27.615-22.385 50-50 50h-169.666c-27.615 0-50-22.385-50-50v-154.666c0-27.615 22.385-50 50-50z"/><g fill="#fff"><path d="M239.607 57v17.5h-49.5v168.5h-18v-168.5h-36.5v-17.5h104zM105.44 57v33.5h18.667c5.523 0 10 4.477 10 10v83.667c0 5.523-4.477 10-10 10h-18.667v31.185h12.12l-.334-12 17.381-.185-.333 17.666s-.1 5.208-3.714 8.186c-3.62 2.981-10.62 2.814-10.62 2.814l-60.047.186v-16.667h28.214v-31.185h-18.714c-5.523 0-10-4.477-10-10v-83.667c0-5.523 4.477-10 10-10h18.714v-33.5h17.333zm5.479 51h-5.479v69.667h5.479c3.417 0 6.188-2.964 6.188-6.62v-56.427c0-3.656-2.771-6.62-6.188-6.62zm-22.812 0h-5.478c-3.418 0-6.189 2.964-6.189 6.62v56.427c0 3.656 2.771 6.62 6.189 6.62h5.478v-69.667zM207.67 118.548l32.937 56.037-15.087 8.867-32.937-56.037 15.087-8.867z"/></g></svg>