<?xml version="1.0" encoding="UTF-8"?>
<!DOCTYPE svg PUBLIC "-//W3C//DTD SVG 1.1//EN" "http://www.w3.org/Graphics/SVG/1.1/DTD/svg11.dtd">
<svg version="1.1" xmlns="http://www.w3.org/2000/svg" xmlns:xlink="http://www.w3.org/1999/xlink" x="0px" y="0px" width="300" height="300" viewBox="0, 0, 300, 300">
  <g id="Layer 1">
    <path d="M210,236.081 L210,112.708 C210,84.676 187.282,61.948 159.253,61.948 L16.601,61.948 C15.501,61.948 14.61,62.834 14.61,63.923 L14.61,236.08 C14.61,237.169 15.501,238.051 16.601,238.051 L54.705,238.051 C55.805,238.051 56.695,237.164 56.695,236.068 L56.695,100.946 C56.695,99.849 57.586,98.959 58.686,98.959 L140.625,98.959 C156.011,98.959 168.49,111.431 168.49,126.82 L168.49,236.064 C168.49,237.16 169.38,238.046 170.474,238.046 L208.018,238.046 C209.109,238.046 210.002,237.162 210.002,236.075" fill="#000000"/>
    <path d="M133.053,236.069 C133.053,237.165 132.171,238.052 131.07,238.052 L92.975,238.052 C91.875,238.052 90.984,237.165 90.984,236.069 L90.984,132.524 C90.984,131.428 91.875,130.538 92.975,130.538 L131.07,130.538 C132.171,130.538 133.053,131.428 133.053,132.524 L133.053,236.073 z" fill="#000000"/>
    <path d="M285.39,236.069 C285.39,237.165 284.499,238.052 283.398,238.052 L245.312,238.052 C244.21,238.052 243.312,237.165 243.312,236.069 L243.312,63.941 C243.312,62.84 244.21,61.951 245.312,61.951 L283.398,61.951 C284.499,61.951 285.39,62.84 285.39,63.941 L285.39,236.069 z" fill="#000000"/>
  </g>
  <defs/>
</svg>
