<?xml version="1.0" encoding="UTF-8"?>
<!DOCTYPE svg PUBLIC "-//W3C//DTD SVG 1.1//EN" "http://www.w3.org/Graphics/SVG/1.1/DTD/svg11.dtd">
<svg version="1.1" xmlns="http://www.w3.org/2000/svg" xmlns:xlink="http://www.w3.org/1999/xlink" x="0px" y="0px" width="300" height="300" viewBox="0, 0, 300, 300">
  <g id="Layer 1">
    <path d="M127.155,61.216 C126.117,61.31 122.721,61.641 119.608,61.924 C77.438,65.854 35.253,88.967 18.744,117.19 C-16.004,176.545 51.228,238.919 150.032,238.982 C167.453,238.997 174.104,238.447 189.418,235.711 C236.965,227.252 279.213,198.29 287.499,168.495 C290.03,159.391 290.816,153.574 290.423,147.033 C287.798,103.527 217.138,74.046 147.437,87.379 C142.249,88.37 140.724,88.747 132.815,90.996 C102.705,99.58 76.275,120.791 76.243,136.42 C76.227,144.533 79.561,148.574 92.281,155.838 C96.683,158.338 109.702,165.822 121.243,172.457 C150.771,189.469 151.981,189.721 165.833,181.844 C186.572,170.036 213.758,154.203 215.534,152.897 C222.279,147.913 220.849,140.193 212.295,135.366 C210.864,134.564 206.478,132.033 202.515,129.737 C193.915,124.753 195.849,124.769 187.704,129.501 C146.494,153.432 154.198,151.718 135.692,141.074 C119.608,131.813 118.9,131.278 120.787,129.785 C163.742,95.948 263.049,115.193 254.528,155.712 C242.877,211.073 116.494,225.947 61.07,178.463 C20.741,143.92 55.096,88.37 126.447,72.788 C141.51,69.502 149.544,68.732 168.789,68.732 C177.925,68.732 185.409,68.606 185.409,68.449 C185.409,67.82 171.352,64.298 164.183,63.103 C155.236,61.641 134.057,60.556 127.155,61.216 z" fill="#000000"/>
  </g>
  <defs/>
</svg>
