<svg xmlns="http://www.w3.org/2000/svg" width="300" height="300" viewBox="0, 0, 300, 300"><path d="M252.439 32.208c-16.871 6.925-38.765 17.855-57.367 28.65-23.116 13.408-45.418 28.479-64.325 43.483l-3.734 2.953-.679-.815c-.373-.475-1.561-2.037-2.613-3.496-9.607-13.239-23.117-22.404-36.185-24.61-5.635-.917-13.782-.102-19.756 2.037-2.851.984-3.123 1.018-30.075 3.055-14.936 1.154-27.529 2.07-27.97 2.07-1.698 0-.17.408 6.483 1.731 16.803 3.293 26.205 5.669 34.59 8.724 5.091 1.833 14.528 5.771 14.732 6.144.373.611-2.071 19.586-3.225 25.153-.374 1.765-.849 4.074-1.086 5.092-.204 1.018-.374 4.684-.408 8.147 0 5.227.136 6.924.781 10.081 2.444 12.186 8.418 22.743 18.602 32.859 5.974 5.94 11.846 10.421 26.443 20.061 8.282 5.499 13.543 8.69 23.387 14.223 3.904 2.172 8.113 4.582 9.335 5.363 9.199 5.771 16.599 12.322 37.068 32.825 10.93 10.998 14.766 14.63 14.63 13.951-.475-2.818-3.7-18.772-4.854-23.965-4.82-21.827-10.353-40.836-14.63-50.238-.917-2.071-1.901-4.209-2.139-4.752l-.441-1.019 9.029.136c7.604.102 22.336-.441 22.777-.815.034-.068-.373-1.595-.984-3.394-.611-1.799-1.019-3.327-.951-3.429.102-.068 2.58 1.019 5.567 2.444l5.397 2.546 9.844-2.783c5.397-1.528 9.98-2.852 10.15-2.953.136-.068-.713-1.155-1.901-2.41-1.188-1.222-2.818-2.988-3.666-3.87-1.765-1.901-2.308-2.037 6.042 1.459l5.872 2.444 6.688-2.444c3.666-1.357 6.822-2.545 6.992-2.647.17-.102-1.256-1.664-3.225-3.497l-3.53-3.326 6.008 2.003 6.042 1.968 15.853-5.668c8.757-3.123 16.734-5.975 17.753-6.314 1.018-.306 1.968-.713 2.138-.815.374-.373-16.463-7.773-31.433-13.815-17.243-6.959-42.261-15.92-52.512-18.806-2.138-.577-4.039-1.188-4.175-1.323-.136-.17 3.564-5.635 8.248-12.22 4.651-6.586 8.487-12.017 8.487-12.051 0-.068-1.053-.237-2.377-.339-1.289-.136-2.376-.34-2.376-.442 0-.101 5.058-7.433 11.236-16.259 6.178-8.826 11.27-16.158 11.304-16.327 0-.136-1.087-.374-2.444-.51-1.358-.101-2.546-.271-2.614-.339-.136-.136 2.614-3.972 17.719-24.678 4.549-6.212 8.249-11.371 8.181-11.405-.068-.068-2.614.916-5.703 2.172z"/></svg>