<svg xmlns="http://www.w3.org/2000/svg" width="300" height="300" viewBox="0, 0, 300, 300"><g><path d="M51.802 52.892c-19.71 13.759-36.041 25.195-36.258 25.381-.558.588-.155.557 14.472-.961 10.723-1.116 13.078-1.271 13.45-.961.372.341-1.054 9.762-9.235 61.887-5.3 33.81-9.638 61.546-9.638 61.67 0 .155 11.373.248 25.257.248 22.746 0 25.256-.062 25.256-.496 0-.248 3.006-38.304 6.663-84.51 3.657-46.236 6.694-84.726 6.725-85.594.062-1.177-.031-1.549-.372-1.611-.248-.031-16.611 11.187-36.32 24.947zM124.163 90.761c-12.024 1.24-22.901 8.895-28.324 19.989-2.325 4.772-3.13 8.212-3.285 14.41-.124 4.401-.062 5.578.526 8.367 1.364 6.694 4.463 12.427 9.452 17.541 4.773 4.865 10.134 8.026 16.58 9.731 3.998 1.053 11.714 1.208 16.053.34 12.241-2.541 22.219-11.249 26.496-23.18 2.51-6.973 2.51-16.456 0-23.428-3.316-9.266-9.917-16.549-18.718-20.64-5.733-2.665-12.396-3.78-18.78-3.13zm8.43 14.101c3.408.713 7.561 2.913 10.257 5.485 4.556 4.339 6.942 9.7 6.942 15.743 0 3.688-.682 6.508-2.355 9.917-1.209 2.448-1.922 3.409-4.122 5.609-2.138 2.107-3.192 2.913-5.299 3.936-6.849 3.377-13.388 3.377-20.144 0-3.718-1.86-7.375-5.517-9.235-9.235-3.378-6.756-3.378-13.295 0-20.144 1.023-2.107 1.829-3.161 3.936-5.268 3.502-3.471 6.849-5.237 11.962-6.322 1.457-.279 6.043-.155 8.058.279zM234.456 90.823c-.248.248-.372 1.798-.372 4.897s.124 4.648.372 4.896c.279.279 2.572.372 8.46.372 5.889 0 8.182-.093 8.461-.372.248-.248.372-1.797.372-4.896s-.124-4.649-.372-4.897c-.279-.278-2.572-.371-8.461-.371-5.888 0-8.181.093-8.46.371zM200.398 102.909c-.124.217-.31 15.155-.403 33.16l-.154 32.725-3.254-4.06c-1.953-2.448-3.533-4.121-3.905-4.183-.434-.062-2.944 1.766-7.903 5.702-3.997 3.192-7.344 5.95-7.468 6.136-.465.651-.217 1.115 2.231 4.183 1.829 2.294 2.665 3.13 3.192 3.13.403 0 1.829-.929 3.378-2.169l2.696-2.169 2.634 3.161c1.426 1.766 3.905 4.803 5.516 6.756l2.914 3.563 6.755.093c4.742.062 6.911-.031 7.19-.279.372-.309.434-6.167.434-36.258v-35.917h20.762999999999998v26.713l-.031 26.745-3.626 1.766c-1.983.992-4.586 2.51-5.764 3.378-7.499 5.702-12.644 14.162-13.976 23.118-1.767 11.715 1.859 22.871 10.071 31.083 18.191 18.191 49.057 11.807 58.726-12.148 3.006-7.437 3.223-17.044.62-24.761-4.277-12.52-14.999-21.6-28.17-23.831l-3.13-.527-.093-10.102-.062-10.134h14.659c11.001 0 14.751-.093 15.03-.372.248-.248.371-2.076.371-6.167 0-4.865-.092-5.888-.495-6.291-.434-.434-2.201-.496-15.03-.496h-14.535v-17.974h16.921c11.063 0 17.106-.124 17.509-.31.558-.31.589-.713.589-6.508 0-3.378-.093-6.353-.186-6.632-.186-.433-4.153-.495-41.96-.495-33.098 0-41.868.093-42.054.371zm52.094 79.582c3.905.992 7.066 2.821 10.103 5.889 4.246 4.214 6.136 8.491 6.415 14.441.217 4.369-.372 7.159-2.293 11.001-3.285 6.57-9.545 11.002-17.138 12.055-7.003.992-15.154-2.293-19.709-7.995-1.705-2.138-3.626-5.981-4.37-8.739-.775-3.006-.713-7.872.186-11.002 2.169-7.747 8.15-13.635 15.836-15.619 3.192-.836 7.809-.836 10.97-.031zM89.672 166.036c-.186.372-.31 3.285-.31 7.313 0 4.029.124 6.942.31 7.314.309.558.743.589 7.747.589h7.438v9.266c0 7.035.093 9.328.402 9.545.186.186 3.099.403 6.415.527 12.055.371 20.981 2.014 28.201 5.113 8.305 3.595 12.892 8.398 14.751 15.557.806 3.099.744 11.125-.124 14.286-1.425 5.268-3.13 8.429-6.384 11.931-2.634 2.851-5.144 4.649-8.894 6.446-6.198 2.913-11.311 3.874-21.569 4.091l-7.53.155v6.57c0 4.71.093 6.662.372 6.941.558.558 10.629.465 15.557-.093 23.211-2.727 38.055-14.658 42.022-33.717 1.178-5.671 1.518-11.807.899-16.207-1.643-11.9-9.018-21.631-20.764-27.457-5.547-2.758-13.573-4.99-20.887-5.826-1.704-.186-3.564-.403-4.09-.496l-1.023-.155v-6.477h23.8c18.098 0 23.893-.093 24.172-.372.279-.279.372-2.386.372-7.531 0-5.144-.093-7.251-.372-7.53-.279-.279-9.638-.372-40.287-.372-39.109 0-39.884 0-40.224.589z"/></g></svg>