<?xml version="1.0" encoding="UTF-8"?>
<!DOCTYPE svg PUBLIC "-//W3C//DTD SVG 1.1//EN" "http://www.w3.org/Graphics/SVG/1.1/DTD/svg11.dtd">
<svg version="1.1" xmlns="http://www.w3.org/2000/svg" xmlns:xlink="http://www.w3.org/1999/xlink" x="0px" y="0px" width="300" height="300" viewBox="0, 0, 300, 300">
  <g id="Layer 1">
    <g>
      <path d="M42.753,42.268 C35.749,43.449 32.816,46.255 32.838,51.74 C32.88,56.972 34.525,58.786 35.559,54.736 C37.268,47.943 40.285,47.225 66.128,47.415 C86.951,47.584 91.677,47.078 93.871,44.462 C94.546,43.639 93.575,43.554 86.191,43.871 C80.094,44.124 73.955,43.85 63.998,42.9 C49.188,41.466 47.837,41.424 42.753,42.268 z" fill="#000000"/>
      <path d="M104.841,57.542 C102.774,62.077 91.023,65.284 76.846,65.158 C65.474,65.052 63.238,65.58 62.5,68.491 C62.014,70.474 61.593,70.453 53.597,68.132 C38.892,63.85 35.665,63.322 35.665,65.284 C35.665,68.196 41.487,79.525 44.42,82.309 L46.318,84.103 L47.437,82.309 C50.601,77.183 57.225,77.879 67.289,84.377 C76.508,90.326 63.681,96.043 53.069,90.706 C47.858,88.09 46.867,88.491 49.145,92.33 C56.888,105.305 66.846,112.457 77.141,112.457 C80.854,112.457 82.204,111.571 79.525,110.896 C76.867,110.22 74.588,108.301 72.352,104.841 C69.82,100.896 70.052,100.621 74.335,102.626 C76.93,103.828 78.786,104.208 82.12,104.229 C92.162,104.229 108.364,119.503 102.267,123.216 C90.031,130.684 81.234,144.693 81.234,156.655 C81.234,162.161 81.234,162.161 75.833,159.84 C43.639,146.022 26.994,148.448 30.011,166.486 C36.065,202.73 83.428,239.502 143.891,254.903 C162.773,259.734 169.018,259.291 153.533,254.249 C92.647,234.417 52.394,198.342 60.622,171.021 C63.597,161.148 80.073,160.346 82.837,169.924 C88.575,189.882 108.976,212.835 130.431,223.489 C144.651,230.557 174.608,236.675 164.313,230.409 C128.976,208.954 103.069,160.557 113.533,135.621 C116.423,128.701 116.233,128.617 128.28,143.469 C144.208,163.11 157.33,170.199 177.752,170.22 C212.857,170.262 227.983,144.397 206.296,121.465 C191.359,105.685 167.203,101.507 136.128,109.313 L133.174,110.073 L128.575,105.874 C126.022,103.575 120.706,99.187 116.719,96.149 C109.271,90.453 107.984,89.039 110.305,89.039 C112.373,89.039 111.866,87.647 108.153,82.984 C104.039,77.816 103.744,78.28 112.267,76.613 C125.305,74.039 129.081,69.82 123.554,63.955 C121.634,61.909 121.107,62.077 121.107,64.651 C121.107,69.588 116.486,71.022 102.056,70.516 C88.217,70.031 87.373,69.335 97.352,66.55 C104.904,64.461 108.027,62.035 107.71,58.575 C107.457,56.023 105.811,55.432 104.841,57.542 z M84.588,75.727 C85.326,76.402 83.28,78.28 81.824,78.28 C80.2,78.28 75.432,76.402 74.272,75.284 C73.238,74.293 83.512,74.736 84.588,75.727 z M158.132,119.819 C175.726,123.406 187.941,133.279 194.587,149.271 C201.823,166.718 191.823,167.815 172.688,151.655 C164.651,144.861 141.36,121.001 141.36,119.566 C141.36,117.963 149.609,118.09 158.132,119.819 z" fill="#000000"/>
      <path d="M205.979,61.36 C206.886,62.141 210.156,64.546 213.258,66.698 C243.996,88.132 260.937,120.452 260.979,157.773 C261.021,199.038 227.055,230.536 180.41,232.519 C168.617,233.004 168.089,233.721 177.055,237.076 C222.667,254.038 266.569,235.62 280.177,193.785 C294.86,148.617 275.578,104.883 226.401,71.887 C214.671,64.018 200.557,56.74 205.979,61.36 z" fill="#000000"/>
      <path d="M19.23,79.946 C10.243,87.499 15.243,94.334 38.133,105.79 C50.306,111.887 55.833,115.073 60.833,118.933 C64.504,121.76 65.369,121.76 63.934,118.976 C61.761,114.777 53.744,108.891 39.145,100.79 C22.099,91.318 18.091,86.634 21.445,80.157 C22.627,77.837 21.825,77.752 19.23,79.946 z" fill="#000000"/>
    </g>
  </g>
  <defs/>
</svg>
