<svg xmlns="http://www.w3.org/2000/svg" width="300" height="300" viewBox="0, 0, 300, 300"><g><path d="M59.266 58.203c-8.582.587-15.844 5.355-19.365 12.617-1.1 2.273-4.107 13.423-7.335 27.286-12.616 53.912-18.044 77.457-19.804 85.085-1.027 4.401-3.667 15.844-5.941 25.306-2.201 9.462-4.034 18.411-4.034 19.804 0 3.448 2.2 8.069 4.987 10.416 1.247 1.027 3.961 2.274 6.015 2.714 2.641.587 37.775.807 115.819.807 123.668 0 115.819.293 123.081-4.621 1.907-1.394 4.767-4.255 6.308-6.455 2.567-3.741 3.08-5.648 11.076-39.902 20.537-87.947 25.525-109.585 26.479-114.206 1.54-7.115.44-11.442-3.814-15.33-4.548-4.254 3.447-3.961-116.846-3.961-61.101 0-113.619.22-116.626.44zm-3.668 46.651c0 .22-1.467 6.088-3.227 12.983-4.254 16.43-4.621 19.437-2.787 21.711 2.567 3.154 8.728 1.907 11.442-2.42.807-1.174 7.775-30.367 7.775-32.421 0-.22 2.494-.367 5.501-.367 3.008 0 5.502.22 5.502.44 0 1.687-8.289 32.274-9.242 34.255-1.687 3.227-4.548 6.234-7.702 7.848-7.922 4.108-21.198 3.228-25.379-1.76-1.687-1.981-1.834-2.714-1.54-7.042.22-2.64 1.833-11.296 3.594-19.217l3.227-14.524h6.455c3.521 0 6.381.22 6.381.514zm161.223 1.173c4.914 2.641 5.648 9.389 1.907 16.724-3.301 6.602-9.902 10.196-18.924 10.196-2.494 0-4.841.293-5.282.586-.66.367-3.96 13.13-3.96 15.184 0 .22-2.641.367-5.795.367h-5.795l1.394-5.355c.733-2.861 3.081-12.543 5.061-21.418 2.054-8.875 3.888-16.577 4.108-17.164.513-1.614 24.058-.807 27.286.88zm-96.822 15.33c1.321 1.101 1.1 3.081-.587 4.621-1.833 1.614-7.628 2.348-9.168 1.101-4.401-3.668 5.208-9.316 9.755-5.722zm-26.626 2.348c5.722-2.348 10.636-.44 10.636 4.181 0 1.247-.88 6.528-1.98 11.736l-1.908 9.462h-10.195l.513-2.054c1.467-5.501 3.228-15.11 2.861-15.697-.22-.293-1.174-.587-2.127-.587-1.247 0-1.907.514-2.201 1.614-.88 3.667-3.3 15.55-3.3 16.137 0 .293-2.421.587-5.428.587h-5.428l.733-2.788c.44-1.467 1.687-7.115 2.788-12.542l1.907-9.903 2.567-.293c1.394-.147 3.667-.514 5.061-.807 2.127-.44 2.641-.293 2.787.734.22 1.173.44 1.173 2.714.22zm50.318.22c2.201.807 3.301 1.833 4.034 3.594 1.394 3.301 1.321 5.134-.44 10.782-1.1 3.521-2.2 5.428-4.327 7.335-5.355 4.841-15.037 5.428-19.365 1.174-2.053-2.054-2.127-2.421-1.833-7.188.293-5.575 2.64-11.076 5.794-13.423 4.548-3.448 11.003-4.328 16.137-2.274zm20.465-.22c0 .88.44.88 2.787 0 3.301-1.174 6.381-1.247 8.289-.22 2.787 1.467 2.933 3.594.586 14.67-1.173 5.721-2.127 10.562-2.127 10.709 0 .073-2.347.22-5.208.22-4.327 0-5.134-.22-4.767-1.101.22-.586 1.1-4.621 2.053-8.875 1.687-8.142 1.467-9.389-1.613-8.582-1.687.44-1.614.294-3.668 10.269l-1.687 8.289h-5.061c-2.714 0-4.988-.074-4.988-.22 0-.074.954-4.621 2.201-10.049 1.173-5.428 2.2-10.929 2.2-12.25 0-2.2.147-2.347 3.888-3.007 5.648-1.027 7.115-1.027 7.115.147zm94.621 5.428l.366 6.161 2.641-5.428 2.714-5.428 4.914-.953c2.714-.441 5.062-.734 5.282-.587.146.22-3.448 6.895-7.996 14.89-4.621 8.068-10.122 17.824-12.322 21.785-5.061 9.315-6.822 10.782-12.47 10.782h-4.254l.734-2.861c.513-2.127 1.173-3.007 2.347-3.154 2.274-.293 9.902-13.203 9.975-16.723 0-1.467-.513-6.602-1.1-11.37-.66-4.841-1.174-9.462-1.32-10.269-.147-1.173.587-1.54 3.887-2.273 6.308-1.394 6.162-1.467 6.602 5.428zm-27.14-4.988c.954.513 3.008.513 6.602-.074 2.86-.513 5.354-.733 5.574-.513.22.22-.88 6.161-2.42 13.13l-2.861 12.762-5.281.22c-3.447.147-5.281-.073-5.281-.586 0-.514-.44-.587-1.394 0-3.3 1.687-9.462.293-11.369-2.568-2.641-3.961-.367-14.963 3.814-18.85 4.108-3.888 9.316-5.282 12.616-3.521zm-112.225 4.694c0 .587-.806 4.621-1.833 9.022-1.027 4.328-2.054 8.655-2.274 9.536-.294 1.54-.734 1.687-5.501 1.687-5.061 0-5.208-.074-4.768-1.687.22-.881 1.174-5.208 2.127-9.683l1.76-8.068 4.695-.807c2.567-.44 4.914-.88 5.281-.953.293 0 .513.366.513.953zm26.773 32.714c-.44 1.32-.147 1.467 3.447 1.54 2.128.074 4.108.074 4.475 0 .733-.073.66.367-.367 3.668l-.807 2.861h-6.381c-4.841 0-7.042.366-9.389 1.467-3.007 1.466-8.949 2.053-8.949.806 0-.293.367-1.613.807-2.934.587-1.687 1.247-2.273 2.494-2.273s2.201-.881 3.594-3.301l1.981-3.301h4.767c4.475 0 4.768.073 4.328 1.467zm20.465.367l-.44 1.907 2.787-1.687c2.42-1.467 4.107-1.761 11.516-1.981 5.281-.146 8.582.074 8.582.514 0 1.247-4.475 15.843-5.648 18.337-1.834 3.814-4.108 4.548-14.083 4.548h-8.802l-1.834 6.161c-1.027 3.374-1.907 6.528-1.907 6.969 0 .44 1.393.806 3.3.806h3.301v-12.469000000000001h4.401c3.888 0 4.401.147 4.401 1.467 0 2.2 2.787 1.907 3.374-.367.367-1.614.807-1.834 3.741-1.834h3.374l-.44 2.641c-.66 3.888-2.347 5.428-5.941 5.428-3.961 0-4.988.807-4.695 3.374.22 1.98.44 2.127 3.374 2.054 3.375-.074 3.595.293 2.274 4.034-.807 2.274-.807 2.274-5.941 2.274-6.088 0-7.922-.807-7.995-3.521-.073-1.76-.147-1.614-.807.734l-.733 2.787h-6.235c-6.235 0-9.022-.734-9.022-2.421-.074-.513 2.714-10.049 6.014-21.271l6.088-20.318h4.255c4.107 0 4.181 0 3.741 1.834zm40.782-.66c0 .806.367 1.027 1.32.66 2.934-1.247 7.702-1.761 16.504-1.834h9.315v2.201c0 1.687.294 2.2 1.467 2.2 1.614 0 1.834 1.174.734 3.961-.66 1.76-1.027 1.907-5.061 1.907-4.768 0-6.675-1.1-6.675-3.888 0-.953-.22-1.246-.587-.806-.293.513-1.173.953-1.98 1.1-1.174.22-2.201 2.787-5.648 14.23-2.347 7.701-4.255 14.156-4.255 14.45 0 .366.514.586 1.101.586.66 0 .88.44.66 1.101-.367.806.073 1.1 1.247 1.1 2.494 0 3.154-.587 6.895-5.868l3.3-4.768-4.327-.22-4.328-.22.807-2.494.733-2.567h5.062c4.694 0 5.061-.147 5.721-1.907.44-1.027.733-1.981.733-2.201 0-.146-2.127-.293-4.767-.293-5.135 0-5.428-.293-4.035-3.961l.734-1.907h13.936c15.55 0 14.157-.513 12.763 4.401-.367 1.247-1.027 1.467-5.061 1.467-4.474 0-4.621.073-5.428 2.2l-.733 2.201h4.767c2.568 0 4.695.147 4.695.293 0 .074-.367 1.247-.807 2.568-.807 2.273-.88 2.273-5.795 2.273-3.52 0-5.207.294-5.868 1.101-.806.953-.586 1.1.954 1.1 1.614 0 1.98.44 2.347 2.714.807 4.694 1.174 5.354 2.641 5.354 1.613 0 1.76 1.027.586 4.328-.733 2.054-1.1 2.274-3.96 2.274-4.035 0-5.942-1.687-6.749-5.868l-.66-3.301-2.714 3.741c-1.467 2.054-3.52 4.108-4.547 4.548-2.348 1.1-10.929 1.173-10.269.146.22-.44-.074-.733-.66-.733-.587 0-1.321.293-1.541.733-.22.367-2.42.734-4.841.734-2.787 0-4.254-.294-3.961-.734.294-.44-2.567-.733-7.995-.733-9.242 0-9.315-.074-7.775-4.108.44-1.1 1.247-2.347 1.834-2.787.513-.44 3.007-7.555 5.501-15.844 2.494-8.288 4.841-16.136 5.208-17.457.733-2.274.88-2.347 5.134-2.347 3.521 0 4.328.22 4.328 1.174zm-55.012 13.056c0 .587-.294 1.907-.734 2.934-.66 1.76-1.027 1.907-5.501 1.907-2.641 0-4.768.22-4.768.513 0 .367-.22 1.321-.44 2.201-.44 1.614-.293 1.687 4.034 1.687 4.842 0 5.135.367 3.741 3.961-.66 1.76-1.027 1.907-5.428 1.907h-4.767l-1.101 3.741c-.66 2.054-.953 4.107-.66 4.474.22.44 1.907.587 3.888.367l3.521-.44-.954 3.08-.88 3.081-6.895.22c-6.235.22-7.042.073-8.142-1.32-1.1-1.394-1.1-1.834-.146-4.988 2.2-7.188 2.2-7.482-.367-7.482-2.494 0-2.714-.66-1.467-4.327.66-1.981 1.173-2.274 3.3-2.274 2.054 0 2.641-.367 3.228-1.907 1.027-2.567 1.027-2.494-1.907-2.494-2.127 0-2.567-.22-2.201-1.174.22-.66.66-1.98.88-2.934l.441-1.76h11.662c9.609 0 11.663.147 11.663 1.027zM197.676 117.323c-.66 3.154-1.466 6.528-1.76 7.482-.44 1.687-.367 1.76 3.154 1.173 6.675-.953 9.829-3.96 9.829-9.388 0-3.448-1.834-4.915-6.308-4.915h-3.594l-1.321 5.648zM133.276 132.507c-.734 1.76-1.467 4.841-1.541 6.748-.22 3.374-.073 3.594 1.541 3.594 2.493 0 4.547-3.668 4.987-9.169.44-4.401.44-4.401-1.54-4.401-1.614 0-2.274.587-3.447 3.228zM227.75 130.159c-2.787 2.128-5.061 11.443-3.154 12.983 2.787 2.347 5.868-1.32 6.748-7.848.66-5.061-.807-7.188-3.594-5.135zM165.403 167.201c-.514.954-1.321 4.621-.954 4.621.147 0 1.467-.513 2.861-1.1 1.467-.587 4.474-1.1 6.675-1.1 3.3 0 3.96-.221 4.327-1.467.367-1.394 0-1.467-6.088-1.467-3.594 0-6.675.22-6.821.513zM162.689 176.59c0 .953 1.027 1.1 6.381.953 4.254-.146 6.455-.513 6.675-1.173.22-.66-1.394-.881-6.381-.881-5.502 0-6.675.221-6.675 1.101zM205.745 167.201c-.22.367-.734 1.834-1.1 3.374-.734 2.567-.66 2.787.44 2.347.66-.293 2.274-.66 3.521-.88 1.833-.293 2.42-.88 3.08-2.861l.734-2.493h-3.154c-1.761 0-3.374.22-3.521.513zM201.711 180.551c-1.321 4.254-1.174 4.401 2.274 3.227 3.667-1.247 3.814-1.467 4.474-4.108.44-1.907.367-1.98-2.714-1.98s-3.227.073-4.034 2.861zM198.043 192.287c-1.173 3.887-1.247 3.74 2.274 3.74 3.081 0 3.227-.073 4.034-2.86 1.174-3.888 1.247-3.741-2.274-3.741-3.08 0-3.227.073-4.034 2.861z"/></g></svg>