<svg xmlns="http://www.w3.org/2000/svg" width="300" height="300" viewBox="0, 0, 300, 300"><g><path d="M60.688 60.903c-8.291 1.077-16.512 7.878-19.192 15.894-1.672 4.947-34.009 145.287-34.123 147.967-.252 7.305 3.893 12.756 10.764 14.153 2.565.526 219.442.549 222.167.046 7.764-1.489 15.092-7.695 17.886-15.138 1.077-2.886 34.284-146.02 34.421-148.402.39-6.733-3.526-12.253-10.122-14.245-1.489-.435-218.343-.733-221.801-.275zm-2.519 45.62c0 .16-.207 1.008-.458 1.878-3.436 11.726-6.848 27.459-6.413 29.474 1.26 5.909 9.71 5.428 12.802-.71.87-1.694 7.351-29.062 7.351-30.985 0-.092 10.146.045 10.237.137.023.023-.045.412-.183.847-.114.435-1.763 6.802-3.641 14.176-4.031 15.917-4.558 17.543-6.664 20.635-6.917 10.214-29.933 9.893-31.811-.436-.412-2.313 4.535-28.168 6.733-35.199.115-.367 12.047-.183 12.047.183zm153.325 0c6.894 1.512 9 7.077 5.817 15.275-3.206 8.222-9.893 11.909-21.733 11.909-3.573 0-3.298-.549-5.611 10.649-.435 2.13-.848 4.1-.916 4.352-.161.732-10.81.732-10.695 0 9-38.589 9.71-41.91 9.779-42.185l.114-.504 10.833.069c8.656.069 11.13.16 12.412.435zm-92.499 14.84c1.443.367 2.611 1.512 2.611 2.542 0 3.733-7.672 6.298-10.466 3.504-2.863-2.862 2.908-7.282 7.855-6.046zm-26.612 2.84c0 .366-.091.962-.183 1.305l-.183.619 1.809-.916c4.764-2.405 9.436-1.993 10.97 1.007.939 1.787.824 2.863-1.58 14.016-.435 2.015-.985 4.695-1.191 5.954-.527 3.023-.137 2.817-5.496 2.909-4.581.069-4.581.069-4.535-.435.023-.252.573-2.725 1.191-5.497 2.45-10.695 2.496-12.206.389-12.206-1.168 0-2.84.71-2.954 1.237-.229 1.03-2.954 14.084-3.206 15.367l-.275 1.374-4.695.16c-5.702.183-5.29.641-4.031-4.557 1.604-6.596 2.565-11.268 3.207-15.39.71-4.535.229-4.031 4.511-4.718 1.947-.298 3.939-.641 4.443-.779 1.489-.343 1.832-.252 1.809.55zm71.224-.114c0 .32-.091.916-.183 1.305l-.183.756 1.809-.916c9.344-4.833 12.939-.848 10.191 11.336-.618 2.771-1.42 6.573-1.763 8.473-.344 1.878-.756 3.55-.893 3.71-.527.527-9.413.504-9.367-.045.023-.252.549-2.68 1.191-5.382 2.519-10.924 2.542-12.344.343-12.367-1.763 0-2.748.595-3.046 1.901-.389 1.626-2.656 12.504-3.046 14.474l-.297 1.603-4.695.137c-5.726.16-5.268.733-3.916-4.855 1.442-5.932 2.61-11.588 3.229-15.665.572-3.87.16-3.435 3.893-4.007 1.695-.275 3.71-.619 4.466-.802 1.901-.412 2.29-.366 2.267.344zm91.148-.252c.55 9.206.733 11.885.825 12 .068.092 1.374-2.244 2.862-5.222 3.046-6.023 2.382-5.359 5.726-5.839.893-.138 2.679-.458 3.984-.71 3.275-.665 3.298-.894-.503 5.656-5.13 8.863-12.207 21.322-14.703 25.856-7.626 13.97-7.58 13.901-14.13 14.039l-3.848.091.344-1.122c.183-.595.549-1.855.824-2.771l.504-1.649h1.191c1.374 0 1.626-.229 2.908-2.404.458-.756 1.145-1.947 1.558-2.634.435-.687 1.878-3.183 3.206-5.542l2.45-4.26-.641-5.588c-.733-6.504-1.695-14.039-2.084-16.397-.343-2.062-.343-2.039 2.359-2.451 1.191-.183 3.092-.527 4.214-.779 2.404-.503 2.794-.549 2.954-.274zm-113.088.274c11.589 2.13 7.512 22.261-5.061 25.055-8.519 1.9-14.359-1.352-14.359-8.016-.023-11.542 8.519-19.054 19.42-17.039zm86.316.527c.641.275 1.466.893 1.878 1.351.687.779.733.802.802.321.091-.595.023-.573 6-1.557 4.855-.779 4.649-.802 4.305.664-2.015 8.428-3.641 15.756-4.282 19.329-.985 5.359-.252 4.786-6.092 4.717l-4.901-.068.069-.642c.069-.618-.252-.847-.527-.389-1.695 2.725-9.756 1.58-12.023-1.695-5.726-8.336 6.16-26.062 14.771-22.031zm-107.706 4.397c.069.069 0 .71-.183 1.42-1.145 4.809-3.343 14.497-3.687 16.306l-.412 2.176-4.924.137c-5.909.16-5.542.435-4.374-3.092 1.099-3.412 2.084-7.717 2.771-12.16.572-3.825-.023-3.275 4.283-3.916 1.992-.298 4.03-.642 4.534-.756 1.122-.252 1.832-.298 1.992-.115zm26.291 31.009c0 .137-.297.779-.687 1.443-.366.687-.687 1.305-.687 1.374 8.863.16 9.184.183 9.069.549l-1.58 5.336h-12.848l-.71.665c-1.603 1.534-10.42 3.458-10.42 2.267l1.626-5.451h1.191c2.038 0 2.565-.435 4.351-3.618l1.558-2.794c7.511 0 9.137.091 9.137.229zm19.696.046c0 .16-.206.962-.458 1.786-.252.824-.458 1.557-.458 1.649 0 .069.755-.367 1.671-.985 3.321-2.198 6.092-2.725 14.566-2.725 3.366 0 6.183.046 6.252.114.206.229-4.809 16.535-5.542 17.978-.985 1.947-2.038 3.023-3.71 3.802l-1.443.664-8.588.114-8.588.115-1.535 5.038c-2.977 9.688-3.068 9.046 1.329 8.611 3.504-.343 3.275-.664 2.198 2.977l-.916 3.069-4.42.069c-9.481.16-10.718-.412-9.687-4.397.504-1.924 11.267-37.673 11.428-37.948.229-.344 7.901-.275 7.901.069zm39.39-.069c0 .114-.16.641-.343 1.168-.504 1.443-.504 1.443 1.443.458 2.565-1.305 8.542-1.832 20.84-1.832h3.939v1.809c0 2.13.115 2.267 2.015 2.496l1.374.161-.824 2.679-.802 2.703-2.656.045c-6.871.138-8.016-.526-8.061-4.626v-1.946l-.459 1.419-.458 1.443h-1.465c-.825 0-1.489.046-1.489.115s-7.305 24.39-8.382 27.871c-.114.343.023.412.893.412 1.283 0 1.329.069.939 1.191-.458 1.328-.458 1.328 1.122 1.328 1.031 0 1.718-.137 2.451-.526 1.076-.527.985-.436 5.794-7.214l1.992-2.794h-4.076c-4.878 0-4.512.274-3.618-2.703l.732-2.45 4.947-.069 4.924-.046c.939-3.137 1.214-4.122 1.214-4.191 0-.091-2.153-.183-4.764-.206l-4.763-.069.801-2.702.779-2.679h13.489c7.397 0 13.466.068 13.466.16 0 .114-.344 1.305-.756 2.702l-.756 2.519-4.557.115-4.534.115c-.779 2.313-1.077 3.252-1.168 3.595l-.138.641h4.329c5.107 0 4.763-.229 3.824 2.771l-.733 2.382-4.946.069-4.97.046-.71.916-.71.893 1.901.069 1.901.068.572 3.619c.641 4.076.619 4.053 2.588 4.053 1.557 0 1.512-.32.458 3.252l-.87 2.932h-2.817c-4.97 0-5.886-.802-6.687-5.817l-.504-3.367-1.809 2.474c-4.924 6.778-5.199 6.939-11.588 6.939-4.031 0-3.985.023-3.504-1.237.206-.595.206-.595-.985-.595-1.214 0-1.214 0-1.443.847l-.206.87-4.191.069-4.191.046.137-.504c.413-1.466 1.237-1.328-8.015-1.328-7.878 0-8.382-.023-8.268-.413l.825-2.633c.847-2.771.779-2.68 1.717-2.68.71 0 .779-.069 1.123-1.099 7.122-23.612 9.366-31.009 9.664-32.062l.573-1.878h4.236c2.313 0 4.214.091 4.214.206zm-53.2 12.894l-1.603 5.221h-9.068999999999999c-.916 2.931-1.237 3.962-1.305 4.168-.115.389.206.412 4.465.412 2.542 0 4.604.092 4.604.207 0 .091-.092.48-.229.847-.115.366-.481 1.557-.802 2.656l-.595 2.016h-9.298l-1.054 3.527c-1.557 5.107-1.397 5.267 4.374 4.442 2.382-.32 2.29-.526 1.237 2.932l-.893 2.954h-6.275c-9.825 0-10.008-.229-7.42-8.794.824-2.679 1.488-4.924 1.488-4.97 0-.045-1.122-.091-2.519-.091-1.374 0-2.519-.069-2.519-.138 1.099-3.755 1.466-4.969 1.511-5.198.115-.344.436-.39 2.726-.39h2.588l1.259-4.58h-2.45c-1.832 0-2.428-.069-2.428-.298 0-.297 1.351-4.717 1.535-5.038.183-.321 22.809-.206 22.672.115zm29.062 10.878c-.069.229-.275 1.145-.458 2.015-.87 4.191-2.061 5.13-6.962 5.405-1.695.091-3.115.229-3.206.298-.367.389-.321 4.03.068 4.626l.39.595 2.954-.16c1.626-.092 2.954-.138 2.954-.092 0 .252-1.603 5.519-1.74 5.748-.229.367-9.504.092-10.718-.32-1.855-.618-1.832-.412-1.603-9.848l.206-8.313 3.847-.069 3.825-.046v3.207h1.489c1.694 0 1.832-.138 2.519-2.245l.389-1.191h3.069c2.84 0 3.092.023 2.977.39zM195.669 119.577l-1.626 7.145 2.267.069c11.497.321 16.375-13.008 5.107-13.924-1.763-.138-3.412-.298-3.664-.344-.435-.091-.572.435-2.084 7.054zM135.896 129.814c-2.908 1.168-5.519 11.977-3.32 13.672 1.648 1.283 4.03-.847 5.175-4.626 2.107-7.031 1.42-10.374-1.855-9.046zM225.35 130.547c-3.001 1.511-5.314 12.138-2.932 13.374 3.046 1.58 6.825-4.076 6.825-10.237 0-2.931-1.649-4.259-3.893-3.137zM164.775 166.273l-.801 2.68c-.413 1.305-.779 2.519-.848 2.679-.069.183.733-.137 1.786-.687 2.932-1.557 3.917-1.763 8.268-1.901l3.824-.137c.55-1.855.71-2.519.71-2.657 0-.389-12.802-.343-12.939.023zM162.141 174.861l-.664 2.359 12.871-.114.824-2.405c-10.099 0-13.031.069-13.031.16zM202.883 169.434c-.572 1.877-.985 3.435-.916 3.435.069 0 .916-.298 1.855-.664.939-.367 2.496-.779 3.435-.916.939-.161 1.718-.298 1.741-.321.069-.069 1.466-4.672 1.466-4.832 0-.069-1.466-.138-3.275-.138h-3.275l-1.031 3.436zM200.547 177.151c-.046.115-.549 1.672-1.076 3.504s-1.008 3.39-1.054 3.458c-.045.092.733-.206 1.764-.641 1.007-.435 2.588-.939 3.504-1.099 2.015-.344 2.107-.389 2.267-1.191.092-.366.412-1.443.71-2.428l.55-1.763h-3.275c-1.81 0-3.344.069-3.39.16zM195.349 194.442l6.549.183c1.329-4.489 1.787-5.931 1.855-6.092l-6.549-.32z"/></g></svg>