<svg xmlns="http://www.w3.org/2000/svg" width="300" height="300" viewBox="0, 0, 300, 300"><path d="M191.406 26.698l-11.224 15.76-32.954.239-32.954.478-2.866 12.895c-1.433 7.164-2.149 14.089-1.671 15.044.716.956 11.94 1.911 24.835 1.911h23.88l-34.626 48.237-34.626 48.476 29.133 1.194 29.373 1.194-.239 5.97c-.239 3.344-5.015 19.104-10.507 35.104l-10.269 29.372h-31.521c-26.029 0-31.999-.716-33.193-3.582-.717-1.91 1.91-18.387 5.731-36.536 3.821-17.91 9.791-46.088 13.134-62.327 3.343-16.238 5.731-31.044 5.015-32.715-.955-2.627-7.642-3.343-28.895-3.343-26.984 0-27.701 0-29.85 5.731-1.194 3.343-2.388 8.835-2.865 12.656-.717 5.731.238 6.687 5.97 7.403 3.582.478 6.447 2.149 6.447 3.582 0 1.672-4.298 22.686-9.791 47.043-13.85 63.282-13.134 72.595 5.97 86.923 6.448 4.776 9.791 5.015 114.624 5.731 89.311.478 108.654 0 110.803-2.626 1.671-1.911 3.104-8.597 3.343-15.045l.716-11.701-60.177-1.194-60.416-1.194 24.596-31.044c13.612-17.193 32.954-41.551 42.984-54.446 11.701-15.044 18.387-21.969 18.387-18.865 0 3.821-8.119 42.984-16.716 80.236-1.194 5.254-1.671 10.269-.955 11.463.717.955 13.612 1.91 28.656 1.91 26.746 0 27.462 0 29.611-5.731 1.194-3.343 2.388-8.836 2.866-12.656.716-5.731-.239-6.687-5.731-7.403-3.821-.478-6.687-1.433-6.687-2.388 0-.955 5.493-26.507 11.94-56.595 6.448-30.328 11.94-59.223 11.94-64.476 0-14.567-6.686-25.313-20.298-32.716-10.984-5.97-14.089-6.686-38.685-6.686-14.806 0-26.984-.478-26.984-1.194 0-.478 1.671-5.97 3.82-11.94 5.97-17.91 2.866-18.626-9.074-2.149zm44.655 52.058c3.344 5.015 3.344 7.403 0 23.163-6.686 30.567-3.82 28.418-37.73 28.418-16.238 0-30.089-.717-31.044-1.433-1.194-1.194 6.925-26.985 15.522-49.432 2.388-6.447 2.627-6.447 26.029-6.447 22.209 0 23.641.239 27.223 5.731zm-179.338-33.91c-2.627 4.299-10.029 39.88-8.597 41.313 1.911 1.91 39.641 1.433 42.507-.717 2.865-1.91 10.984-38.446 9.074-41.312-1.91-3.343-41.073-2.627-42.984.716z"/></svg>