<svg xmlns="http://www.w3.org/2000/svg" width="300" height="300" viewBox="0, 0, 300, 300"><path d="M62.74 89.51l-6.165 11.233-13.835.411c-12.74.274-13.973.548-13.973 3.014 0 3.424 3.562 5.205 12.74 6.301 6.164.685 7.397 1.37 6.849 3.151-1.918 5.068-16.986 24.52-26.712 34.383-5.891 5.891-10.685 10.959-10.685 11.507 0 .411 1.644.822 3.836.822 4.52 0 13.835-4.109 20.137-9.041 4.246-3.288 4.794-3.288 5.616-1.233.548 1.37 0 6.85-1.233 12.192-1.233 5.342-3.288 14.932-4.52 21.37-1.918 9.863-6.576 24.794-10.822 34.794-1.096 2.329-.685 2.603 4.657 1.781 11.096-1.37 19.041-8.904 21.37-20.137 1.781-8.63 9.863-24.246 15.753-30.685 9.179-10 26.987-17.26 41.918-17.26 4.521 0 4.658.137 4.658 5.343v5.205l-11.37.685c-7.123.548-13.836 1.781-17.671 3.562-18.904 8.356-19.452 32.465-.822 43.698 7.534 4.658 14.657 6.576 30.274 8.356l9.178 1.096 1.37-5.205c.822-2.877 1.917-8.767 2.465-13.014.959-7.671 1.096-7.945 5.069-7.808 2.329.137 8.63 2.877 14.246 6.027 11.781 6.713 30.685 14.247 45.343 17.945 15.068 3.973 41.096 4.932 57.534 2.055 21.096-3.698 41.096-14.794 41.096-22.739 0-2.055-1.781-1.507-11.37 3.424-16.164 8.356-28.63 10.822-49.452 9.863-12.329-.548-19.726-1.644-28.904-4.383-14.247-4.11-32.055-12.329-33.151-15.206-.411-.959 1.233-4.109 3.425-6.712 6.712-7.534 7.671-21.644 1.918-29.315-2.877-3.973-13.425-12.466-15.48-12.466-1.643 0-3.561 4.932-4.657 12.74-.959 5.89-.685 6.438 2.329 7.671 4.109 1.507 10.685 9.041 10.685 12.329 0 3.972-4.11 8.356-7.809 8.356-3.424 0-20-8.082-23.561-11.644-1.644-1.507-1.644-3.288-.411-9.726 2.465-11.644 2.055-28.082-.548-31.781-1.096-1.644-5.069-4.657-8.767-6.438-6.028-3.014-8.493-3.425-22.192-3.425-8.493 0-20.685.959-27.123 2.055-6.439 1.096-11.781 2.055-11.918 2.055-1.644 0 .274-4.384 3.835-8.493 5.343-6.576 9.178-7.535 34.795-8.631 27.945-1.232 44.52-4.246 42.329-7.808-.548-.685-12.603-1.233-27.809-1.096-37.534.274-35.753.411-35.753-2.465 0-1.37.959-3.836 2.192-5.48 2.603-3.835 1.781-5.068-6.165-9.178l-6.575-3.288-6.164 11.233zm48.082 43.973c1.644 1.507 2.877 3.014 2.877 3.425 0 .548-5.754 2.054-12.603 3.287-12.466 2.329-23.151 6.713-35.206 14.11l-6.027 3.835.685-8.767c.685-9.863 1.644-10.822 14.657-16.027 10.137-4.11 30.959-3.973 35.617.137zm-5.343 48.082c3.288 3.973-1.643 25.343-5.753 25.343-5.616 0-14.794-10.274-14.794-16.713 0-2.876 4.109-7.945 7.397-9.315 4.657-1.918 11.233-1.507 13.15.685zm142.055-97.534c-1.096 1.781-5.205 6.712-9.178 10.959-10.274 11.37-14.246 10.411-15.342-3.425-.411-4.383-1.096-8.356-1.507-8.904-.548-.548-3.973.274-7.534 1.781l-6.439 2.74.411 7.534.548 7.671-6.575.959c-3.562.411-8.767.822-11.781.822-5.753 0-8.082 2.74-5.206 6.164 1.37 1.644 5.206 2.055 16.987 2.055 8.356 0 16.164.685 17.26 1.37 3.973 2.466-.548 6.027-13.425 10.274-6.849 2.192-13.013 4.657-13.698 5.479-.685.685-3.562 14.11-6.439 29.726-4.246 23.151-4.794 28.904-3.424 30.548 2.329 2.74 21.644 8.767 34.383 10.548 15.069 2.055 37.535-.685 40.411-5.068 1.096-1.644 3.836-13.425 6.165-26.165 6.301-34.794 6.301-32.328 1.233-38.082-6.028-6.712-8.768-8.082-19.179-8.904-6.849-.685-9.041-1.37-9.315-3.151-.822-4.109 5.617-6.575 22.877-8.63 17.808-2.192 26.849-4.931 25.754-7.808-.411-1.37-3.836-1.644-13.014-1.233-10.822.411-12.74.137-13.425-1.918-.548-1.507.548-3.835 3.562-6.849l4.52-4.795-7.808-3.424c-4.246-1.918-7.945-3.425-8.219-3.425-.274 0-1.37 1.37-2.603 3.151zm-12.055 44.931c12.877 2.74 14.521 10.822 2.192 10.822-3.287 0-11.507 1.507-18.356 3.288-6.849 1.781-12.74 2.877-13.151 2.466-1.78-1.781-.411-8.63 2.329-11.233 1.644-1.507 3.288-2.74 3.699-2.74.411-.137 3.972-.959 7.671-2.055 8.63-2.328 7.534-2.328 15.616-.548zm9.726 25.343c3.562 3.561-1.232 6.164-14.246 7.671-6.438.685-15.206 2.466-19.452 3.836-9.726 3.424-10.137 3.424-10.137 0 0-4.658 7.123-11.096 14.383-13.151 8.357-2.329 26.439-1.37 29.452 1.644zm-4.383 24.52c.411 5.617-1.096 7.535-7.397 9.041-8.494 1.918-34.795-1.095-34.795-4.109 0-1.781 4.521-5.343 9.589-7.534 3.425-1.507 8.63-2.055 18.493-1.781l13.699.274.411 4.109zm-81.781-64.109c-.822 4.246-1.507 8.493-1.507 9.452 0 .959 4.521 4.931 10 8.767l9.863 6.986.411-4.383c1.096-9.863-3.698-18.904-13.287-25.754l-3.836-2.739-1.644 7.671z"/></svg>