<svg xmlns="http://www.w3.org/2000/svg" width="300" height="300" viewBox="0, 0, 300, 300"><path d="M25.216 63.53c-3.018 1.113-5.098 3.486-5.42 6.269-.381 3.34-.235 3.662 11.25 23.233 5.83 10.019 10.635 18.369 10.635 18.574 0 .176-1.846 4.453-4.102 9.492-2.285 5.039-4.336 9.961-4.6 10.928-1.201 4.687.909 8.349 5.596 9.726 3.604 1.084 6.065.117 8.408-3.281 1.143-1.641 28.887-63.047 29.444-65.127.527-2.021.527-3.047-.03-4.893-.556-1.875-2.343-3.574-4.599-4.423-5.127-1.905-8.174-.703-10.459 4.16-.615 1.318-3.399 7.471-6.182 13.711-2.812 6.269-5.156 11.367-5.244 11.367-.117-.029-3.545-5.859-7.646-12.979-5.948-10.283-7.793-13.271-9.083-14.56-2.373-2.432-5.214-3.223-7.968-2.197zm70.664.41c-6.709 1.465-12.686 5.537-16.699 11.338-8.086 11.689-6.709 28.799 3.105 38.613 5.039 4.98 11.133 7.324 19.014 7.295 8.203-.059 14.384-2.549 19.394-7.793 3.662-3.867 5.977-8.731 6.973-14.824.674-4.014.498-10.547-.41-13.828-2.725-10.079-9.815-17.579-19.219-20.332-3.604-1.055-8.613-1.26-12.158-.469zm9.58 14.092c3.486 1.611 6.387 5.507 7.558 10.107.938 3.691.323 9.785-1.259 12.949-4.043 7.881-12.217 9.903-18.047 4.453-6.563-6.123-6.885-18.222-.674-24.814 3.662-3.838 7.998-4.775 12.422-2.695zm28.857-12.276c-1.435.44-3.134 2.285-3.75 4.102-.527 1.465-.556 2.724-.556 17.842 0 15.937 0 16.318.673 18.75.352 1.376 1.055 3.339 1.553 4.335 1.114 2.315 4.131 5.567 6.416 6.944 6.24 3.779 16.319 4.863 24.99 2.666 7.53-1.934 12.247-6.358 14.327-13.506.673-2.314.673-2.461.673-19.189 0-16.495 0-16.875-.615-18.165-.879-1.904-2.314-3.164-4.189-3.72-3.281-.938-6.768.322-8.145 2.959-1.025 1.992-1.084 2.724-1.23 18.486l-.176 15.82-.762 1.612c-1.084 2.343-2.373 3.662-4.599 4.746-1.787.879-2.198.967-4.6.937-2.256 0-2.9-.117-4.482-.82-2.139-.996-3.604-2.49-4.717-4.834l-.762-1.641-.146-16.113-.147-16.113-.879-1.758c-1.289-2.578-2.724-3.486-5.654-3.574-1.231-.029-2.695.058-3.223.234zm101.485.117c-1.494.528-2.637 1.67-3.457 3.487l-.674 1.494v16.846c0 16.728 0 16.875.674 19.189 2.783 9.58 10.664 14.502 23.349 14.531 6.035.03 11.28-1.084 15.147-3.164.849-.439 2.49-1.728 3.633-2.812 2.49-2.344 4.101-5.186 5.156-8.994.674-2.461.674-2.666.674-18.897v-16.406l-.674-1.465c-1.143-2.49-2.842-3.779-5.449-4.131-2.198-.322-4.19.352-5.743 1.904-2.197 2.227-2.138 1.729-2.314 19.659l-.176 15.966-.762 1.641c-.996 2.109-2.812 3.926-4.921 4.893-1.407.673-2.022.791-4.424.791-2.403 0-3.018-.118-4.395-.762-2.051-.967-3.691-2.608-4.658-4.658l-.762-1.612-.146-15.966c-.176-17.227-.176-17.08-1.787-19.512-1.026-1.465-3.164-2.461-5.362-2.461-.996.029-2.285.205-2.929.439zm-50.01.235c-1.729.644-2.813 1.582-3.516 3.076-.674 1.348-.703 1.699-.937 12.217-.117 5.947-.176 16.259-.147 22.881l.088 12.011.879 1.729c.733 1.435 1.143 1.846 2.344 2.461 1.26.674 1.816.761 4.394.761 2.461 0 3.135-.117 4.161-.644 2.988-1.611 3.31-2.9 3.31-13.477 0-4.57.059-8.291.147-8.291.117 0 5.127 4.571 11.162 10.166 6.123 5.684 11.572 10.518 12.334 10.928 1.816.967 4.834 1.172 6.738.44 3.105-1.202 4.365-3.34 4.131-7.09-.235-3.838-.557-4.248-9.58-12.569-4.336-4.013-7.91-7.441-7.91-7.588-.03-.175 2.255-2.431 5.039-5.039 8.877-8.349 9.14-8.642 10.166-10.605.527-1.055.996-2.52 1.084-3.398.322-3.106-1.465-6.182-4.483-7.647-1.377-.674-1.875-.762-3.428-.645-.996.088-2.431.44-3.134.792-.938.468-4.366 3.75-11.778 11.25l-10.459 10.605-.029-7.969c0-4.511-.146-8.613-.322-9.433-.41-1.905-1.699-3.662-3.252-4.453-1.582-.821-5.391-1.055-7.002-.469zm-108.164 89.941c-4.131 13.096-10.606 26.045-18.604 37.237-2.431 3.427-2.461 3.486-1.875 3.955.323.263 2.11 1.845 3.985 3.515 3.222 2.871 3.457 3.018 3.838 2.49.234-.322 1.523-2.109 2.841-3.984l2.432-3.398.088 20.478.059 20.479h10.517l.088-2.901.088-2.929 3.955 2.959 3.926 2.959 1.875-2.022c10.195-11.045 15.879-20.537 19.248-32.08 1.113-3.896 2.285-9.639 2.783-13.74.615-5.303.498-4.981 1.641-4.981h.996v20.86c0 13.095.117 21.591.322 22.763.674 4.16 2.49 6.475 6.064 7.705 1.846.645 2.403.674 9.288.674 6.914 0 7.441-.029 9.287-.674 3.574-1.23 5.83-3.955 6.943-8.32.615-2.344 2.021-13.594 1.729-13.857-.088-.088-2.374-.791-5.098-1.582-4.336-1.231-4.981-1.348-5.127-.938-.088.264-.264 1.641-.381 3.106-.41 5.654-1.084 10.488-1.641 11.543-.82 1.611-1.992 2.138-5.097 2.285-3.164.146-4.424-.323-5.215-1.963-.498-.938-.527-2.578-.527-21.328v-20.274h20.507v-9.082h-32.812v-22.558l-5.332.058-5.361.088-.088 11.192-.059 11.22-9.023.059-8.995.088-.087 4.453-.088 4.482h17.9v1.114c0 3.398-1.553 11.748-3.076 16.406-2.725 8.437-9.111 18.369-16.377 25.547l-2.227 2.168v-51.123l1.582-3.575c2.872-6.504 6.651-17.871 6.123-18.398-.175-.176-9.609-3.809-9.843-3.779-.03 0-.557 1.611-1.172 3.603zm142.764 2.988v6.299h-3.37c-3.017 0-3.369-.058-3.369-.527 0-.264.205-1.816.44-3.428.234-1.611.439-3.34.439-3.838v-.908l-2.695-.205c-1.494-.117-3.604-.264-4.658-.352l-1.934-.175-.205 2.724c-.264 3.516-1.611 11.543-2.959 17.491-.557 2.548-1.025 4.863-1.025 5.097 0 .352.937.645 4.13 1.231 2.286.439 4.19.761 4.219.703.029-.059.586-2.168 1.172-4.717l1.113-4.629 4.278.088 4.277.088.088 5.918.059 5.947h-17.901l.088 4.307.088 4.336 21.767.088 21.739.058v-8.789h-15.821v-12.012h13.213l-.088-4.189-.087-4.16-6.504-.088-6.534-.059v-12.597h-9.96v6.298zm-95.655-2.461c-2.373 2.696-2.783 3.311-2.461 3.604.235.205 1.524 1.289 2.901 2.373 1.377 1.113 4.775 4.014 7.588 6.416l5.097 4.365 2.315-2.461c3.34-3.574 4.394-4.892 4.218-5.185-.439-.733-16.054-12.363-16.582-12.363-.146 0-1.523 1.464-3.076 3.251zm30.615 2.461v4.541h13.477v9.375h-13.477l.059 29.063c.088 31.934 0 30 1.816 31.963 2.168 2.344 4.747 2.637 21.944 2.461 15.498-.117 16.025-.205 18.222-2.403 2.139-2.138 2.022-.293 2.139-32.285l.088-28.799-6.387-.058-6.386-.088-.088-4.629-.088-4.6h12.92v-9.082h-44.239v4.541zm23.731 9.229v4.687h-2.637v-9.375h2.637v4.688zm-10.254 15.381c0 6.299-1.875 14.414-3.926 16.992-.41.527-.439-.205-.469-9.17v-9.726h4.395v1.904zm10.313 5.947l.087 7.852.967 1.933c1.524 3.076 3.604 4.453 7.53 4.981l2.49.351v5.157h-25.782v-7.295l3.077 1.787c3.515 2.021 3.486 2.05 4.804-.616 2.315-4.658 4.131-13.3 4.131-19.804v-2.197h2.608l.088 7.851zm11.074.234v8.086l-.938-.175c-2.197-.44-2.578-1.934-2.578-10.166v-5.83h3.516v8.085zm0 32.051c0 2.197-.147 4.072-.323 4.512-.732 1.553-1.347 1.641-12.626 1.641-9.727 0-10.401-.03-11.28-.586-1.23-.733-1.553-1.963-1.553-6.094v-3.281h25.782v3.808zm15.029-6.826c.059 11.69.176 15.762.469 16.641.615 1.875 2.519 3.486 4.892 4.131 1.846.498 3.135.556 14.034.556 10.927 0 12.187-.058 14.033-.556 1.611-.44 2.314-.821 3.252-1.758 2.051-2.051 1.992-1.758 2.109-19.014l.117-15.439h-39.023l.117 15.439zm28.623 1.611c0 9.756-.117 10.313-2.051 10.987-1.406.468-12.949.468-14.355 0-1.934-.674-2.051-1.231-2.051-10.987v-8.554h18.457v8.554z"/></svg>