<svg xmlns="http://www.w3.org/2000/svg" width="300" height="300" viewBox="0, 0, 300, 300"><path d="M172.819 29.916c-.428.999-3.855 19.133-5.521 29.176-.381 2.332-.905 4.76-1.143 5.331l-.475 1.094h-61.685l-.856 4.379c-5.188 27.32-13.898 68.824-14.66 69.728-.381.476-7.044.619-30.414.619-16.468 0-29.937.143-29.937.333 0 .19-1.714 8.044-3.808 17.515-6.663 30.033-9.424 42.837-9.281 42.979.095.095 13.469.143 29.7.095 27.129-.047 29.604.048 29.89.762.143.428-1.238 8.186-3.094 17.277-1.856 9.043-4.998 24.369-6.949 33.984-1.999 9.614-3.617 17.61-3.617 17.705 0 .143 29.271.238 65.111.238h65.063l.905-3.903c.476-2.189 1.38-6.187 1.951-8.948.619-2.76 2.523-11.327 4.236-19.038 3.332-15.135 8.187-36.791 8.758-39.504l.38-1.666 20.181-.238 20.181-.238 3.046-10.471c1.666-5.759 3.141-10.947 3.284-11.518l.238-1.095h-55.544l-2.571 11.042c-1.38 6.092-4.616 20.514-7.187 32.032-2.617 11.518-5.187 22.941-5.711 25.321l-1.047 4.426h-98.904v-1.047c0-.571.381-2.903.809-5.235l.809-4.189h86.196l1.333-6.282c.761-3.475 3.046-14.041 5.14-23.465 2.142-9.424 5.093-22.989 6.663-30.176 1.571-7.139 2.951-13.184 3.094-13.422.143-.238 15.231-.428 34.269-.428 18.705 0 33.984-.095 33.984-.286 0-.143 1.38-5.045 3.093-10.899 1.714-5.854 3.094-10.852 3.094-11.138 0-.38-11.899-.523-41.599-.523-39.219 0-41.646.047-41.884.809-.143.476-1.333 5.664-2.618 11.566-1.332 5.902-3.569 15.944-5.045 22.37-1.475 6.425-2.951 13.279-3.379 15.23-.619 2.951-3.76 17.183-4.712 21.276l-.238 1.094h-72.489l.334-2.712c.19-1.524.571-4.046.904-5.617l.571-2.856 28.986-.142c15.992-.048 29.129-.191 29.224-.333.095-.096 1.142-4.522 2.284-9.853 2.666-12.184 10.614-48.31 10.995-49.785l.238-1.047h-29.319c-23.036 0-29.414-.143-29.557-.619-.143-.285.381-3.665 1.095-7.472l1.332-6.902 44.455-.143 44.502-.095 3.76-17.277c2.094-9.472 3.998-17.515 4.236-17.849.333-.428 7.758-.571 34.079-.571h33.65l2.475-8.71c1.38-4.759 2.903-10.09 3.379-11.899l.952-3.189h-84.53l-.571 2.713c-.286 1.523-1.714 9.186-3.142 17.04-1.427 7.853-2.713 14.754-2.855 15.326l-.238 1.094h-76.154l.191-1.094c.143-.572.714-3.189 1.237-5.807.524-2.618 1.095-5.14 1.238-5.569.238-.809 2.237-.857 30.794-.952l30.509-.143.333-1.427c.191-.81 1.904-8.663 3.808-17.516l3.474-16.039h95.906l.524-2.047c.523-1.999 5.521-19.8 5.997-21.418.238-.762-2.618-.809-55.735-.809h-55.925l-.476 1.047zm-89.29 135.457c.095.191-.19 1.857-.666 3.665-.476 1.857-1.142 4.236-1.428 5.331l-.524 2.047h-23.274c-12.851 0-23.322-.096-23.322-.191 0-.666 4.522-10.566 4.95-10.852.714-.476 43.979-.476 44.264 0zm60.256.143c0 .286-.999 2.856-2.189 5.712l-2.237 5.188h-21.323c-11.756 0-21.37-.096-21.37-.238 0-1.143 2.665-10.567 3.046-10.805.904-.618 44.073-.476 44.073.143z"/></svg>