<?xml version="1.0" encoding="UTF-8"?>
<!DOCTYPE svg PUBLIC "-//W3C//DTD SVG 1.1//EN" "http://www.w3.org/Graphics/SVG/1.1/DTD/svg11.dtd">
<svg version="1.1" xmlns="http://www.w3.org/2000/svg" xmlns:xlink="http://www.w3.org/1999/xlink" x="0px" y="0px" width="320" height="320" viewBox="0, 0, 320, 320">
  <g id="Layer 1">
    <g>
      <path d="M148.307,16.341 C132.748,18.336 121.578,21.128 115.195,22.724 C82.083,32.299 46.578,63.017 31.02,95.331 C25.833,107.299 25.036,109.692 24.238,111.687 C21.844,118.469 17.855,133.23 17.855,136.022 C15.86,151.182 15.461,165.942 17.057,175.517 C19.45,191.474 19.849,194.267 20.647,196.261 C23.041,204.639 25.833,212.618 27.03,215.41 C28.626,219.799 33.014,228.176 35.408,232.166 C38.599,237.352 43.387,244.134 46.977,249.32 C50.567,254.107 62.934,266.474 66.924,269.666 C68.918,271.261 70.913,272.857 71.312,273.256 C82.881,284.027 109.211,295.995 129.557,300.384 C146.711,303.974 167.855,304.772 182.615,301.98 C206.95,297.591 230.887,287.618 245.248,275.65 C256.418,266.873 266.791,256.501 271.179,251.315 C274.77,246.527 278.36,241.341 283.147,234.16 C287.137,228.176 294.716,211.82 294.716,209.426 C294.716,208.23 273.174,208.23 272.775,209.027 C272.775,209.426 273.573,211.421 274.371,213.815 C276.365,218.203 276.365,217.804 272.775,223.389 C256.02,248.123 254.424,250.916 252.828,252.91 C248.041,260.49 246.844,262.086 245.647,262.485 C243.653,263.283 75.301,262.884 74.105,262.086 C73.706,261.687 72.509,260.091 71.312,258.097 C49.77,227.378 48.573,225.384 46.977,223.389 C43.786,219.001 43.786,219.001 45.381,215.41 C46.977,210.623 51.365,200.251 51.365,199.852 C112.004,50.65 114.796,43.868 115.594,41.873 C116.791,38.682 119.583,32.698 119.982,33.097 C120.381,33.495 127.961,51.049 127.961,51.448 C155.488,118.469 157.083,122.059 158.28,124.453 C159.078,127.245 160.275,129.639 160.674,129.639 C161.073,129.639 163.865,124.054 170.248,107.698 C191.791,53.841 192.589,52.245 192.589,51.847 C194.184,46.261 200.168,32.299 200.966,32.299 C201.365,32.299 203.759,37.485 205.355,41.474 C227.695,97.325 228.493,99.32 229.291,101.714 C231.286,105.703 234.477,114.081 235.674,117.671 C236.871,120.464 234.078,120.065 267.988,120.065 L297.908,119.666 C297.11,112.485 287.934,92.139 280.355,80.57 C258.014,46.66 221.312,23.123 181.817,17.538 C173.839,16.341 154.291,15.942 148.307,16.341 z" fill="#000000"/>
      <path d="M187.403,119.666 C187.004,120.464 186.206,122.059 184.211,127.245 C151.498,207.432 150.7,209.825 149.903,211.421 C147.509,217.405 147.11,217.405 145.115,211.82 C113.2,134.426 111.206,129.24 110.009,126.049 C106.817,118.07 106.817,118.07 104.424,124.453 C69.317,210.224 68.52,212.219 67.722,214.214 C66.924,216.208 66.126,218.203 66.126,218.602 C66.525,219.001 78.892,219.001 147.509,219.001 L228.493,218.602 L228.493,217.804 C201.365,150.384 198.174,143.203 195.78,136.421 C188.599,118.469 188.599,118.469 187.403,119.666 z" fill="#000000"/>
      <path d="M242.456,133.628 L271.578,133.628 C305.089,133.628 301.498,134.027 300.7,129.639 L299.903,126.448 L269.982,126.448 L240.062,126.448 z" fill="#000000"/>
      <path d="M245.248,140.41 L248.041,146.793 L275.567,147.192 L303.094,147.192 C303.094,142.405 302.695,140.809 302.296,140.809 C301.498,140.011 246.046,139.612 245.248,140.41 z" fill="#000000"/>
      <path d="M251.232,153.974 L253.626,161.155 L278.36,161.155 C299.504,161.155 303.094,161.155 303.493,160.756 C304.291,159.559 303.892,154.373 303.094,153.974 C302.296,153.575 252.03,153.575 251.232,153.974 z" fill="#000000"/>
      <path d="M256.817,167.937 C256.418,168.336 258.014,173.522 258.812,174.32 C259.61,175.118 301.897,175.118 302.695,174.32 C303.493,173.522 303.493,167.937 302.695,167.937 C301.897,167.538 256.817,167.538 256.817,167.937 z" fill="#000000"/>
      <path d="M262.004,181.501 C261.605,182.299 263.2,186.687 264.397,188.283 C264.796,188.682 267.589,188.682 282.748,188.682 L300.7,188.682 L301.897,181.102 L281.95,181.102 C266.392,181.102 262.403,181.102 262.004,181.501 z" fill="#000000"/>
      <path d="M267.589,195.464 C268.387,198.256 268.785,199.852 269.184,200.65 C269.982,202.245 269.583,202.245 284.344,202.245 L297.509,201.846 L297.908,200.65 L299.105,195.065 L283.147,195.065 C274.77,195.065 267.589,195.065 267.589,195.464 z" fill="#000000"/>
    </g>
  </g>
  <defs/>
</svg>
