<svg xmlns="http://www.w3.org/2000/svg" width="300" height="300" viewBox="0, 0, 300, 300"><g><path d="M125.592 8.841c0 .61 2.441 5.797 5.492 11.288 15.56 27.459 19.526 45.155 19.526 83.903 0 20.746-.915 41.493-2.135 46.68-1.526 7.017-.916 9.153 2.44 9.153 4.577 0 6.102-4.272 12.509-37.528 2.441-14.034 3.051-27.458 1.221-42.713-2.441-21.357-3.356-25.324-11.594-42.409-7.322-15.56-27.459-36.307-27.459-28.374zM63.657 45.148c-19.526 10.678-25.323 23.492-24.408 54.917.611 22.272 3.356 33.866 14.34 59.8 1.22 3.05-1.22 6.407-7.322 10.068-17.696 10.678-24.408 20.441-24.408 36.612 0 30.814 27.764 41.798 62.24 24.712 8.543-4.271 17.695-9.458 20.136-11.593 10.374-8.848 10.984-7.933 9.763 19.526-1.525 33.561 2.746 45.46 19.222 51.562 9.763 3.356 12.204 3.051 24.102-2.746 13.73-6.407 19.222-14.645 20.747-32.036.915-8.847 1.526-9.152 20.747-11.288 26.848-2.746 42.408-6.407 53.392-12.509 20.136-10.984 25.933-20.442 25.933-41.188 0-12.51-1.525-16.476-9.153-24.408-23.187-24.408-56.138-24.408-105.869 0-11.594 5.491-21.662 10.373-22.882 10.983-1.221.61-1.831-15.865-1.831-36.612.305-39.357-2.441-52.476-14.95-72.918-13.424-22.272-41.493-32.951-59.799-22.882zM218.952 97.624c-17.39 6.102-30.815 15.255-39.968 27.459-8.237 10.984-8.848 17.086-.915 9.763 3.966-3.966 7.322-5.796 28.984-18 13.425-7.628 34.476-7.323 50.036.61 14.035 7.017 17.696 5.797 12.204-4.272-7.322-13.424-32.95-21.356-50.341-15.56z"/></g></svg>