<?xml version="1.0" encoding="UTF-8"?>
<!DOCTYPE svg PUBLIC "-//W3C//DTD SVG 1.1//EN" "http://www.w3.org/Graphics/SVG/1.1/DTD/svg11.dtd">
<svg version="1.1" xmlns="http://www.w3.org/2000/svg" xmlns:xlink="http://www.w3.org/1999/xlink" x="0px" y="0px" width="300" height="300" viewBox="0, 0, 300, 300">
  <g id="Layer 1">
    <g>
      <path d="M155.568,28.303 C142.123,42.072 144.646,41.82 132.499,30.358 C127.669,25.78 123.308,21.959 122.803,21.851 C122.01,21.671 101.5,42.433 100.888,43.983 C146.701,87.309 151.134,91.454 154.198,94.446 C158.956,99.06 159.893,99.672 160.866,98.879 L182.169,76.64 C174.059,68.818 169.842,64.997 167.571,63.123 C162.849,59.266 162.561,58.112 165.552,55.265 L171.5,56.382 C227.009,107.891 231.911,112.396 234.074,114.343 C248.276,126.994 249.934,129.337 246.581,131.969 C243.914,134.059 244.275,134.239 235.335,125.805 C223.008,114.198 225.711,114.09 213.132,126.634 C200.768,138.997 201.201,137.952 206.139,142.458 C238.904,173.024 245.861,179.512 250.943,184.27 C262.297,194.867 260.675,194.651 268.389,186.721 C271.921,183.044 276.679,178.286 278.95,176.124 C284.321,171.005 282.807,168.302 267.776,156.227 C263.018,152.406 263.018,152.442 275.526,139.935 C288.826,126.67 289.223,128.364 267.956,109.981 C173.482,21.995 168.544,17.49 168.003,17.165 C167.319,16.769 163.714,19.977 155.568,28.303 z" fill="#000000"/>
      <path d="M72.592,72.53 L76.017,75.774 C117.721,114.919 131.165,127.319 131.814,127.571 C132.607,127.859 153.874,106.016 153.802,104.971 C101.392,55.481 95.229,49.822 94.868,49.822 z" fill="#000000"/>
      <path d="M45.559,100.97 C100.203,152.803 103.807,155.794 104.384,155.794 C105.393,155.794 127.164,133.591 126.552,133.194 C77.17,87.273 72.736,83.128 70.682,81.289 L66.969,77.901 z" fill="#000000"/>
      <path d="M27.933,118.127 L16.975,129.481 C37.593,148.585 37.412,148.405 36.655,149.775 C36.223,150.496 31.177,155.794 25.409,161.525 C14.884,172.015 13.803,173.673 16.254,175.403 C104.997,257.405 113.648,265.407 120.82,272.039 C136.284,286.421 132.391,286.349 145.836,272.58 C159.208,258.919 157.19,259.352 166.417,268.183 L178.348,278.996 L189.27,268.002 C201.273,255.891 201.021,256.252 198.209,253.837 C158.524,217.035 153.225,212.097 149.08,208.204 C140.105,199.733 142.267,199.229 129.183,212.601 L118.369,223.667 L122.334,227.308 C137.978,241.798 138.519,242.483 135.815,245.078 C133.112,247.565 131.994,247.024 123.884,239.202 C116.675,232.21 111.953,227.776 99.554,216.35 C47.289,168.194 51.29,172.375 54.534,169.419 C57.634,166.608 56.985,166.247 67.186,176.016 C72.196,180.81 76.521,184.63 76.774,184.486 C77.891,183.982 98.545,162.535 98.545,161.886 C63.869,129.049 51.037,117.082 43.396,110.089 C38.818,105.944 40.584,105.043 27.933,118.127 z" fill="#000000"/>
      <path d="M194.641,145.305 L174.023,166.68 L183.323,175.547 L233.353,222.442 L244.527,211.304 C257.828,198.003 257.683,200.634 245.788,189.677 C233.677,178.503 218.575,164.481 206.319,153.019 C196.875,144.188 195.686,143.395 194.641,145.305 z" fill="#000000"/>
      <path d="M146.124,195.119 C176.499,224.804 190.099,235.886 197.74,243.203 C206.752,251.818 204.409,252.323 217.421,238.914 L228.415,227.596 L225.279,224.748 C183.07,185.676 173.446,176.628 170.959,174.357 L168.796,172.411 z" fill="#000000"/>
    </g>
  </g>
  <defs/>
</svg>
