<svg xmlns="http://www.w3.org/2000/svg" width="300" height="300" viewBox="0, 0, 300, 300"><path d="M78.172 153.638s-.038-9.983-3.211-9.983h-22.119c.736-11.455.928-21.811.928-31.058h21.629s.833-9.538-3.626-9.428h-37.415c1.474-5.546 3.328-11.273 5.546-17.193 0 0-10.175 0-13.644 9.125-1.432 3.768-5.584 18.239-12.976 33.026 2.491-.267 10.725-.493 15.574-9.387.893-2.483 1.063-2.815 2.172-6.143h12.201c0 4.436.064 10.566-.3 17.956 0 7.04-.205 10.32-.41 13.102h-22.105c-4.963 0-6.578 9.983-6.578 9.983h27.73c-1.855 21.075-11.838 38.64-29.948 52.687 2.954 2.953 17.687-.107 21.562-3.999 0 0 9.715-8.828 15.042-29.277 7.019 8.138 12.936 15.348 17.747 21.629 2.219 2.962 4.992 6.101 4.992 6.101s3.423-11.642-.448-17.18c-3.204-3.773-11.944-14.058-15.635-17.76l-6.102 4.992c1.846-5.908 2.957-11.648 3.329-17.193h26.065zm5.546 39.903l9.902.002 3.173 11.08s15.187-11.08 17.848-11.08c2.662 0 10.402-.002 10.402-.002h10.538v-91.968h-51.863v91.968zm10.538-81.985h30.787v72.004h-11.81l-11.983 7.663-1.959-7.648-5.035-.015v-72.004zm149.188 25.443l8.875 6.656c9.61-11.828 16.444-20.883 20.52-27.176 0 0-7.06-6.453-12.533-1.819-2.314 3.729-9.097 13.839-16.862 22.339zm-44.369.556c-.372-.367-.922-1.11-1.663-2.219-7.028-9.609-10.173-15.126-14.325-18.931-4.153-3.804-12.295 1.183-12.295 1.183 4.436 5.546 9.613 12.756 15.529 21.63 1.47 2.219 2.58 3.882 3.327 4.992l9.427-6.655zm89.292 11.769c-9.129 0-60.451.431-60.451.431v-46.586c2.218 0 5.73-.181 10.537-.554 18.856-1.11 32.348-1.847 40.486-2.219 0 0 5.634-12.541-.274-15.426-4.26 0-4.951 1.705-10.679 2.112-2.364.168-76.205 7.606-107.177 8.322.735 4.071 3.385 6.962 7.193 9.114 7.202 1.574 10.554.688 22.755.315 11.455-.736 20.146-1.109 26.066-1.109v46.031h-61.561s2.095 10.538 10.233 10.538h51.328v32.722c0 6.446-5.16 10.144-11.291 9.743-6.492.054-12.029-.529-19.227-.832.921 1.831 2.919 6.636 8.908 10.071 4.554 2.22 7.458 3.033 12.002 3.033 13.631 0 21.062-7.969 20.701-20.907v-33.829h56.438c4.469-.001 4.013-10.97 4.013-10.97z"/></svg>