<?xml version="1.0" encoding="utf-8"?>
<!-- Generator: Adobe Illustrator 16.0.0, SVG Export Plug-In . SVG Version: 6.00 Build 0)  -->
<!DOCTYPE svg PUBLIC "-//W3C//DTD SVG 1.1//EN" "http://www.w3.org/Graphics/SVG/1.1/DTD/svg11.dtd">
<svg version="1.1" id="black" xmlns="http://www.w3.org/2000/svg" xmlns:xlink="http://www.w3.org/1999/xlink" x="0px" y="0px"
	 width="920px" height="545px" viewBox="0 0 920 545" enable-background="new 0 0 920 545" xml:space="preserve">
<g id="logo">
	<g>
		<path d="M284.832,281.372c0,0-0.091-24.346-7.83-24.346c-7.195,0-53.942,0-53.942,0c1.795-27.934,2.263-53.189,2.263-75.739
			h52.748c0,0,2.03-23.261-8.843-22.993c-6.618,0-91.243,0-91.243,0c3.593-13.525,8.115-27.491,13.524-41.929
			c0,0-24.814,0-33.273,22.254c-3.492,9.188-13.617,44.479-31.646,80.539c6.077-0.649,26.155-1.202,37.982-22.892
			c2.177-6.055,2.592-6.864,5.297-14.979h29.754c0,10.818,0.156,25.767-0.731,43.789c0,17.167-0.5,25.167-1,31.95
			c0,0-43.971,0-53.908,0c-12.104,0-16.043,24.346-16.043,24.346h67.625c-4.522,51.395-28.867,94.232-73.034,128.488
			c7.204,7.201,43.135-0.262,52.583-9.752c0,0,23.694-21.529,36.683-71.398c17.117,19.846,31.549,37.428,43.28,52.746
			c5.411,7.225,12.174,14.879,12.174,14.879s8.347-28.391-1.092-41.896c-7.814-9.201-29.129-34.285-38.13-43.311L213.151,323.3
			c4.501-14.408,7.21-28.404,8.117-41.928H284.832z M298.358,378.683l24.149,0.006l7.738,27.021c0,0,37.035-27.021,43.525-27.021
			c6.491,0,25.366-0.006,25.366-0.006h25.699V154.403H298.358V378.683z M324.058,178.748h75.079v175.595h-28.802l-29.222,18.688
			l-4.777-18.652l-12.278-0.035V178.748z M687.88,240.796l21.643,16.23c23.436-28.845,40.104-50.926,50.044-66.272
			c0,0-17.218-15.738-30.565-4.436C723.358,195.411,706.817,220.067,687.88,240.796z M579.679,242.15
			c-0.909-0.894-2.25-2.706-4.057-5.411c-17.138-23.433-24.808-36.888-34.934-46.166c-10.127-9.276-29.984,2.885-29.984,2.885
			c10.818,13.525,23.443,31.108,37.87,52.748c3.587,5.411,6.292,9.468,8.114,12.175L579.679,242.15z M797.435,270.852
			c-22.265,0-147.423,1.052-147.423,1.052V158.294c5.409,0,13.975-0.442,25.697-1.352c45.984-2.707,78.887-4.502,98.732-5.411
			c0,0,13.74-30.583-0.667-37.618c-10.389,0-12.074,4.158-26.043,5.15c-5.765,0.41-185.841,18.548-261.373,20.294
			c1.793,9.928,8.256,16.979,17.542,22.227c17.563,3.838,25.739,1.678,55.492,0.767c27.936-1.793,49.132-2.704,63.568-2.704v112.257
			H472.833c0,0,5.109,25.699,24.953,25.699c21.445,0,125.175,0,125.175,0v79.797c0,15.721-12.585,24.74-27.536,23.762
			c-15.832,0.131-29.334-1.291-46.889-2.031c2.245,4.467,7.119,16.184,21.725,24.562c11.105,5.412,18.186,7.395,29.267,7.395
			c33.244,0,51.366-19.434,50.484-50.984v-82.5c0,0,121.873,0,137.635,0C798.545,297.603,797.435,270.852,797.435,270.852z"/>
	</g>
</g>
</svg>
