<svg xmlns="http://www.w3.org/2000/svg" width="300" height="300" viewBox="0, 0, 300, 300"><path d="M160.216 165.415s-.083-22.311-7.175-22.311h-49.432c1.645-25.599 2.073-48.742 2.073-69.407h48.339s1.86-21.316-8.104-21.071h-83.615c3.292-12.394 7.436-25.193 12.393-38.424 0 0-22.739 0-30.491 20.394-3.2 8.42-12.479 40.761-29.001 73.806 5.569-.595 23.969-1.102 34.807-20.978 1.995-5.549 2.375-6.29 4.854-13.727h27.267c0 9.914.143 23.613-.67 40.128 0 15.732-.458 23.063-.916 29.279h-49.402c-11.092 0-14.702 22.311-14.702 22.311h61.972c-4.144 47.098-26.454 86.353-66.928 117.746 6.601 6.598 39.529-.241 48.187-8.936 0 0 21.713-19.73 33.616-65.429 15.686 18.186 28.912 34.299 39.662 48.336 4.959 6.621 11.156 13.635 11.156 13.635s7.649-26.017-1.001-38.393c-7.16-8.432-26.693-31.419-34.942-39.692l-13.635 11.156c4.125-13.204 6.607-26.029 7.438-38.423h58.25zm12.396 89.176l22.13.006 7.091 24.762s33.939-24.762 39.886-24.762c5.949 0 23.246-.006 23.246-.006h23.55v-205.531h-115.903v205.531zm23.551-183.221h68.803v160.916h-26.394l-26.78 17.125-4.377-17.092-11.252-.032v-160.917z"/></svg>