<?xml version="1.0" encoding="utf-8"?>
<!-- Generator: Adobe Illustrator 16.0.0, SVG Export Plug-In . SVG Version: 6.00 Build 0)  -->
<!DOCTYPE svg PUBLIC "-//W3C//DTD SVG 1.1//EN" "http://www.w3.org/Graphics/SVG/1.1/DTD/svg11.dtd">
<svg version="1.1" id="black" xmlns="http://www.w3.org/2000/svg" xmlns:xlink="http://www.w3.org/1999/xlink" x="0px" y="0px"
	 width="545px" height="545px" viewBox="0 0 545 545" enable-background="new 0 0 545 545" xml:space="preserve">
<g id="logo">
	<g>
		<path d="M284.832,281.372c0,0-0.091-24.346-7.83-24.346c-7.195,0-53.942,0-53.942,0c1.795-27.934,2.263-53.189,2.263-75.739
			h52.748c0,0,2.03-23.261-8.843-22.993c-6.618,0-91.243,0-91.243,0c3.593-13.525,8.115-27.491,13.524-41.929
			c0,0-24.814,0-33.273,22.254c-3.492,9.188-13.617,44.479-31.646,80.539c6.077-0.649,26.155-1.202,37.982-22.892
			c2.177-6.055,2.592-6.864,5.297-14.979h29.754c0,10.818,0.156,25.767-0.731,43.789c0,17.167-0.5,25.167-1,31.95
			c0,0-43.971,0-53.908,0c-12.104,0-16.043,24.346-16.043,24.346h67.625c-4.522,51.395-28.867,94.231-73.034,128.488
			c7.204,7.2,43.135-0.263,52.583-9.752c0,0,23.694-21.529,36.683-71.398c17.117,19.846,31.549,37.428,43.28,52.746
			c5.411,7.225,12.174,14.879,12.174,14.879s8.347-28.391-1.092-41.896c-7.814-9.201-29.129-34.285-38.13-43.312L213.151,323.3
			c4.501-14.408,7.21-28.403,8.117-41.928H284.832L284.832,281.372z M298.358,378.683l24.149,0.007l7.738,27.021
			c0,0,37.035-27.021,43.525-27.021c6.491,0,25.366-0.007,25.366-0.007h25.699v-224.28H298.358V378.683z M324.058,178.748h75.079
			v175.595h-28.802l-29.222,18.688l-4.777-18.652l-12.278-0.035V178.748L324.058,178.748z"/>
	</g>
</g>
</svg>
