<?xml version="1.0" encoding="UTF-8"?>
<!DOCTYPE svg PUBLIC "-//W3C//DTD SVG 1.1//EN" "http://www.w3.org/Graphics/SVG/1.1/DTD/svg11.dtd">
<svg version="1.1" xmlns="http://www.w3.org/2000/svg" xmlns:xlink="http://www.w3.org/1999/xlink" x="0px" y="0px" width="320" height="320" viewBox="0, 0, 320, 320">
  <g id="Layer 1">
    <path d="M136.524,23.839 C41.426,40.908 -8.562,146.979 40.206,229.885 C91.413,317.668 218.211,322.545 275.514,237.2 C342.571,136.006 254.787,1.893 136.524,23.839 z M143.839,76.265 C143.839,109.183 145.059,105.526 127.99,106.745 C99.948,109.183 95.071,116.499 93.852,151.856 C92.633,206.72 96.29,215.255 126.77,217.693 C146.278,220.132 145.059,218.912 145.059,248.173 C145.059,276.215 145.059,276.215 125.551,268.9 C37.768,240.858 18.261,125.033 91.413,68.949 C104.825,57.977 130.428,47.004 140.182,47.004 L143.839,47.004 L143.839,76.265 z M191.389,49.442 C273.076,72.607 301.117,177.459 242.595,239.639 C225.526,256.708 193.827,273.777 180.416,272.558 L177.977,271.338 L176.758,248.173 C176.758,218.912 175.539,221.351 190.169,220.132 C220.65,217.693 224.307,210.378 225.526,166.486 C225.526,117.718 220.65,109.183 190.169,106.745 L177.977,105.526 L176.758,101.868 C175.539,96.991 175.539,49.442 176.758,48.223 C177.977,47.004 181.635,47.004 191.389,49.442 z M195.046,133.568 C198.704,136.006 198.704,182.336 195.046,185.994 C191.389,189.651 126.77,189.651 124.332,185.994 C123.113,183.555 123.113,136.006 124.332,133.568 C126.77,132.348 192.608,132.348 195.046,133.568 z" fill="#000000"/>
  </g>
  <defs/>
</svg>
