<?xml version="1.0" encoding="UTF-8"?>
<!DOCTYPE svg PUBLIC "-//W3C//DTD SVG 1.1//EN" "http://www.w3.org/Graphics/SVG/1.1/DTD/svg11.dtd">
<svg version="1.1" xmlns="http://www.w3.org/2000/svg" xmlns:xlink="http://www.w3.org/1999/xlink" x="0px" y="0px" width="300" height="300" viewBox="0, 0, 300, 300">
  <g id="Layer 1">
    <g>
      <path d="M136.162,24.633 C126.534,25.647 119.946,27.167 110.317,30.208 C100.182,33.755 94.608,36.289 93.595,38.316 C91.567,41.356 93.088,44.904 97.649,46.424 C114.372,53.012 127.547,65.681 132.615,82.404 C135.655,91.019 135.149,84.937 135.655,184.262 L135.655,275.985 L140.723,275.985 C146.804,276.492 154.405,276.492 160.486,275.985 L165.554,275.985 L165.554,184.769 C166.061,84.937 165.554,91.019 168.595,82.404 C174.169,65.681 186.838,53.012 203.561,46.424 C210.655,43.89 210.149,38.316 203.054,34.769 C183.29,25.647 157.953,21.593 136.162,24.633 z" fill="#000000"/>
      <path d="M69.777,53.012 C54.574,65.681 42.412,81.897 33.797,101.66 C12.513,150.309 27.209,211.12 68.763,246.593 C74.338,251.154 73.831,255.208 73.831,206.052 L73.831,161.964 L72.817,160.444 C67.75,154.87 56.601,159.431 53.054,169.059 C51.027,174.127 50.013,174.127 47.48,171.086 C41.399,163.992 38.865,151.829 41.399,142.201 C42.919,135.613 47.986,126.998 50.013,126.998 C51.027,127.505 51.534,127.505 53.561,131.559 C57.615,141.187 68.257,145.242 72.817,139.667 C73.831,138.654 74.338,49.971 73.324,49.971 C73.324,49.971 71.297,51.492 69.777,53.012 z" fill="#000000"/>
      <path d="M227.885,250.14 L229.405,249.127 C243.088,239.498 260.824,215.681 267.412,198.958 C267.919,197.437 268.426,195.917 268.932,194.904 C269.946,192.877 272.986,182.742 274,178.181 C274.507,176.66 275.013,174.633 275.013,173.62 C277.547,162.978 274.507,157.404 267.412,157.91 C261.838,158.924 256.77,162.978 253.73,171.086 C250.182,179.194 240.554,158.924 242.074,146.762 C243.088,135.613 251.196,122.944 253.223,128.519 C260.824,146.762 278.561,147.269 275.52,129.532 C271.466,103.687 259.304,80.377 241.061,61.627 C238.527,58.586 234.473,55.546 232.953,53.519 C230.926,51.998 227.885,50.478 227.885,50.478 z" fill="#000000"/>
      <path d="M93.088,71.762 L93.088,262.809 L96.635,264.329 C104.743,268.383 112.851,271.424 115.892,271.424 L117.412,271.424 C117.412,97.606 117.412,101.154 114.372,91.525 C111.331,83.417 102.716,73.282 95.115,69.735 C93.088,68.214 92.581,68.214 93.088,71.762 z" fill="#000000"/>
      <path d="M206.095,69.735 C194.439,75.816 186.838,87.471 184.304,101.154 C183.797,107.235 183.29,270.917 184.304,271.931 C184.811,271.931 185.317,271.931 186.331,271.424 C187.345,270.917 189.372,270.41 190.385,270.41 C193.932,268.89 199,266.863 203.054,265.343 C205.588,264.329 207.615,263.316 207.615,263.316 C207.615,263.316 208.122,262.809 208.122,262.302 C209.135,260.782 208.628,68.721 208.122,68.721 C207.615,68.721 206.601,69.228 206.095,69.735 z" fill="#000000"/>
    </g>
  </g>
  <defs/>
</svg>
